M48
;Layer_Color=9474304
;FILE_FORMAT=2:5
INCH,TZ
;TYPE=PLATED
T1F00S00C0.01968
T2F00S00C0.02756
T3F00S00C0.02800
T4F00S00C0.03150
T5F00S00C0.03543
T6F00S00C0.04331
T7F00S00C0.04724
;TYPE=NON_PLATED
T8F00S00C0.11811
%
T01
X314961Y188976
X322835Y204724
X338583
X330709Y220472
X314961
X322835Y236220
X338583
X330709Y251969
X316862
X322835Y267717
X338583
X330709Y283465
X316862
X322835Y299213
X338583
X307087
X299213Y283465
X306478Y268325
X291338Y267717
X283465Y251969
X299723Y251458
X307087Y236220
X291338
X275590
X259842
X244094
X228346
X211114Y234736
X196850Y236220
X181102
X165354
X157480Y220472
X165354Y204724
X181102
X196850
X212598
X228346
X244094
X259842
X275590
X291338
X307087
X299213Y220472
X283465
X267717
X251969
X236220
X220472
Y188976
X236220
X251969
X267717
X283465
X299213
X204724
X188976
X173228
X157480
X173228Y251969
X188976
X181102Y267717
X165354
Y299213
X196319Y298681
X204724Y283465
X212598Y267717
X244094
X259842
X251969Y283465
X259842Y299213
X251969Y251969
X125984
X110236
X118110Y267717
X133858
X125984Y283465
X110236
X149606Y299213
X133858Y236220
X118110
X110236Y220472
X118110Y204724
X133858
X149606
X141732Y188976
X125984
Y314961
X141732
X133858Y330709
X125984Y346457
X141732
X149606Y362205
X133858
X118110
X110236Y377953
X125984
X133858Y393701
X149606
X141732Y409449
X125984
X110236
X118110Y425197
X133858
X149606
X118110Y393701
X110236Y346457
Y314961
X157480
X173228
X165354Y330709
X157480Y346457
X173228
X181102Y362205
X196850
Y330709
X205077Y315313
X242945Y331858
X267717Y346457
X283465
X291338Y362205
X275590
X283465Y377953
X299213
X307087Y393701
X291338
X275590
X259842
X244094
X228346
X220472Y409449
X236220
X228346Y425197
X212598
X196850
X181102
X165354
X157480Y409449
Y377953
X173228
X181102Y393701
X196850
X236220Y377953
X251969
X228346Y362205
X267717Y409449
X283465
X299213
X307087Y425197
X291338
X275590
X259842
X299213Y314961
X314961Y346457
X330709
X338583Y362205
X322835
X314961Y377953
X330709
X338583Y393701
X322835
X314961Y409449
X330709
X322835Y425197
T02
X158268Y263268
Y303268
X242717Y302854
X231083Y281201
X230984Y269882
X231181Y258858
X231378Y248031
X271378
X271181Y258858
X270984Y269882
X271083Y281201
X139847Y257946
X128035
X142717Y326083
Y337894
X147405Y376614
X147323Y387402
X187323
X187405Y376614
X222716Y376575
X222723Y366292
X262723
X262717Y376575
X296555Y371654
Y383465
X293819Y344390
Y333957
X287874Y313484
X242717Y314665
X253819Y333957
Y344390
X218012Y417520
X206201
X327874Y313484
T03
X186938Y293118
Y303118
X216938
Y293118
Y313118
Y323118
Y333118
Y343118
Y353118
X186938
Y343118
Y333118
Y323118
Y313118
X308405Y325098
Y355098
X318406
X328405
X338405
Y325098
X328405
X318406
T04
X172244Y243484
X187500Y243406
Y263405
X172244Y263484
X172441Y283248
Y303248
X268406Y294665
X139119Y282765
X119118
X120472Y325965
Y345965
X167398Y365198
X187398
X207480Y364961
Y384961
X187598Y400787
X167598
X242323Y387402
X262323
X273327Y355610
X293327
X268406Y314665
X229921Y332854
Y352854
T05
X197343Y213524
Y223524
X209835Y223433
Y213433
X231791Y212500
X287812Y259462
X288287Y294587
X187697Y414075
T06
X120346Y298988
X130347
X140347
T07
X120374Y222342
X140374
X246358Y404823
Y424823
T08
X336122Y189527
X108622
X107500Y430000
X337500
M30
