G04*
G04 #@! TF.GenerationSoftware,Altium Limited,Altium Designer,22.3.1 (43)*
G04*
G04 Layer_Physical_Order=1*
G04 Layer_Color=255*
%FSLAX25Y25*%
%MOIN*%
G70*
G04*
G04 #@! TF.SameCoordinates,A2C1995B-5DD9-4A06-98F6-E9D1FCF5F817*
G04*
G04*
G04 #@! TF.FilePolarity,Positive*
G04*
G01*
G75*
%ADD34C,0.02000*%
%ADD35C,0.03937*%
%ADD36R,0.05906X0.07874*%
%ADD37O,0.07874X0.05906*%
%ADD38R,0.07874X0.05906*%
%ADD39R,0.05906X0.05906*%
%ADD40C,0.05906*%
%ADD41O,0.08000X0.06000*%
%ADD42C,0.06693*%
%ADD43C,0.12500*%
%ADD44R,0.12500X0.12500*%
%ADD45R,0.12500X0.12500*%
%ADD46R,0.05906X0.05906*%
%ADD47R,0.06693X0.11811*%
%ADD48O,0.06693X0.11811*%
%ADD49O,0.07000X0.10000*%
%ADD50R,0.07000X0.10000*%
%ADD51O,0.10000X0.07000*%
%ADD52R,0.10000X0.07000*%
%ADD53O,0.06000X0.08000*%
%ADD54C,0.03150*%
G36*
X350058Y442520D02*
X350098Y442421D01*
Y174311D01*
X95079D01*
X94882Y174393D01*
Y442363D01*
X95236Y442716D01*
X350058Y442520D01*
D02*
G37*
%LPC*%
G36*
X247072Y432073D02*
X246858D01*
Y425323D01*
X253608D01*
Y425537D01*
X253330Y426938D01*
X252783Y428257D01*
X251990Y429444D01*
X250980Y430454D01*
X249792Y431248D01*
X248473Y431794D01*
X247072Y432073D01*
D02*
G37*
G36*
X245858D02*
X245644D01*
X244244Y431794D01*
X242924Y431248D01*
X241737Y430454D01*
X240727Y429444D01*
X239933Y428257D01*
X239387Y426938D01*
X239108Y425537D01*
Y425323D01*
X245858D01*
Y432073D01*
D02*
G37*
G36*
X338180Y436905D02*
X336820D01*
X335486Y436640D01*
X334229Y436120D01*
X333098Y435364D01*
X332136Y434402D01*
X331380Y433271D01*
X330860Y432014D01*
X330594Y430680D01*
Y429320D01*
X330860Y427986D01*
X331380Y426729D01*
X332136Y425598D01*
X333098Y424636D01*
X334229Y423880D01*
X335486Y423360D01*
X336820Y423095D01*
X338180D01*
X339514Y423360D01*
X340771Y423880D01*
X341902Y424636D01*
X342864Y425598D01*
X343620Y426729D01*
X344140Y427986D01*
X344406Y429320D01*
Y430680D01*
X344140Y432014D01*
X343620Y433271D01*
X342864Y434402D01*
X341902Y435364D01*
X340771Y436120D01*
X339514Y436640D01*
X338180Y436905D01*
D02*
G37*
G36*
X108180D02*
X106820D01*
X105486Y436640D01*
X104229Y436120D01*
X103098Y435364D01*
X102136Y434402D01*
X101380Y433271D01*
X100860Y432014D01*
X100594Y430680D01*
Y429320D01*
X100860Y427986D01*
X101380Y426729D01*
X102136Y425598D01*
X103098Y424636D01*
X104229Y423880D01*
X105486Y423360D01*
X106820Y423095D01*
X108180D01*
X109514Y423360D01*
X110771Y423880D01*
X111902Y424636D01*
X112864Y425598D01*
X113620Y426729D01*
X114140Y427986D01*
X114406Y429320D01*
Y430680D01*
X114140Y432014D01*
X113620Y433271D01*
X112864Y434402D01*
X111902Y435364D01*
X110771Y436120D01*
X109514Y436640D01*
X108180Y436905D01*
D02*
G37*
G36*
X218532Y421472D02*
X218512D01*
Y418020D01*
X221965D01*
Y418040D01*
X221695Y419045D01*
X221175Y419947D01*
X220439Y420683D01*
X219537Y421203D01*
X218532Y421472D01*
D02*
G37*
G36*
X217512D02*
X217491D01*
X216486Y421203D01*
X215585Y420683D01*
X214849Y419947D01*
X214328Y419045D01*
X214059Y418040D01*
Y418020D01*
X217512D01*
Y421472D01*
D02*
G37*
G36*
X253608Y424323D02*
X246858D01*
Y417573D01*
X247072D01*
X248473Y417851D01*
X249792Y418398D01*
X250980Y419191D01*
X251990Y420201D01*
X252783Y421389D01*
X253330Y422708D01*
X253608Y424109D01*
Y424323D01*
D02*
G37*
G36*
X245858D02*
X239108D01*
Y424109D01*
X239387Y422708D01*
X239933Y421389D01*
X240727Y420201D01*
X241737Y419191D01*
X242924Y418398D01*
X244244Y417851D01*
X245644Y417573D01*
X245858D01*
Y424323D01*
D02*
G37*
G36*
X221965Y417020D02*
X218512D01*
Y413567D01*
X218532D01*
X219537Y413836D01*
X220439Y414357D01*
X221175Y415093D01*
X221695Y415994D01*
X221965Y416999D01*
Y417020D01*
D02*
G37*
G36*
X217512D02*
X214059D01*
Y416999D01*
X214328Y415994D01*
X214849Y415093D01*
X215585Y414357D01*
X216486Y413836D01*
X217491Y413567D01*
X217512D01*
Y417020D01*
D02*
G37*
G36*
X167098Y405134D02*
X167026D01*
X165921Y404838D01*
X164930Y404265D01*
X164120Y403456D01*
X163548Y402465D01*
X163252Y401360D01*
Y401287D01*
X167098D01*
Y405134D01*
D02*
G37*
G36*
X192863Y422990D02*
X182530D01*
X181755Y422888D01*
X181332Y422713D01*
X181033Y422589D01*
X180413Y422113D01*
X171796Y413496D01*
X171320Y412876D01*
X171021Y412154D01*
X170919Y411379D01*
Y404267D01*
X170457Y404075D01*
X170267Y404265D01*
X169276Y404838D01*
X168171Y405134D01*
X168098D01*
Y400787D01*
X167598D01*
Y400287D01*
X163252D01*
Y400215D01*
X163548Y399110D01*
X164120Y398119D01*
X164930Y397309D01*
X165921Y396737D01*
X167026Y396441D01*
X167295D01*
X167486Y395979D01*
X161903Y390396D01*
X150992D01*
X150340Y390896D01*
X149367Y391299D01*
X148323Y391436D01*
X146323D01*
X145279Y391299D01*
X144306Y390896D01*
X143470Y390254D01*
X142829Y389419D01*
X142426Y388446D01*
X142288Y387402D01*
X142330Y387085D01*
X138319Y383074D01*
X137843Y382454D01*
X137544Y381732D01*
X137442Y380957D01*
Y359646D01*
X137544Y358871D01*
X137843Y358149D01*
X138319Y357529D01*
X145644Y350204D01*
Y341210D01*
X145182Y341019D01*
X145144Y341057D01*
X144242Y341577D01*
X143237Y341846D01*
X143217D01*
Y337894D01*
X142717D01*
D01*
X143217D01*
Y333941D01*
X143237D01*
X144242Y334210D01*
X145144Y334731D01*
X145182Y334769D01*
X145644Y334577D01*
Y333244D01*
X142435Y330035D01*
X138764D01*
Y329018D01*
X123566D01*
X123141Y329443D01*
X122150Y330015D01*
X121045Y330311D01*
X119900D01*
X118795Y330015D01*
X117804Y329443D01*
X116994Y328633D01*
X116422Y327642D01*
X116126Y326537D01*
Y325392D01*
X116422Y324287D01*
X116994Y323296D01*
X117415Y322875D01*
Y304777D01*
X117246Y304647D01*
X116550Y303739D01*
X116112Y302682D01*
X115963Y301547D01*
Y296429D01*
X116112Y295294D01*
X116550Y294237D01*
X117246Y293329D01*
X118155Y292633D01*
X119212Y292195D01*
X120346Y292045D01*
X121481Y292195D01*
X122538Y292633D01*
X123446Y293329D01*
X124143Y294237D01*
X124581Y295294D01*
X124730Y296429D01*
Y301547D01*
X124581Y302682D01*
X124143Y303739D01*
X123446Y304647D01*
X123404Y304680D01*
Y322749D01*
X123684Y323029D01*
X138764D01*
Y322130D01*
X146669D01*
Y325801D01*
X150755Y329887D01*
X151231Y330507D01*
X151530Y331229D01*
X151632Y332004D01*
Y351444D01*
X151530Y352219D01*
X151355Y352642D01*
X151231Y352941D01*
X150755Y353561D01*
X143430Y360886D01*
Y373224D01*
X143930Y373470D01*
X144387Y373120D01*
X145360Y372716D01*
X146405Y372579D01*
X146905D01*
Y376614D01*
Y380648D01*
X146405D01*
X145360Y380511D01*
X144628Y380207D01*
X144345Y380631D01*
X147081Y383367D01*
X148323D01*
X149367Y383505D01*
X150340Y383908D01*
X150992Y384407D01*
X163143D01*
X163918Y384509D01*
X164640Y384809D01*
X165261Y385284D01*
X176031Y396055D01*
X176506Y396675D01*
X176805Y397397D01*
X176908Y398172D01*
Y410139D01*
X182298Y415529D01*
X182760Y415338D01*
Y410122D01*
X185559D01*
Y404629D01*
X184930Y404265D01*
X184120Y403456D01*
X183548Y402465D01*
X183252Y401360D01*
Y400215D01*
X183548Y399110D01*
X184120Y398119D01*
X184930Y397309D01*
X185422Y397025D01*
Y391317D01*
X185279Y391299D01*
X184306Y390896D01*
X183470Y390254D01*
X182829Y389419D01*
X182426Y388446D01*
X182288Y387402D01*
X182426Y386357D01*
X182829Y385384D01*
X183470Y384549D01*
X184306Y383908D01*
X185279Y383505D01*
X185321Y383499D01*
Y380494D01*
X184387Y380108D01*
X183552Y379466D01*
X182911Y378631D01*
X182508Y377658D01*
X182370Y376614D01*
X182508Y375569D01*
X182911Y374596D01*
X183552Y373761D01*
X184387Y373120D01*
X185321Y372733D01*
Y369018D01*
X184729Y368676D01*
X183920Y367867D01*
X183348Y366876D01*
X183051Y365771D01*
Y364626D01*
X183348Y363521D01*
X183920Y362530D01*
X184729Y361720D01*
X185128Y361490D01*
Y357616D01*
X184263Y357502D01*
X183168Y357049D01*
X182228Y356328D01*
X181507Y355387D01*
X181053Y354293D01*
X180899Y353118D01*
X181053Y351943D01*
X181507Y350849D01*
X182228Y349909D01*
X183168Y349187D01*
X184263Y348734D01*
X184898Y348650D01*
Y347586D01*
X184263Y347502D01*
X183168Y347049D01*
X182228Y346328D01*
X181507Y345388D01*
X181053Y344293D01*
X180899Y343118D01*
X181053Y341943D01*
X181149Y341713D01*
X178496Y339060D01*
X178054Y338399D01*
X177898Y337618D01*
Y318618D01*
X178054Y317838D01*
X178496Y317176D01*
X181149Y314523D01*
X181053Y314293D01*
X180899Y313118D01*
X181053Y311943D01*
X181507Y310849D01*
X182228Y309909D01*
X183168Y309187D01*
X184263Y308734D01*
X185438Y308579D01*
X188438D01*
X189612Y308734D01*
X190707Y309187D01*
X191647Y309909D01*
X192368Y310849D01*
X192822Y311943D01*
X192976Y313118D01*
X192822Y314293D01*
X192368Y315388D01*
X191647Y316328D01*
X190707Y317049D01*
X189612Y317502D01*
X188438Y317657D01*
X185438D01*
X184263Y317502D01*
X184033Y317407D01*
X182344Y319095D01*
X182358Y319179D01*
X182900Y319393D01*
X183168Y319187D01*
X184263Y318734D01*
X185438Y318579D01*
X186438D01*
Y323118D01*
Y327657D01*
X185438D01*
X184263Y327502D01*
X183168Y327049D01*
X182477Y326518D01*
X181977Y326765D01*
Y329471D01*
X182477Y329718D01*
X183168Y329187D01*
X184263Y328734D01*
X185438Y328579D01*
X186438D01*
Y333118D01*
Y337657D01*
X185438D01*
X184263Y337502D01*
X183168Y337049D01*
X182900Y336843D01*
X182358Y337058D01*
X182344Y337141D01*
X184033Y338829D01*
X184263Y338734D01*
X185438Y338579D01*
X188438D01*
X189612Y338734D01*
X190707Y339187D01*
X191647Y339909D01*
X192368Y340849D01*
X192822Y341943D01*
X192976Y343118D01*
X192822Y344293D01*
X192368Y345388D01*
X191647Y346328D01*
X190707Y347049D01*
X189612Y347502D01*
X188977Y347586D01*
Y348650D01*
X189612Y348734D01*
X190707Y349187D01*
X191647Y349909D01*
X192368Y350849D01*
X192822Y351943D01*
X192976Y353118D01*
X192822Y354293D01*
X192368Y355387D01*
X191647Y356328D01*
X190707Y357049D01*
X189612Y357502D01*
X189207Y357556D01*
Y361224D01*
X190067Y361720D01*
X190876Y362530D01*
X191448Y363521D01*
X191744Y364626D01*
Y365771D01*
X191448Y366876D01*
X190876Y367867D01*
X190067Y368676D01*
X189400Y369061D01*
Y372710D01*
X189449Y372716D01*
X190422Y373120D01*
X191257Y373761D01*
X191899Y374596D01*
X192302Y375569D01*
X192439Y376614D01*
X192302Y377658D01*
X191899Y378631D01*
X191257Y379466D01*
X190422Y380108D01*
X189449Y380511D01*
X189400Y380517D01*
Y383518D01*
X190340Y383908D01*
X191176Y384549D01*
X191817Y385384D01*
X192220Y386357D01*
X192357Y387402D01*
X192220Y388446D01*
X191817Y389419D01*
X191176Y390254D01*
X190340Y390896D01*
X189500Y391244D01*
Y396866D01*
X190267Y397309D01*
X191077Y398119D01*
X191649Y399110D01*
X191945Y400215D01*
Y401360D01*
X191649Y402465D01*
X191077Y403456D01*
X190267Y404265D01*
X189638Y404629D01*
Y410122D01*
X192634D01*
Y415338D01*
X193096Y415529D01*
X193223Y415403D01*
X193843Y414927D01*
X194142Y414803D01*
X194565Y414628D01*
X195340Y414526D01*
X202248D01*
Y413567D01*
X203207D01*
Y403237D01*
X203309Y402462D01*
X203608Y401740D01*
X204084Y401120D01*
X210801Y394403D01*
Y388440D01*
X210339Y388248D01*
X210149Y388439D01*
X209158Y389011D01*
X208052Y389307D01*
X207980D01*
Y384961D01*
X207480D01*
Y384461D01*
X203134D01*
Y384388D01*
X203430Y383283D01*
X204002Y382292D01*
X204812Y381483D01*
X205803Y380910D01*
X206908Y380614D01*
X207177D01*
X207368Y380152D01*
X205363Y378147D01*
X204887Y377527D01*
X204588Y376805D01*
X204486Y376030D01*
Y368113D01*
X204002Y367629D01*
X203430Y366638D01*
X203134Y365533D01*
Y364388D01*
X203430Y363283D01*
X204002Y362292D01*
X204486Y361808D01*
Y331075D01*
X204588Y330300D01*
X204887Y329578D01*
X205363Y328958D01*
X210934Y323387D01*
X210899Y323118D01*
X211053Y321943D01*
X211507Y320849D01*
X212228Y319909D01*
X213168Y319187D01*
X214263Y318734D01*
X215438Y318579D01*
X218438D01*
X219612Y318734D01*
X220707Y319187D01*
X221647Y319909D01*
X221812Y320124D01*
X233024D01*
X238764Y314384D01*
Y310713D01*
X246669D01*
Y311671D01*
X265253D01*
X265737Y311187D01*
X266728Y310615D01*
X267833Y310319D01*
X268978D01*
X270083Y310615D01*
X271074Y311187D01*
X271251Y311364D01*
X271713Y311173D01*
Y298158D01*
X271251Y297967D01*
X271074Y298143D01*
X270083Y298716D01*
X268978Y299012D01*
X268905D01*
Y294665D01*
Y290057D01*
X269084Y289863D01*
X269074Y289812D01*
Y285103D01*
X269039Y285098D01*
X268065Y284695D01*
X267230Y284054D01*
X266589Y283218D01*
X266186Y282245D01*
X266048Y281201D01*
X266186Y280157D01*
X266589Y279184D01*
X267230Y278348D01*
X268065Y277707D01*
X268994Y277322D01*
Y273786D01*
X268940Y273779D01*
X267967Y273376D01*
X267131Y272735D01*
X266490Y271899D01*
X266087Y270926D01*
X265950Y269882D01*
X266087Y268838D01*
X266490Y267865D01*
X267131Y267029D01*
X267967Y266388D01*
X268940Y265985D01*
X269984Y265847D01*
X271984D01*
X273028Y265985D01*
X274002Y266388D01*
X274837Y267029D01*
X275478Y267865D01*
X275881Y268838D01*
X276019Y269882D01*
X275881Y270926D01*
X275478Y271899D01*
X274837Y272735D01*
X274002Y273376D01*
X273073Y273761D01*
Y277297D01*
X273127Y277304D01*
X274100Y277707D01*
X274936Y278348D01*
X275577Y279184D01*
X275980Y280157D01*
X276117Y281201D01*
X275980Y282245D01*
X275577Y283218D01*
X274936Y284054D01*
X274100Y284695D01*
X273152Y285087D01*
Y288967D01*
X275194Y291009D01*
X275636Y291670D01*
X275791Y292451D01*
Y321425D01*
X275636Y322205D01*
X275194Y322867D01*
X262662Y335399D01*
X262001Y335841D01*
X261221Y335996D01*
X258296D01*
X257672Y336809D01*
X256836Y337451D01*
X255863Y337854D01*
X254819Y337991D01*
X252819D01*
X251775Y337854D01*
X250802Y337451D01*
X249966Y336809D01*
X249325Y335974D01*
X248922Y335001D01*
X248784Y333957D01*
X248922Y332912D01*
X249325Y331939D01*
X249966Y331104D01*
X250802Y330463D01*
X251775Y330060D01*
X252819Y329922D01*
X254819D01*
X255863Y330060D01*
X256836Y330463D01*
X257672Y331104D01*
X258296Y331918D01*
X260376D01*
X271713Y320581D01*
Y318158D01*
X271251Y317967D01*
X271074Y318143D01*
X270083Y318716D01*
X268978Y319012D01*
X267833D01*
X266728Y318716D01*
X265737Y318143D01*
X265253Y317659D01*
X246669D01*
Y318618D01*
X242998D01*
X236381Y325235D01*
X235761Y325711D01*
X235039Y326010D01*
X234264Y326112D01*
X221812D01*
X221647Y326328D01*
X220707Y327049D01*
X219612Y327502D01*
X218438Y327657D01*
X215438D01*
X215168Y327622D01*
X214605Y328185D01*
X214839Y328658D01*
X215438Y328579D01*
X218438D01*
X219612Y328734D01*
X220707Y329187D01*
X221647Y329909D01*
X222368Y330849D01*
X222409Y330947D01*
X226004D01*
X226443Y330186D01*
X227253Y329376D01*
X228244Y328804D01*
X229349Y328508D01*
X230493D01*
X231599Y328804D01*
X232590Y329376D01*
X233399Y330186D01*
X233972Y331177D01*
X234268Y332282D01*
Y333426D01*
X233972Y334532D01*
X233399Y335523D01*
X232590Y336332D01*
X231599Y336905D01*
X230493Y337201D01*
X229349D01*
X228244Y336905D01*
X227253Y336332D01*
X226443Y335523D01*
X226156Y335025D01*
X222518D01*
X222368Y335387D01*
X221647Y336328D01*
X220707Y337049D01*
X219612Y337502D01*
X218438Y337657D01*
X215438D01*
X214263Y337502D01*
X213168Y337049D01*
X212228Y336328D01*
X211507Y335387D01*
X211053Y334293D01*
X210974Y333693D01*
X210474Y333726D01*
Y342510D01*
X210974Y342543D01*
X211053Y341943D01*
X211507Y340849D01*
X212228Y339909D01*
X213168Y339187D01*
X214263Y338734D01*
X215438Y338579D01*
X218438D01*
X219612Y338734D01*
X220707Y339187D01*
X221647Y339909D01*
X222368Y340849D01*
X222822Y341943D01*
X222976Y343118D01*
X222822Y344293D01*
X222368Y345388D01*
X221647Y346328D01*
X220707Y347049D01*
X219612Y347502D01*
X218977Y347586D01*
Y348650D01*
X219612Y348734D01*
X220707Y349187D01*
X221647Y349909D01*
X222368Y350849D01*
X222822Y351943D01*
X222976Y353118D01*
X222822Y354293D01*
X222368Y355387D01*
X221647Y356328D01*
X220707Y357049D01*
X219612Y357502D01*
X218756Y357615D01*
Y362897D01*
X219256Y363144D01*
X219706Y362798D01*
X220679Y362395D01*
X221723Y362258D01*
X223723D01*
X224767Y362395D01*
X225740Y362798D01*
X226576Y363440D01*
X227217Y364275D01*
X227620Y365248D01*
X227758Y366292D01*
X227620Y367337D01*
X227217Y368310D01*
X226576Y369145D01*
X225740Y369786D01*
X224767Y370189D01*
X223723Y370327D01*
X221723D01*
X220679Y370189D01*
X219706Y369786D01*
X219256Y369441D01*
X218756Y369688D01*
Y373175D01*
X219256Y373421D01*
X219699Y373081D01*
X220672Y372678D01*
X221716Y372540D01*
X223716D01*
X224761Y372678D01*
X225734Y373081D01*
X226569Y373722D01*
X227194Y374536D01*
X229372D01*
X251288Y352620D01*
Y348085D01*
X250802Y347884D01*
X249966Y347243D01*
X249325Y346407D01*
X248922Y345434D01*
X248784Y344390D01*
X248922Y343346D01*
X249325Y342372D01*
X249966Y341537D01*
X250802Y340896D01*
X251775Y340493D01*
X252819Y340355D01*
X254819D01*
X255863Y340493D01*
X256836Y340896D01*
X257672Y341537D01*
X258313Y342372D01*
X258716Y343346D01*
X258765Y343721D01*
X259239Y343881D01*
X285383Y317737D01*
X285265Y317147D01*
X284857Y316978D01*
X284021Y316337D01*
X283380Y315501D01*
X282977Y314528D01*
X282839Y313484D01*
X282977Y312440D01*
X283380Y311467D01*
X284021Y310631D01*
X284857Y309990D01*
X285830Y309587D01*
X286041Y309559D01*
Y299524D01*
X284335D01*
Y289650D01*
X292240D01*
Y299524D01*
X290120D01*
Y309671D01*
X290891Y309990D01*
X291727Y310631D01*
X292368Y311467D01*
X292771Y312440D01*
X292909Y313484D01*
X292771Y314528D01*
X292368Y315501D01*
X291727Y316337D01*
X290891Y316978D01*
X289918Y317381D01*
X289913Y317382D01*
Y325652D01*
X289858Y325929D01*
Y330557D01*
X290358Y330803D01*
X290802Y330463D01*
X291775Y330060D01*
X292819Y329922D01*
X294819D01*
X295836Y330056D01*
X297792Y328100D01*
Y322345D01*
X297947Y321565D01*
X298389Y320903D01*
X302919Y316373D01*
X303580Y315931D01*
X304361Y315776D01*
X316831D01*
X317611Y315931D01*
X318273Y316373D01*
X320044Y318145D01*
X320486Y318806D01*
X320641Y319587D01*
Y319654D01*
X320675Y319668D01*
X321615Y320389D01*
X322336Y321329D01*
X322790Y322424D01*
X322944Y323598D01*
Y326598D01*
X322790Y327773D01*
X322336Y328868D01*
X321615Y329808D01*
X320675Y330529D01*
X319580Y330983D01*
X318406Y331137D01*
X317231Y330983D01*
X316136Y330529D01*
X315196Y329808D01*
X314475Y328868D01*
X314021Y327773D01*
X313867Y326598D01*
Y323598D01*
X314021Y322424D01*
X314475Y321329D01*
X315196Y320389D01*
X315276Y320328D01*
X315115Y319854D01*
X312906D01*
Y331098D01*
X306789D01*
X303436Y334451D01*
X303282Y335229D01*
X302840Y335891D01*
X298332Y340399D01*
X297670Y340841D01*
X297545Y340866D01*
X297431Y341353D01*
X297672Y341537D01*
X298313Y342372D01*
X298716Y343346D01*
X298853Y344390D01*
X298716Y345434D01*
X298313Y346407D01*
X297672Y347243D01*
X296836Y347884D01*
X296567Y347995D01*
Y352704D01*
X296805Y352941D01*
X297377Y353933D01*
X297673Y355038D01*
Y356183D01*
X297377Y357288D01*
X296805Y358279D01*
X295996Y359088D01*
X295004Y359661D01*
X293899Y359957D01*
X292755D01*
X291649Y359661D01*
X290733Y359132D01*
X290634D01*
X289707Y360059D01*
Y367489D01*
X290259Y368041D01*
X292602D01*
Y367701D01*
X300508D01*
Y368027D01*
X301065D01*
X304825Y364267D01*
Y359325D01*
X304475Y358868D01*
X304021Y357773D01*
X303867Y356598D01*
Y353598D01*
X304021Y352424D01*
X304475Y351329D01*
X305196Y350389D01*
X306136Y349668D01*
X307231Y349214D01*
X308405Y349060D01*
X309580Y349214D01*
X310675Y349668D01*
X311615Y350389D01*
X312336Y351329D01*
X312790Y352424D01*
X312944Y353598D01*
Y356598D01*
X312790Y357773D01*
X312336Y358868D01*
X311615Y359808D01*
X310814Y360423D01*
Y365507D01*
X310712Y366282D01*
X310412Y367004D01*
X309937Y367624D01*
X304423Y373138D01*
X303803Y373614D01*
X303081Y373913D01*
X302306Y374015D01*
X300508D01*
Y375606D01*
X292602D01*
Y374029D01*
X289019D01*
X288244Y373927D01*
X287821Y373752D01*
X287522Y373628D01*
X286902Y373152D01*
X284595Y370846D01*
X284120Y370226D01*
X283821Y369504D01*
X283718Y368729D01*
Y358819D01*
X283821Y358044D01*
X284120Y357322D01*
X284595Y356702D01*
X287277Y354020D01*
X287897Y353545D01*
X288619Y353245D01*
X289394Y353143D01*
X289732D01*
X289849Y352941D01*
X290579Y352211D01*
Y347713D01*
X289966Y347243D01*
X289325Y346407D01*
X288922Y345434D01*
X288784Y344390D01*
X288922Y343346D01*
X289325Y342372D01*
X289966Y341537D01*
X290206Y341353D01*
X290093Y340866D01*
X289967Y340841D01*
X289306Y340399D01*
X286377Y337470D01*
X285935Y336808D01*
X285780Y336028D01*
Y325707D01*
X285835Y325430D01*
Y323706D01*
X285373Y323515D01*
X260595Y348292D01*
X259934Y348734D01*
X259154Y348890D01*
X255366D01*
Y353465D01*
X255211Y354245D01*
X254769Y354907D01*
X231659Y378017D01*
X230997Y378459D01*
X230217Y378614D01*
X227194D01*
X226569Y379428D01*
X225734Y380069D01*
X224761Y380472D01*
X223716Y380609D01*
X222271D01*
X222064Y381109D01*
X226317Y385362D01*
X238481D01*
X238845Y384733D01*
X239654Y383924D01*
X240645Y383351D01*
X241751Y383055D01*
X242895D01*
X244001Y383351D01*
X244992Y383924D01*
X245801Y384733D01*
X246076Y385210D01*
X247450D01*
X248231Y385365D01*
X248892Y385807D01*
X250064Y386979D01*
X250064Y386979D01*
X250506Y387640D01*
X250661Y388421D01*
Y397573D01*
X253608D01*
Y412073D01*
X239108D01*
Y397573D01*
X246583D01*
Y389716D01*
X246083Y389582D01*
X245801Y390070D01*
X244992Y390880D01*
X244001Y391452D01*
X242895Y391748D01*
X241751D01*
X240645Y391452D01*
X239654Y390880D01*
X238845Y390070D01*
X238481Y389441D01*
X225472D01*
X224692Y389285D01*
X224030Y388843D01*
X217258Y382071D01*
X216784Y382304D01*
X216789Y382345D01*
Y395643D01*
X216687Y396418D01*
X216388Y397140D01*
X215912Y397760D01*
X209195Y404478D01*
Y413567D01*
X210154D01*
Y421472D01*
X202248D01*
Y420514D01*
X196580D01*
X194981Y422113D01*
X194360Y422589D01*
X193638Y422888D01*
X192863Y422990D01*
D02*
G37*
G36*
X206980Y389307D02*
X206908D01*
X205803Y389011D01*
X204812Y388439D01*
X204002Y387629D01*
X203430Y386638D01*
X203134Y385533D01*
Y385461D01*
X206980D01*
Y389307D01*
D02*
G37*
G36*
X297076Y387417D02*
X297055D01*
Y383965D01*
X300508D01*
Y383985D01*
X300238Y384990D01*
X299718Y385892D01*
X298982Y386628D01*
X298081Y387148D01*
X297076Y387417D01*
D02*
G37*
G36*
X296055D02*
X296035D01*
X295029Y387148D01*
X294128Y386628D01*
X293392Y385892D01*
X292872Y384990D01*
X292602Y383985D01*
Y383965D01*
X296055D01*
Y387417D01*
D02*
G37*
G36*
X300508Y382965D02*
X297055D01*
Y379512D01*
X297076D01*
X298081Y379781D01*
X298982Y380302D01*
X299718Y381037D01*
X300238Y381939D01*
X300508Y382944D01*
Y382965D01*
D02*
G37*
G36*
X296055D02*
X292602D01*
Y382944D01*
X292872Y381939D01*
X293392Y381037D01*
X294128Y380302D01*
X295029Y379781D01*
X296035Y379512D01*
X296055D01*
Y382965D01*
D02*
G37*
G36*
X148405Y380648D02*
X147905D01*
Y377114D01*
X152373D01*
X152302Y377658D01*
X151899Y378631D01*
X151257Y379466D01*
X150422Y380108D01*
X149449Y380511D01*
X148405Y380648D01*
D02*
G37*
G36*
X152373Y376114D02*
X147905D01*
Y372579D01*
X148405D01*
X149449Y372716D01*
X150422Y373120D01*
X151257Y373761D01*
X151899Y374596D01*
X152302Y375569D01*
X152373Y376114D01*
D02*
G37*
G36*
X167970Y369545D02*
X167898D01*
Y365698D01*
X171744D01*
Y365771D01*
X171448Y366876D01*
X170876Y367867D01*
X170067Y368676D01*
X169076Y369249D01*
X167970Y369545D01*
D02*
G37*
G36*
X166898D02*
X166826D01*
X165720Y369249D01*
X164729Y368676D01*
X163920Y367867D01*
X163348Y366876D01*
X163051Y365771D01*
Y365698D01*
X166898D01*
Y369545D01*
D02*
G37*
G36*
X262895Y391748D02*
X261751D01*
X260645Y391452D01*
X259654Y390880D01*
X258845Y390070D01*
X258273Y389079D01*
X257976Y387974D01*
Y386829D01*
X258273Y385724D01*
X258845Y384733D01*
X259654Y383924D01*
X260480Y383446D01*
Y380392D01*
X259699Y380069D01*
X258864Y379428D01*
X258223Y378592D01*
X257820Y377619D01*
X257682Y376575D01*
X257820Y375531D01*
X258223Y374557D01*
X258864Y373722D01*
X259699Y373081D01*
X260672Y372678D01*
X260727Y372671D01*
Y370196D01*
X260679Y370189D01*
X259706Y369786D01*
X258870Y369145D01*
X258229Y368310D01*
X257826Y367337D01*
X257689Y366292D01*
X257826Y365248D01*
X258229Y364275D01*
X258870Y363440D01*
X259706Y362798D01*
X260679Y362395D01*
X261723Y362258D01*
X263723D01*
X264767Y362395D01*
X265740Y362798D01*
X266576Y363440D01*
X267217Y364275D01*
X267620Y365248D01*
X267758Y366292D01*
X267620Y367337D01*
X267217Y368310D01*
X266576Y369145D01*
X265740Y369786D01*
X264805Y370174D01*
Y372696D01*
X265734Y373081D01*
X266569Y373722D01*
X267211Y374557D01*
X267614Y375531D01*
X267751Y376575D01*
X267614Y377619D01*
X267211Y378592D01*
X266569Y379428D01*
X265734Y380069D01*
X264761Y380472D01*
X264559Y380498D01*
Y383674D01*
X264992Y383924D01*
X265801Y384733D01*
X266373Y385724D01*
X266669Y386829D01*
Y387974D01*
X266373Y389079D01*
X265801Y390070D01*
X264992Y390880D01*
X264001Y391452D01*
X262895Y391748D01*
D02*
G37*
G36*
X171744Y364698D02*
X167898D01*
Y360852D01*
X167970D01*
X169076Y361148D01*
X170067Y361720D01*
X170876Y362530D01*
X171448Y363521D01*
X171744Y364626D01*
Y364698D01*
D02*
G37*
G36*
X166898D02*
X163051D01*
Y364626D01*
X163348Y363521D01*
X163920Y362530D01*
X164729Y361720D01*
X165720Y361148D01*
X166826Y360852D01*
X166898D01*
Y364698D01*
D02*
G37*
G36*
X328405Y361137D02*
X327231Y360983D01*
X326136Y360529D01*
X325196Y359808D01*
X324475Y358868D01*
X324021Y357773D01*
X323938Y357138D01*
X322873D01*
X322790Y357773D01*
X322336Y358868D01*
X321615Y359808D01*
X320675Y360529D01*
X319580Y360983D01*
X318406Y361137D01*
X317231Y360983D01*
X316136Y360529D01*
X315196Y359808D01*
X314475Y358868D01*
X314021Y357773D01*
X313867Y356598D01*
Y353598D01*
X314021Y352424D01*
X314475Y351329D01*
X315196Y350389D01*
X316136Y349668D01*
X317231Y349214D01*
X318406Y349060D01*
X319580Y349214D01*
X320675Y349668D01*
X321615Y350389D01*
X322336Y351329D01*
X322790Y352424D01*
X322873Y353059D01*
X323938D01*
X324021Y352424D01*
X324475Y351329D01*
X325196Y350389D01*
X326136Y349668D01*
X327231Y349214D01*
X328405Y349060D01*
X329580Y349214D01*
X330675Y349668D01*
X331615Y350389D01*
X332336Y351329D01*
X332790Y352424D01*
X332944Y353598D01*
Y356598D01*
X332790Y357773D01*
X332336Y358868D01*
X331615Y359808D01*
X330675Y360529D01*
X329580Y360983D01*
X328405Y361137D01*
D02*
G37*
G36*
X273899Y359957D02*
X273827D01*
Y356110D01*
X277673D01*
Y356183D01*
X277377Y357288D01*
X276805Y358279D01*
X275996Y359088D01*
X275004Y359661D01*
X273899Y359957D01*
D02*
G37*
G36*
X272827D02*
X272755D01*
X271649Y359661D01*
X270658Y359088D01*
X269849Y358279D01*
X269276Y357288D01*
X268980Y356183D01*
Y356110D01*
X272827D01*
Y359957D01*
D02*
G37*
G36*
X338906Y361071D02*
Y355598D01*
X342944D01*
Y356598D01*
X342790Y357773D01*
X342336Y358868D01*
X341615Y359808D01*
X340675Y360529D01*
X339580Y360983D01*
X338906Y361071D01*
D02*
G37*
G36*
X337906Y361071D02*
X337231Y360983D01*
X336136Y360529D01*
X335196Y359808D01*
X334475Y358868D01*
X334021Y357773D01*
X333867Y356598D01*
Y355598D01*
X337906D01*
Y361071D01*
D02*
G37*
G36*
X230493Y357201D02*
X230421D01*
Y353354D01*
X234268D01*
Y353427D01*
X233972Y354532D01*
X233399Y355523D01*
X232590Y356332D01*
X231599Y356905D01*
X230493Y357201D01*
D02*
G37*
G36*
X229421D02*
X229349D01*
X228244Y356905D01*
X227253Y356332D01*
X226443Y355523D01*
X225871Y354532D01*
X225575Y353427D01*
Y353354D01*
X229421D01*
Y357201D01*
D02*
G37*
G36*
X277673Y355110D02*
X273827D01*
Y351264D01*
X273899D01*
X275004Y351560D01*
X275996Y352132D01*
X276805Y352941D01*
X277377Y353933D01*
X277673Y355038D01*
Y355110D01*
D02*
G37*
G36*
X272827D02*
X268980D01*
Y355038D01*
X269276Y353933D01*
X269849Y352941D01*
X270658Y352132D01*
X271649Y351560D01*
X272755Y351264D01*
X272827D01*
Y355110D01*
D02*
G37*
G36*
X342944Y354598D02*
X338906D01*
Y349125D01*
X339580Y349214D01*
X340675Y349668D01*
X341615Y350389D01*
X342336Y351329D01*
X342790Y352424D01*
X342944Y353598D01*
Y354598D01*
D02*
G37*
G36*
X337906D02*
X333867D01*
Y353598D01*
X334021Y352424D01*
X334475Y351329D01*
X335196Y350389D01*
X336136Y349668D01*
X337231Y349214D01*
X337906Y349125D01*
Y354598D01*
D02*
G37*
G36*
X234268Y352354D02*
X230421D01*
Y348508D01*
X230493D01*
X231599Y348804D01*
X232590Y349376D01*
X233399Y350185D01*
X233972Y351177D01*
X234268Y352282D01*
Y352354D01*
D02*
G37*
G36*
X229421D02*
X225575D01*
Y352282D01*
X225871Y351177D01*
X226443Y350185D01*
X227253Y349376D01*
X228244Y348804D01*
X229349Y348508D01*
X229421D01*
Y352354D01*
D02*
G37*
G36*
X121045Y350311D02*
X120972D01*
Y346465D01*
X124819D01*
Y346537D01*
X124523Y347642D01*
X123951Y348633D01*
X123141Y349443D01*
X122150Y350015D01*
X121045Y350311D01*
D02*
G37*
G36*
X119972D02*
X119900D01*
X118795Y350015D01*
X117804Y349443D01*
X116994Y348633D01*
X116422Y347642D01*
X116126Y346537D01*
Y346465D01*
X119972D01*
Y350311D01*
D02*
G37*
G36*
X124819Y345465D02*
X120972D01*
Y341618D01*
X121045D01*
X122150Y341914D01*
X123141Y342487D01*
X123951Y343296D01*
X124523Y344287D01*
X124819Y345392D01*
Y345465D01*
D02*
G37*
G36*
X119972D02*
X116126D01*
Y345392D01*
X116422Y344287D01*
X116994Y343296D01*
X117804Y342487D01*
X118795Y341914D01*
X119900Y341618D01*
X119972D01*
Y345465D01*
D02*
G37*
G36*
X142217Y341846D02*
X142196D01*
X141191Y341577D01*
X140289Y341057D01*
X139553Y340321D01*
X139033Y339419D01*
X138764Y338414D01*
Y338394D01*
X142217D01*
Y341846D01*
D02*
G37*
G36*
Y337394D02*
X138764D01*
Y337373D01*
X139033Y336368D01*
X139553Y335467D01*
X140289Y334731D01*
X141191Y334210D01*
X142196Y333941D01*
X142217D01*
Y337394D01*
D02*
G37*
G36*
X188438Y337657D02*
X187438D01*
Y333618D01*
X192911D01*
X192822Y334293D01*
X192368Y335387D01*
X191647Y336328D01*
X190707Y337049D01*
X189612Y337502D01*
X188438Y337657D01*
D02*
G37*
G36*
X192911Y332618D02*
X187438D01*
Y328579D01*
X188438D01*
X189612Y328734D01*
X190707Y329187D01*
X191647Y329909D01*
X192368Y330849D01*
X192822Y331943D01*
X192911Y332618D01*
D02*
G37*
G36*
X338906Y331071D02*
Y325598D01*
X342944D01*
Y326598D01*
X342790Y327773D01*
X342336Y328868D01*
X341615Y329808D01*
X340675Y330529D01*
X339580Y330983D01*
X338906Y331071D01*
D02*
G37*
G36*
X337906Y331071D02*
X337231Y330983D01*
X336136Y330529D01*
X335196Y329808D01*
X334475Y328868D01*
X334021Y327773D01*
X333867Y326598D01*
Y325598D01*
X337906D01*
Y331071D01*
D02*
G37*
G36*
X188438Y327657D02*
X187438D01*
Y323618D01*
X192911D01*
X192822Y324293D01*
X192368Y325388D01*
X191647Y326328D01*
X190707Y327049D01*
X189612Y327502D01*
X188438Y327657D01*
D02*
G37*
G36*
X342944Y324598D02*
X338906D01*
Y319125D01*
X339580Y319214D01*
X340675Y319668D01*
X341615Y320389D01*
X342336Y321329D01*
X342790Y322424D01*
X342944Y323598D01*
Y324598D01*
D02*
G37*
G36*
X337906D02*
X333867D01*
Y323598D01*
X334021Y322424D01*
X334475Y321329D01*
X335196Y320389D01*
X336136Y319668D01*
X337231Y319214D01*
X337906Y319125D01*
Y324598D01*
D02*
G37*
G36*
X192911Y322618D02*
X187438D01*
Y318579D01*
X188438D01*
X189612Y318734D01*
X190707Y319187D01*
X191647Y319909D01*
X192368Y320849D01*
X192822Y321943D01*
X192911Y322618D01*
D02*
G37*
G36*
X328405Y331137D02*
X327231Y330983D01*
X326136Y330529D01*
X325196Y329808D01*
X324475Y328868D01*
X324021Y327773D01*
X323867Y326598D01*
Y323598D01*
X324021Y322424D01*
X324475Y321329D01*
X325196Y320389D01*
X325707Y319997D01*
Y317330D01*
X324857Y316978D01*
X324021Y316337D01*
X323380Y315501D01*
X322977Y314528D01*
X322839Y313484D01*
X322977Y312440D01*
X323261Y311755D01*
X311845Y300340D01*
X311403Y299678D01*
X311248Y298898D01*
Y270923D01*
X289805Y249480D01*
X276108D01*
X275872Y250049D01*
X275231Y250884D01*
X274395Y251525D01*
X273422Y251928D01*
X272378Y252066D01*
X270378D01*
X269334Y251928D01*
X268361Y251525D01*
X267525Y250884D01*
X266884Y250049D01*
X266481Y249076D01*
X266343Y248031D01*
X266481Y246987D01*
X266884Y246014D01*
X267525Y245179D01*
X268361Y244537D01*
X269334Y244134D01*
X270378Y243997D01*
X272378D01*
X273422Y244134D01*
X274395Y244537D01*
X275231Y245179D01*
X275402Y245402D01*
X290650D01*
X291430Y245557D01*
X292091Y245999D01*
X314729Y268637D01*
X315171Y269298D01*
X315327Y270079D01*
Y298053D01*
X326741Y309467D01*
X326874Y309450D01*
X328874D01*
X329918Y309587D01*
X330891Y309990D01*
X331727Y310631D01*
X332368Y311467D01*
X332771Y312440D01*
X332909Y313484D01*
X332771Y314528D01*
X332368Y315501D01*
X331727Y316337D01*
X330891Y316978D01*
X329918Y317381D01*
X329785Y317399D01*
Y319299D01*
X330675Y319668D01*
X331615Y320389D01*
X332336Y321329D01*
X332790Y322424D01*
X332944Y323598D01*
Y326598D01*
X332790Y327773D01*
X332336Y328868D01*
X331615Y329808D01*
X330675Y330529D01*
X329580Y330983D01*
X328405Y331137D01*
D02*
G37*
G36*
X243237Y306807D02*
X243217D01*
Y303354D01*
X246669D01*
Y303375D01*
X246400Y304380D01*
X245880Y305281D01*
X245144Y306017D01*
X244242Y306538D01*
X243237Y306807D01*
D02*
G37*
G36*
X242217D02*
X242196D01*
X241191Y306538D01*
X240289Y306017D01*
X239553Y305281D01*
X239033Y304380D01*
X238764Y303375D01*
Y303354D01*
X242217D01*
Y306807D01*
D02*
G37*
G36*
X130847Y305865D02*
Y299488D01*
X134730D01*
Y301547D01*
X134581Y302682D01*
X134143Y303739D01*
X133446Y304647D01*
X132538Y305344D01*
X131481Y305782D01*
X130847Y305865D01*
D02*
G37*
G36*
X129847D02*
X129212Y305782D01*
X128155Y305344D01*
X127246Y304647D01*
X126550Y303739D01*
X126112Y302682D01*
X125962Y301547D01*
Y299488D01*
X129847D01*
Y305865D01*
D02*
G37*
G36*
X246669Y302354D02*
X243217D01*
Y298902D01*
X243237D01*
X244242Y299171D01*
X245144Y299691D01*
X245880Y300427D01*
X246400Y301329D01*
X246669Y302334D01*
Y302354D01*
D02*
G37*
G36*
X242217D02*
X238764D01*
Y302334D01*
X239033Y301329D01*
X239553Y300427D01*
X240289Y299691D01*
X241191Y299171D01*
X242196Y298902D01*
X242217D01*
Y302354D01*
D02*
G37*
G36*
X158268Y308302D02*
X157223Y308165D01*
X156251Y307762D01*
X155415Y307121D01*
X154774Y306285D01*
X154371Y305312D01*
X154233Y304268D01*
Y302268D01*
X154371Y301223D01*
X154774Y300251D01*
X155415Y299415D01*
X156228Y298791D01*
Y284532D01*
X148826Y277129D01*
X148384Y276467D01*
X148229Y275687D01*
Y238020D01*
X148384Y237239D01*
X148826Y236578D01*
X163322Y222082D01*
X163322Y222082D01*
X163983Y221640D01*
X164764Y221484D01*
X192941D01*
X193539Y220705D01*
X194365Y220071D01*
X195326Y219673D01*
X196358Y219537D01*
X198327D01*
X199359Y219673D01*
X199466Y219717D01*
X201245Y217938D01*
X201053Y217476D01*
X197843D01*
Y214024D01*
X202279D01*
Y216250D01*
X202742Y216442D01*
X204967Y214216D01*
X204864Y213433D01*
X204999Y212401D01*
X205398Y211440D01*
X206031Y210614D01*
X206857Y209980D01*
X207819Y209582D01*
X208850Y209446D01*
X210819D01*
X211851Y209582D01*
X212812Y209980D01*
X213638Y210614D01*
X214272Y211440D01*
X214670Y212401D01*
X214806Y213433D01*
X214670Y214465D01*
X214272Y215426D01*
X213638Y216252D01*
X212812Y216886D01*
X211851Y217284D01*
X210819Y217420D01*
X208850D01*
X207819Y217284D01*
X207711Y217240D01*
X205932Y219018D01*
X206124Y219480D01*
X209335D01*
Y222933D01*
X204898D01*
Y220706D01*
X204436Y220515D01*
X202210Y222740D01*
X202314Y223524D01*
X202178Y224555D01*
X201780Y225517D01*
X201146Y226343D01*
X200320Y226976D01*
X199359Y227375D01*
X198327Y227510D01*
X196358D01*
X195326Y227375D01*
X194365Y226976D01*
X193539Y226343D01*
X192941Y225563D01*
X165608D01*
X152307Y238864D01*
Y253703D01*
X152769Y253895D01*
X164601Y242062D01*
X165263Y241620D01*
X166043Y241465D01*
X168391D01*
X168766Y240815D01*
X169575Y240006D01*
X170566Y239434D01*
X171672Y239138D01*
X172816D01*
X173922Y239434D01*
X174913Y240006D01*
X175722Y240815D01*
X176294Y241807D01*
X176591Y242912D01*
Y244057D01*
X176294Y245162D01*
X175722Y246153D01*
X174913Y246962D01*
X173922Y247534D01*
X172816Y247831D01*
X171672D01*
X170566Y247534D01*
X169575Y246962D01*
X168766Y246153D01*
X168414Y245543D01*
X166888D01*
X155307Y257124D01*
Y258868D01*
X155807Y259114D01*
X156251Y258774D01*
X157223Y258371D01*
X158268Y258233D01*
X159312Y258371D01*
X160285Y258774D01*
X161121Y259415D01*
X161762Y260250D01*
X162165Y261224D01*
X162180Y261337D01*
X168465D01*
X168766Y260816D01*
X169575Y260006D01*
X170566Y259434D01*
X171672Y259138D01*
X172816D01*
X173922Y259434D01*
X174913Y260006D01*
X175722Y260816D01*
X176063Y261406D01*
X183636D01*
X184022Y260737D01*
X184831Y259928D01*
X185822Y259355D01*
X186928Y259059D01*
X188072D01*
X188775Y259247D01*
X229752Y218269D01*
Y217437D01*
X227839D01*
Y207563D01*
X235744D01*
Y217437D01*
X233830D01*
Y219114D01*
X233675Y219895D01*
X233233Y220556D01*
X191658Y262131D01*
X191847Y262833D01*
Y263978D01*
X191550Y265083D01*
X190978Y266074D01*
X190169Y266883D01*
X189258Y267409D01*
Y288687D01*
X189612Y288734D01*
X190707Y289187D01*
X191647Y289909D01*
X192368Y290849D01*
X192822Y291943D01*
X192976Y293118D01*
X192822Y294293D01*
X192368Y295388D01*
X191647Y296328D01*
X190707Y297049D01*
X189612Y297502D01*
X188438Y297657D01*
X185438D01*
X184263Y297502D01*
X183168Y297049D01*
X182228Y296328D01*
X181507Y295388D01*
X181053Y294293D01*
X180899Y293118D01*
X181053Y291943D01*
X181507Y290849D01*
X182228Y289909D01*
X183168Y289187D01*
X184263Y288734D01*
X185180Y288613D01*
Y267085D01*
X184831Y266883D01*
X184022Y266074D01*
X183681Y265484D01*
X176108D01*
X175722Y266153D01*
X174913Y266962D01*
X173922Y267534D01*
X172816Y267831D01*
X171672D01*
X170566Y267534D01*
X169575Y266962D01*
X168766Y266153D01*
X168340Y265415D01*
X162122D01*
X161762Y266285D01*
X161121Y267121D01*
X160285Y267762D01*
X159312Y268165D01*
X158268Y268302D01*
X157223Y268165D01*
X156251Y267762D01*
X155807Y267421D01*
X155307Y267668D01*
Y268860D01*
X167903Y281457D01*
X168001Y281480D01*
X168482Y281412D01*
X168963Y280579D01*
X169772Y279770D01*
X170763Y279198D01*
X171869Y278902D01*
X173013D01*
X174119Y279198D01*
X175110Y279770D01*
X175919Y280579D01*
X176491Y281570D01*
X176787Y282676D01*
Y283820D01*
X176491Y284926D01*
X175919Y285917D01*
X175110Y286726D01*
X174119Y287298D01*
X173013Y287595D01*
X171869D01*
X170763Y287298D01*
X169772Y286726D01*
X168963Y285917D01*
X168838Y285701D01*
X167224D01*
X166444Y285545D01*
X165782Y285103D01*
X152769Y272090D01*
X152307Y272281D01*
Y274842D01*
X159710Y282245D01*
X160152Y282907D01*
X160307Y283687D01*
Y298791D01*
X161121Y299415D01*
X161762Y300251D01*
X162163Y301219D01*
X168594D01*
X168963Y300579D01*
X169772Y299770D01*
X170763Y299198D01*
X171869Y298902D01*
X173013D01*
X174119Y299198D01*
X175110Y299770D01*
X175919Y300579D01*
X176245Y301144D01*
X181385D01*
X181507Y300849D01*
X182228Y299909D01*
X183168Y299187D01*
X184263Y298734D01*
X185438Y298579D01*
X188438D01*
X189612Y298734D01*
X190707Y299187D01*
X191647Y299909D01*
X192368Y300849D01*
X192822Y301943D01*
X192976Y303118D01*
X192822Y304293D01*
X192368Y305387D01*
X191647Y306328D01*
X190707Y307049D01*
X189612Y307502D01*
X188438Y307657D01*
X185438D01*
X184263Y307502D01*
X183168Y307049D01*
X182228Y306328D01*
X181507Y305387D01*
X181438Y305222D01*
X176320D01*
X175919Y305917D01*
X175110Y306726D01*
X174119Y307298D01*
X173013Y307594D01*
X171869D01*
X170763Y307298D01*
X169772Y306726D01*
X168963Y305917D01*
X168605Y305297D01*
X162167D01*
X162165Y305312D01*
X161762Y306285D01*
X161121Y307121D01*
X160285Y307762D01*
X159312Y308165D01*
X158268Y308302D01*
D02*
G37*
G36*
X267905Y299012D02*
X267833D01*
X266728Y298716D01*
X265737Y298143D01*
X264928Y297334D01*
X264355Y296343D01*
X264059Y295238D01*
Y295165D01*
X267905D01*
Y299012D01*
D02*
G37*
G36*
X134730Y298488D02*
X130847D01*
Y292111D01*
X131481Y292195D01*
X132538Y292633D01*
X133446Y293329D01*
X134143Y294237D01*
X134581Y295294D01*
X134730Y296429D01*
Y298488D01*
D02*
G37*
G36*
X129847D02*
X125962D01*
Y296429D01*
X126112Y295294D01*
X126550Y294237D01*
X127246Y293329D01*
X128155Y292633D01*
X129212Y292195D01*
X129847Y292111D01*
Y298488D01*
D02*
G37*
G36*
X267905Y294165D02*
X264059D01*
Y294093D01*
X264355Y292988D01*
X264928Y291997D01*
X265737Y291187D01*
X266728Y290615D01*
X267833Y290319D01*
X267905D01*
Y294165D01*
D02*
G37*
G36*
X218438Y317657D02*
X215438D01*
X214263Y317502D01*
X213168Y317049D01*
X212228Y316328D01*
X211507Y315388D01*
X211053Y314293D01*
X210899Y313118D01*
X211053Y311943D01*
X211507Y310849D01*
X212228Y309909D01*
X213168Y309187D01*
X214263Y308734D01*
X215438Y308579D01*
X218438D01*
X219612Y308734D01*
X220707Y309187D01*
X221647Y309909D01*
X222368Y310849D01*
X222464Y311079D01*
X225309D01*
X229044Y307344D01*
Y285099D01*
X229039Y285098D01*
X228065Y284695D01*
X227230Y284054D01*
X227119Y283909D01*
X226645Y284070D01*
Y301751D01*
X226490Y302532D01*
X226048Y303193D01*
X226048Y303193D01*
X224877Y304365D01*
X224215Y304807D01*
X223435Y304962D01*
X222545D01*
X222368Y305387D01*
X221647Y306328D01*
X220707Y307049D01*
X219612Y307502D01*
X218438Y307657D01*
X215438D01*
X214263Y307502D01*
X213168Y307049D01*
X212228Y306328D01*
X211507Y305387D01*
X211053Y304293D01*
X210899Y303118D01*
X211053Y301943D01*
X211507Y300849D01*
X212228Y299909D01*
X213168Y299187D01*
X214263Y298734D01*
X215438Y298579D01*
X218438D01*
X219612Y298734D01*
X220707Y299187D01*
X221647Y299909D01*
X222067Y300456D01*
X222567Y300286D01*
Y297618D01*
X210938D01*
Y288618D01*
X214898D01*
Y256192D01*
X215054Y255412D01*
X215496Y254750D01*
X223657Y246590D01*
X224318Y246147D01*
X225098Y245992D01*
X226901D01*
X227525Y245179D01*
X228361Y244537D01*
X229334Y244134D01*
X230378Y243997D01*
X232378D01*
X233422Y244134D01*
X234395Y244537D01*
X235231Y245179D01*
X235855Y245992D01*
X253248D01*
X254028Y246147D01*
X254690Y246590D01*
X264919Y256819D01*
X266704D01*
X267328Y256005D01*
X268164Y255364D01*
X269137Y254961D01*
X270181Y254824D01*
X272181D01*
X273225Y254961D01*
X274198Y255364D01*
X275034Y256005D01*
X275658Y256819D01*
X283859D01*
Y254525D01*
X291765D01*
Y264399D01*
X283859D01*
Y260897D01*
X275658D01*
X275034Y261711D01*
X274198Y262352D01*
X273225Y262755D01*
X272181Y262893D01*
X270181D01*
X269137Y262755D01*
X268164Y262352D01*
X267328Y261711D01*
X266704Y260897D01*
X264075D01*
X263294Y260742D01*
X262633Y260300D01*
X262633Y260300D01*
X252403Y250071D01*
X235855D01*
X235231Y250884D01*
X234395Y251525D01*
X233422Y251928D01*
X232378Y252066D01*
X230378D01*
X229334Y251928D01*
X228361Y251525D01*
X227525Y250884D01*
X226901Y250071D01*
X225943D01*
X218977Y257037D01*
Y288618D01*
X222567D01*
Y271332D01*
X222722Y270552D01*
X223164Y269890D01*
X224336Y268719D01*
X224336Y268719D01*
X224997Y268277D01*
X225778Y268122D01*
X226384D01*
X226490Y267865D01*
X227131Y267029D01*
X227967Y266388D01*
X228940Y265985D01*
X229044Y265971D01*
Y262717D01*
X228164Y262352D01*
X227328Y261711D01*
X226687Y260876D01*
X226284Y259903D01*
X226147Y258858D01*
X226284Y257814D01*
X226687Y256841D01*
X227328Y256005D01*
X228164Y255364D01*
X229137Y254961D01*
X230181Y254824D01*
X232181D01*
X233225Y254961D01*
X234198Y255364D01*
X235034Y256005D01*
X235675Y256841D01*
X236078Y257814D01*
X236216Y258858D01*
X236078Y259903D01*
X235675Y260876D01*
X235034Y261711D01*
X234198Y262352D01*
X233225Y262755D01*
X233122Y262769D01*
Y266023D01*
X234001Y266388D01*
X234837Y267029D01*
X235478Y267865D01*
X235881Y268838D01*
X236019Y269882D01*
X235881Y270926D01*
X235478Y271899D01*
X234837Y272735D01*
X234001Y273376D01*
X233029Y273779D01*
X231984Y273916D01*
X229984D01*
X228940Y273779D01*
X227967Y273376D01*
X227146Y272745D01*
X227079Y272755D01*
X226645Y272923D01*
Y278332D01*
X227119Y278492D01*
X227230Y278348D01*
X228065Y277707D01*
X229039Y277304D01*
X230083Y277166D01*
X232083D01*
X233127Y277304D01*
X234100Y277707D01*
X234935Y278348D01*
X235577Y279184D01*
X235980Y280157D01*
X236117Y281201D01*
X235980Y282245D01*
X235577Y283218D01*
X234935Y284054D01*
X234100Y284695D01*
X233127Y285098D01*
X233122Y285099D01*
Y308189D01*
X233122Y308189D01*
X232967Y308969D01*
X232525Y309631D01*
X227595Y314560D01*
X226934Y315002D01*
X226153Y315157D01*
X222464D01*
X222368Y315388D01*
X221647Y316328D01*
X220707Y317049D01*
X219612Y317502D01*
X218438Y317657D01*
D02*
G37*
G36*
X119691Y287111D02*
X119618D01*
Y283265D01*
X123465D01*
Y283337D01*
X123169Y284442D01*
X122597Y285434D01*
X121787Y286243D01*
X120796Y286815D01*
X119691Y287111D01*
D02*
G37*
G36*
X118619D02*
X118546D01*
X117441Y286815D01*
X116450Y286243D01*
X115640Y285434D01*
X115068Y284442D01*
X114772Y283337D01*
Y283265D01*
X118619D01*
Y287111D01*
D02*
G37*
G36*
X123465Y282265D02*
X119618D01*
Y278418D01*
X119691D01*
X120796Y278715D01*
X121787Y279287D01*
X122597Y280096D01*
X123169Y281087D01*
X123465Y282193D01*
Y282265D01*
D02*
G37*
G36*
X118619D02*
X114772D01*
Y282193D01*
X115068Y281087D01*
X115640Y280096D01*
X116450Y279287D01*
X117441Y278715D01*
X118546Y278418D01*
X118619D01*
Y282265D01*
D02*
G37*
G36*
X128556Y261898D02*
X128535D01*
Y258446D01*
X131988D01*
Y258466D01*
X131719Y259471D01*
X131198Y260373D01*
X130463Y261109D01*
X129561Y261629D01*
X128556Y261898D01*
D02*
G37*
G36*
X127535D02*
X127515D01*
X126510Y261629D01*
X125608Y261109D01*
X124873Y260373D01*
X124352Y259471D01*
X124083Y258466D01*
Y258446D01*
X127535D01*
Y261898D01*
D02*
G37*
G36*
X131988Y257446D02*
X128535D01*
Y253993D01*
X128556D01*
X129561Y254262D01*
X130463Y254783D01*
X131198Y255519D01*
X131719Y256420D01*
X131988Y257425D01*
Y257446D01*
D02*
G37*
G36*
X127535D02*
X124083D01*
Y257425D01*
X124352Y256420D01*
X124873Y255519D01*
X125608Y254783D01*
X126510Y254262D01*
X127515Y253993D01*
X127535D01*
Y257446D01*
D02*
G37*
G36*
X188072Y247752D02*
X186928D01*
X185822Y247456D01*
X184831Y246884D01*
X184022Y246074D01*
X183450Y245083D01*
X183153Y243978D01*
Y242833D01*
X183450Y241728D01*
X184022Y240737D01*
X184831Y239928D01*
X185822Y239355D01*
X186928Y239059D01*
X188072D01*
X189178Y239355D01*
X190169Y239928D01*
X190978Y240737D01*
X191550Y241728D01*
X191847Y242833D01*
Y243978D01*
X191550Y245083D01*
X190978Y246074D01*
X190169Y246884D01*
X189178Y247456D01*
X188072Y247752D01*
D02*
G37*
G36*
X214772Y227386D02*
X210335D01*
Y223933D01*
X214772D01*
Y227386D01*
D02*
G37*
G36*
X209335D02*
X204898D01*
Y223933D01*
X209335D01*
Y227386D01*
D02*
G37*
G36*
X127624Y229592D02*
X120874D01*
Y222843D01*
X127624D01*
Y229592D01*
D02*
G37*
G36*
X119874D02*
X113124D01*
Y222843D01*
X119874D01*
Y229592D01*
D02*
G37*
G36*
X214772Y222933D02*
X210335D01*
Y219480D01*
X214772D01*
Y222933D01*
D02*
G37*
G36*
X144693Y305894D02*
X136000D01*
Y292083D01*
X138335D01*
Y287055D01*
X137441Y286815D01*
X136450Y286243D01*
X135641Y285434D01*
X135068Y284442D01*
X134772Y283337D01*
Y282193D01*
X135068Y281087D01*
X135641Y280096D01*
X136450Y279287D01*
X137441Y278715D01*
X138177Y278517D01*
Y261898D01*
X135894D01*
Y253993D01*
X138177D01*
Y229280D01*
X136940Y228767D01*
X135752Y227974D01*
X134743Y226964D01*
X133949Y225777D01*
X133403Y224457D01*
X133124Y223057D01*
Y221628D01*
X133403Y220228D01*
X133949Y218908D01*
X134743Y217721D01*
X135752Y216711D01*
X136940Y215918D01*
X138259Y215371D01*
X139660Y215092D01*
X141088D01*
X142489Y215371D01*
X143808Y215918D01*
X144996Y216711D01*
X146005Y217721D01*
X146799Y218908D01*
X147345Y220228D01*
X147624Y221628D01*
Y223057D01*
X147345Y224457D01*
X146799Y225777D01*
X146005Y226964D01*
X144996Y227974D01*
X143808Y228767D01*
X142489Y229314D01*
X142256Y229360D01*
Y253993D01*
X143799D01*
Y261898D01*
X142256D01*
Y279755D01*
X142596Y280096D01*
X143169Y281087D01*
X143465Y282193D01*
Y283337D01*
X143169Y284442D01*
X142596Y285434D01*
X142413Y285617D01*
Y292083D01*
X144693D01*
Y305894D01*
D02*
G37*
G36*
X127624Y221843D02*
X120874D01*
Y215092D01*
X127624D01*
Y221843D01*
D02*
G37*
G36*
X119874D02*
X113124D01*
Y215092D01*
X119874D01*
Y221843D01*
D02*
G37*
G36*
X196843Y217476D02*
X192405D01*
Y214024D01*
X196843D01*
Y217476D01*
D02*
G37*
G36*
X202279Y213024D02*
X197843D01*
Y209571D01*
X202279D01*
Y213024D01*
D02*
G37*
G36*
X196843D02*
X192405D01*
Y209571D01*
X196843D01*
Y213024D01*
D02*
G37*
G36*
X336802Y196433D02*
X335442D01*
X334108Y196168D01*
X332851Y195647D01*
X331720Y194891D01*
X330758Y193930D01*
X330002Y192798D01*
X329482Y191542D01*
X329217Y190208D01*
Y188847D01*
X329482Y187513D01*
X330002Y186257D01*
X330758Y185126D01*
X331720Y184164D01*
X332851Y183408D01*
X334108Y182887D01*
X335442Y182622D01*
X336802D01*
X338136Y182887D01*
X339393Y183408D01*
X340524Y184164D01*
X341486Y185126D01*
X342242Y186257D01*
X342762Y187513D01*
X343028Y188847D01*
Y190208D01*
X342762Y191542D01*
X342242Y192798D01*
X341486Y193930D01*
X340524Y194891D01*
X339393Y195647D01*
X338136Y196168D01*
X336802Y196433D01*
D02*
G37*
G36*
X109302D02*
X107942D01*
X106608Y196168D01*
X105351Y195647D01*
X104220Y194891D01*
X103258Y193930D01*
X102503Y192798D01*
X101982Y191542D01*
X101716Y190208D01*
Y188847D01*
X101982Y187513D01*
X102503Y186257D01*
X103258Y185126D01*
X104220Y184164D01*
X105351Y183408D01*
X106608Y182887D01*
X107942Y182622D01*
X109302D01*
X110636Y182887D01*
X111893Y183408D01*
X113024Y184164D01*
X113986Y185126D01*
X114742Y186257D01*
X115262Y187513D01*
X115528Y188847D01*
Y190208D01*
X115262Y191542D01*
X114742Y192798D01*
X113986Y193930D01*
X113024Y194891D01*
X111893Y195647D01*
X110636Y196168D01*
X109302Y196433D01*
D02*
G37*
%LPD*%
G36*
X214677Y378286D02*
Y357557D01*
X214263Y357502D01*
X213168Y357049D01*
X212228Y356328D01*
X211507Y355387D01*
X211053Y354293D01*
X210974Y353693D01*
X210474Y353726D01*
Y361808D01*
X210958Y362292D01*
X211531Y363283D01*
X211827Y364388D01*
Y365533D01*
X211531Y366638D01*
X210958Y367629D01*
X210474Y368113D01*
Y374790D01*
X214177Y378493D01*
X214677Y378286D01*
D02*
G37*
D34*
X313287Y298898D02*
X327874Y313484D01*
X313287Y270079D02*
Y298898D01*
X216938Y343118D02*
Y353118D01*
X253819Y333957D02*
X261221D01*
X287208Y258858D02*
X287812Y259462D01*
X271181Y258858D02*
X287208D01*
X290650Y247441D02*
X313287Y270079D01*
X271969Y247441D02*
X290650D01*
X271378Y248031D02*
X271969Y247441D01*
X187461Y263445D02*
X231791Y219114D01*
Y212500D02*
Y219114D01*
X197343Y223524D02*
X198543D01*
X208634Y213433D01*
X209835D01*
X150268Y238020D02*
X164764Y223524D01*
X197343D01*
X216938Y303118D02*
X217133Y302923D01*
X223435D02*
X224606Y301751D01*
X230705Y270161D02*
X231083Y269783D01*
X224606Y271332D02*
X225778Y270161D01*
X217133Y302923D02*
X223435D01*
X224606Y271332D02*
Y301751D01*
X225778Y270161D02*
X230705D01*
X273752Y292451D02*
Y321425D01*
X261221Y333957D02*
X273752Y321425D01*
X270984Y269882D02*
X271034Y269931D01*
Y281152D02*
X271083Y281201D01*
X271034Y269931D02*
Y281152D01*
X271113Y281231D02*
Y289812D01*
X271083Y281201D02*
X271113Y281231D01*
Y289812D02*
X273752Y292451D01*
X327618Y325098D02*
X327746Y324971D01*
X259154Y346850D02*
X287691Y318313D01*
X287819Y325707D02*
X287874Y325652D01*
X287691Y313484D02*
Y318313D01*
X253425Y346850D02*
X259154D01*
X287874Y313484D02*
Y325652D01*
X287819Y325707D02*
Y336028D01*
X187697Y414075D02*
X188681D01*
X187598Y400787D02*
Y413976D01*
X187697Y414075D01*
X242475Y387249D02*
X247450D01*
X248622Y388421D02*
Y402559D01*
X246358Y404823D02*
X248622Y402559D01*
X242323Y387402D02*
X242475Y387249D01*
X247450D02*
X248622Y388421D01*
X225472Y387402D02*
X242323D01*
X172506Y303183D02*
X186873D01*
X186938Y303118D01*
X172441Y303248D02*
X172506Y303183D01*
X231378Y248031D02*
X253248D01*
X264075Y258858D02*
X271181D01*
X253248Y248031D02*
X264075Y258858D01*
X225098Y248031D02*
X231378D01*
X150268Y238020D02*
Y275687D01*
X153268Y269705D02*
X167224Y283661D01*
X153268Y256279D02*
X166043Y243504D01*
X153268Y256279D02*
Y269705D01*
X150268Y275687D02*
X158268Y283687D01*
Y303268D01*
X166043Y243504D02*
X172224D01*
X172244Y243484D01*
X167224Y283661D02*
X172028D01*
X172441Y283248D01*
X158278Y303258D02*
X172431D01*
X158268Y303268D02*
X158278Y303258D01*
X172431D02*
X172441Y303248D01*
X318406Y355098D02*
X328405D01*
X140217Y257244D02*
Y282028D01*
X140059Y257087D02*
X140217Y257244D01*
Y282028D02*
X140374Y282185D01*
X140217Y222500D02*
Y256929D01*
Y222500D02*
X140374Y222342D01*
X140059Y257087D02*
X140217Y256929D01*
X287819Y336028D02*
X290748Y338957D01*
X296890D02*
X301398Y334449D01*
X290748Y338957D02*
X296890D01*
X301398Y333606D02*
Y334449D01*
Y333606D02*
X308405Y326598D01*
Y325098D02*
Y326598D01*
X187219Y263687D02*
X187461Y263445D01*
X187219Y263687D02*
Y292837D01*
X186938Y293118D02*
X187219Y292837D01*
X172244Y263484D02*
X172283Y263445D01*
X187461D01*
X158268Y263268D02*
X158376Y263376D01*
X172136D01*
X172244Y263484D01*
X179938Y318618D02*
Y337618D01*
X185438Y313118D02*
X186938D01*
X179938Y318618D02*
X185438Y313118D01*
X140347Y298988D02*
X140374Y298961D01*
Y282185D02*
Y298961D01*
X242323Y404823D02*
X242421Y404921D01*
X253327Y346949D02*
Y353465D01*
X222716Y376575D02*
X230217D01*
X253327Y353465D01*
X216717Y378646D02*
X225472Y387402D01*
X216717Y353339D02*
Y378646D01*
Y353339D02*
X216938Y353118D01*
X229789Y332986D02*
X229921Y332854D01*
X217070Y332986D02*
X229789D01*
X216938Y333118D02*
X217070Y332986D01*
X262520Y376772D02*
Y387205D01*
Y376772D02*
X262717Y376575D01*
X262323Y387402D02*
X262520Y387205D01*
X262766Y365797D02*
X262815Y365748D01*
X262766Y365797D02*
Y376526D01*
X262717Y376575D02*
X262766Y376526D01*
X318406Y325098D02*
X318602Y324902D01*
Y319587D02*
Y324902D01*
X316831Y317815D02*
X318602Y319587D01*
X304361Y317815D02*
X316831D01*
X299831Y322345D02*
Y328945D01*
Y322345D02*
X304361Y317815D01*
X293819Y333957D02*
X294819D01*
X299831Y328945D01*
X288081Y294793D02*
Y313278D01*
X287874Y313484D02*
X288081Y313278D01*
Y294793D02*
X288287Y294587D01*
X327746Y313612D02*
X327874Y313484D01*
X327746Y313612D02*
Y324971D01*
X253327Y346949D02*
X253425Y346850D01*
X231083Y258957D02*
Y269783D01*
Y258957D02*
X231181Y258858D01*
X216938Y256192D02*
X225098Y248031D01*
X216938Y256192D02*
Y293118D01*
X226153Y313118D02*
X231083Y308189D01*
X216938Y313118D02*
X226153D01*
X231083Y282087D02*
Y308189D01*
X187360Y365236D02*
Y387364D01*
X187168Y353348D02*
Y364968D01*
X187398Y365198D01*
X186938Y353118D02*
X187168Y353348D01*
X187461Y387539D02*
Y400650D01*
X187598Y400787D01*
X187323Y387402D02*
X187461Y387539D01*
X187323Y387402D02*
X187360Y387364D01*
Y365236D02*
X187398Y365198D01*
X215438Y313118D02*
X216938D01*
X179938Y337618D02*
X185438Y343118D01*
X186938D01*
Y353118D01*
D35*
X242717Y314665D02*
X268406D01*
X234264Y323118D02*
X242717Y314665D01*
X216938Y323118D02*
X234264D01*
X215438D02*
X216938D01*
X207480Y331075D02*
Y364961D01*
Y331075D02*
X215438Y323118D01*
X207480Y376030D02*
X213795Y382345D01*
X206201Y403237D02*
Y417520D01*
Y403237D02*
X213795Y395643D01*
Y382345D02*
Y395643D01*
X207480Y364961D02*
Y376030D01*
X195340Y417520D02*
X206201D01*
X192863Y419996D02*
X195340Y417520D01*
X173913Y411379D02*
X182530Y419996D01*
X173913Y398172D02*
Y411379D01*
X163143Y387402D02*
X173913Y398172D01*
X182530Y419996D02*
X192863D01*
X147323Y387402D02*
X163143D01*
X140436Y380957D02*
X146881Y387402D01*
X147323D01*
X140436Y359646D02*
X148638Y351444D01*
X140436Y359646D02*
Y380957D01*
X148638Y332004D02*
Y351444D01*
X142717Y326083D02*
X148638Y332004D01*
X120531Y326024D02*
X142657D01*
X142717Y326083D01*
X120472Y325965D02*
X120531Y326024D01*
X120346Y298988D02*
X120409Y299051D01*
Y325902D01*
X120472Y325965D01*
X307819Y355684D02*
Y365507D01*
X297188Y371021D02*
X302306D01*
X307819Y365507D01*
X296555Y371654D02*
X297188Y371021D01*
X292799Y356138D02*
X293327Y355610D01*
X286713Y358819D02*
X289394Y356138D01*
X289019Y371035D02*
X295937D01*
X286713Y358819D02*
Y368729D01*
X289394Y356138D02*
X292799D01*
X286713Y368729D02*
X289019Y371035D01*
X293573Y344636D02*
Y355364D01*
X295937Y371035D02*
X296555Y371654D01*
X307819Y355684D02*
X308405Y355098D01*
X293573Y344636D02*
X293819Y344390D01*
D36*
X287812Y259462D02*
D03*
X231791Y212500D02*
D03*
X288287Y294587D02*
D03*
D37*
X209835Y213433D02*
D03*
X197343Y223524D02*
D03*
D38*
X209835Y223433D02*
D03*
X197343Y213524D02*
D03*
X187697Y414075D02*
D03*
D39*
X206201Y417520D02*
D03*
X139847Y257946D02*
D03*
D40*
X218012Y417520D02*
D03*
X242717Y302854D02*
D03*
X128035Y257946D02*
D03*
X296555Y383465D02*
D03*
X142717Y337894D02*
D03*
D41*
X187323Y387402D02*
D03*
X147323D02*
D03*
X262717Y376575D02*
D03*
X222716D02*
D03*
X293819Y344390D02*
D03*
X253819D02*
D03*
X293819Y333957D02*
D03*
X253819D02*
D03*
X262723Y366292D02*
D03*
X222723D02*
D03*
X271083Y281201D02*
D03*
X231083D02*
D03*
X271181Y258858D02*
D03*
X231181D02*
D03*
X230984Y269882D02*
D03*
X270984D02*
D03*
X231378Y248031D02*
D03*
X271378D02*
D03*
X147405Y376614D02*
D03*
X187405D02*
D03*
X287874Y313484D02*
D03*
X327874D02*
D03*
D42*
X293327Y355610D02*
D03*
X273327D02*
D03*
X120472Y345965D02*
D03*
Y325965D02*
D03*
X207480Y364961D02*
D03*
Y384961D02*
D03*
X119118Y282765D02*
D03*
X139119D02*
D03*
X242323Y387402D02*
D03*
X262323D02*
D03*
X229921Y352854D02*
D03*
Y332854D02*
D03*
X268406Y314665D02*
D03*
Y294665D02*
D03*
X167598Y400787D02*
D03*
X187598D02*
D03*
X167398Y365198D02*
D03*
X187398D02*
D03*
X172244Y243484D02*
D03*
Y263484D02*
D03*
X187500Y243406D02*
D03*
Y263405D02*
D03*
X172441Y283248D02*
D03*
Y303248D02*
D03*
D43*
X140374Y222342D02*
D03*
X246358Y424823D02*
D03*
D44*
X120374Y222342D02*
D03*
D45*
X246358Y404823D02*
D03*
D46*
X242717Y314665D02*
D03*
X296555Y371654D02*
D03*
X142717Y326083D02*
D03*
D47*
X140347Y298988D02*
D03*
D48*
X130347D02*
D03*
X120346D02*
D03*
D49*
X308405Y355098D02*
D03*
X318406D02*
D03*
X328405D02*
D03*
X338405D02*
D03*
X318406Y325098D02*
D03*
X328405D02*
D03*
X338405D02*
D03*
D50*
X308405D02*
D03*
D51*
X186938Y293118D02*
D03*
Y303118D02*
D03*
Y313118D02*
D03*
Y323118D02*
D03*
Y333118D02*
D03*
Y343118D02*
D03*
Y353118D02*
D03*
X216938Y303118D02*
D03*
Y313118D02*
D03*
Y323118D02*
D03*
Y333118D02*
D03*
Y343118D02*
D03*
Y353118D02*
D03*
D52*
Y293118D02*
D03*
D53*
X158268Y263268D02*
D03*
Y303268D02*
D03*
D54*
X242945Y331858D02*
D03*
X196319Y298681D02*
D03*
X205077Y315313D02*
D03*
X196850Y330709D02*
D03*
X299723Y251458D02*
D03*
X306478Y268325D02*
D03*
X283465Y251969D02*
D03*
X291338Y267717D02*
D03*
X316862Y251969D02*
D03*
Y283465D02*
D03*
X307087Y299213D02*
D03*
X299213Y283465D02*
D03*
X211114Y234736D02*
D03*
X236220Y220472D02*
D03*
X330709Y409449D02*
D03*
X338583Y393701D02*
D03*
X330709Y377953D02*
D03*
X338583Y362205D02*
D03*
X330709Y346457D02*
D03*
X338583Y299213D02*
D03*
X330709Y283465D02*
D03*
X338583Y267717D02*
D03*
X330709Y251969D02*
D03*
X338583Y236220D02*
D03*
X330709Y220472D02*
D03*
X338583Y204724D02*
D03*
X322835Y425197D02*
D03*
X314961Y409449D02*
D03*
X322835Y393701D02*
D03*
X314961Y377953D02*
D03*
X322835Y362205D02*
D03*
X314961Y346457D02*
D03*
X322835Y299213D02*
D03*
Y267717D02*
D03*
Y236220D02*
D03*
X314961Y220472D02*
D03*
X322835Y204724D02*
D03*
X314961Y188976D02*
D03*
X307087Y425197D02*
D03*
X299213Y409449D02*
D03*
X307087Y393701D02*
D03*
X299213Y377953D02*
D03*
Y314961D02*
D03*
X307087Y236220D02*
D03*
X299213Y220472D02*
D03*
X307087Y204724D02*
D03*
X299213Y188976D02*
D03*
X291338Y425197D02*
D03*
X283465Y409449D02*
D03*
X291338Y393701D02*
D03*
X283465Y377953D02*
D03*
X291338Y362205D02*
D03*
X283465Y346457D02*
D03*
X291338Y236220D02*
D03*
X283465Y220472D02*
D03*
X291338Y204724D02*
D03*
X283465Y188976D02*
D03*
X275590Y425197D02*
D03*
X267717Y409449D02*
D03*
X275590Y393701D02*
D03*
Y362205D02*
D03*
X267717Y346457D02*
D03*
X275590Y236220D02*
D03*
X267717Y220472D02*
D03*
X275590Y204724D02*
D03*
X267717Y188976D02*
D03*
X259842Y425197D02*
D03*
Y393701D02*
D03*
X251969Y377953D02*
D03*
X259842Y299213D02*
D03*
X251969Y283465D02*
D03*
X259842Y267717D02*
D03*
X251969Y251969D02*
D03*
X259842Y236220D02*
D03*
X251969Y220472D02*
D03*
X259842Y204724D02*
D03*
X251969Y188976D02*
D03*
X236220Y409449D02*
D03*
X244094Y393701D02*
D03*
X236220Y377953D02*
D03*
X244094Y267717D02*
D03*
Y236220D02*
D03*
Y204724D02*
D03*
X236220Y188976D02*
D03*
X228346Y425197D02*
D03*
X220472Y409449D02*
D03*
X228346Y393701D02*
D03*
Y362205D02*
D03*
Y236220D02*
D03*
X220472Y220472D02*
D03*
X228346Y204724D02*
D03*
X220472Y188976D02*
D03*
X212598Y425197D02*
D03*
X204724Y283465D02*
D03*
X212598Y267717D02*
D03*
Y204724D02*
D03*
X204724Y188976D02*
D03*
X196850Y425197D02*
D03*
Y393701D02*
D03*
Y362205D02*
D03*
X188976Y251969D02*
D03*
X196850Y236220D02*
D03*
Y204724D02*
D03*
X188976Y188976D02*
D03*
X181102Y425197D02*
D03*
Y393701D02*
D03*
X173228Y377953D02*
D03*
X181102Y362205D02*
D03*
X173228Y346457D02*
D03*
Y314961D02*
D03*
X181102Y267717D02*
D03*
X173228Y251969D02*
D03*
X181102Y236220D02*
D03*
Y204724D02*
D03*
X173228Y188976D02*
D03*
X165354Y425197D02*
D03*
X157480Y409449D02*
D03*
Y377953D02*
D03*
Y346457D02*
D03*
X165354Y330709D02*
D03*
X157480Y314961D02*
D03*
X165354Y299213D02*
D03*
Y267717D02*
D03*
Y236220D02*
D03*
X157480Y220472D02*
D03*
X165354Y204724D02*
D03*
X157480Y188976D02*
D03*
X149606Y425197D02*
D03*
X141732Y409449D02*
D03*
X149606Y393701D02*
D03*
Y362205D02*
D03*
X141732Y346457D02*
D03*
Y314961D02*
D03*
X149606Y299213D02*
D03*
Y204724D02*
D03*
X141732Y188976D02*
D03*
X133858Y425197D02*
D03*
X125984Y409449D02*
D03*
X133858Y393701D02*
D03*
X125984Y377953D02*
D03*
X133858Y362205D02*
D03*
X125984Y346457D02*
D03*
X133858Y330709D02*
D03*
X125984Y314961D02*
D03*
Y283465D02*
D03*
X133858Y267717D02*
D03*
X125984Y251969D02*
D03*
X133858Y236220D02*
D03*
Y204724D02*
D03*
X125984Y188976D02*
D03*
X118110Y425197D02*
D03*
X110236Y409449D02*
D03*
X118110Y393701D02*
D03*
X110236Y377953D02*
D03*
X118110Y362205D02*
D03*
X110236Y346457D02*
D03*
Y314961D02*
D03*
Y283465D02*
D03*
X118110Y267717D02*
D03*
X110236Y251969D02*
D03*
X118110Y236220D02*
D03*
X110236Y220472D02*
D03*
X118110Y204724D02*
D03*
M02*
