G04*
G04 #@! TF.GenerationSoftware,Altium Limited,Altium Designer,22.3.1 (43)*
G04*
G04 Layer_Color=8388736*
%FSLAX25Y25*%
%MOIN*%
G70*
G04*
G04 #@! TF.SameCoordinates,A2C1995B-5DD9-4A06-98F6-E9D1FCF5F817*
G04*
G04*
G04 #@! TF.FilePolarity,Negative*
G04*
G01*
G75*
%ADD15R,0.06706X0.08674*%
%ADD16O,0.08674X0.06706*%
%ADD17R,0.08674X0.06706*%
%ADD18R,0.06706X0.06706*%
%ADD19C,0.06706*%
%ADD20O,0.08800X0.06800*%
%ADD21C,0.07493*%
%ADD22C,0.13300*%
%ADD23R,0.13300X0.13300*%
%ADD24R,0.13300X0.13300*%
%ADD25R,0.06706X0.06706*%
%ADD26R,0.07493X0.12611*%
%ADD27O,0.07493X0.12611*%
%ADD28O,0.07800X0.10800*%
%ADD29R,0.07800X0.10800*%
%ADD30O,0.10800X0.07800*%
%ADD31R,0.10800X0.07800*%
%ADD32O,0.06800X0.08800*%
%ADD33C,0.03950*%
D15*
X287812Y259462D02*
D03*
X231791Y212500D02*
D03*
X288287Y294587D02*
D03*
D16*
X209835Y213433D02*
D03*
X197343Y223524D02*
D03*
D17*
X209835Y223433D02*
D03*
X197343Y213524D02*
D03*
X187697Y414075D02*
D03*
D18*
X206201Y417520D02*
D03*
X139847Y257946D02*
D03*
D19*
X218012Y417520D02*
D03*
X242717Y302854D02*
D03*
X128035Y257946D02*
D03*
X296555Y383465D02*
D03*
X142717Y337894D02*
D03*
D20*
X187323Y387402D02*
D03*
X147323D02*
D03*
X262717Y376575D02*
D03*
X222716D02*
D03*
X293819Y344390D02*
D03*
X253819D02*
D03*
X293819Y333957D02*
D03*
X253819D02*
D03*
X262723Y366292D02*
D03*
X222723D02*
D03*
X271083Y281201D02*
D03*
X231083D02*
D03*
X271181Y258858D02*
D03*
X231181D02*
D03*
X230984Y269882D02*
D03*
X270984D02*
D03*
X231378Y248031D02*
D03*
X271378D02*
D03*
X147405Y376614D02*
D03*
X187405D02*
D03*
X287874Y313484D02*
D03*
X327874D02*
D03*
D21*
X293327Y355610D02*
D03*
X273327D02*
D03*
X120472Y345965D02*
D03*
Y325965D02*
D03*
X207480Y364961D02*
D03*
Y384961D02*
D03*
X119118Y282765D02*
D03*
X139119D02*
D03*
X242323Y387402D02*
D03*
X262323D02*
D03*
X229921Y352854D02*
D03*
Y332854D02*
D03*
X268406Y314665D02*
D03*
Y294665D02*
D03*
X167598Y400787D02*
D03*
X187598D02*
D03*
X167398Y365198D02*
D03*
X187398D02*
D03*
X172244Y243484D02*
D03*
Y263484D02*
D03*
X187500Y243406D02*
D03*
Y263405D02*
D03*
X172441Y283248D02*
D03*
Y303248D02*
D03*
D22*
X140374Y222342D02*
D03*
X246358Y424823D02*
D03*
D23*
X120374Y222342D02*
D03*
D24*
X246358Y404823D02*
D03*
D25*
X242717Y314665D02*
D03*
X296555Y371654D02*
D03*
X142717Y326083D02*
D03*
D26*
X140347Y298988D02*
D03*
D27*
X130347D02*
D03*
X120346D02*
D03*
D28*
X308405Y355098D02*
D03*
X318406D02*
D03*
X328405D02*
D03*
X338405D02*
D03*
X318406Y325098D02*
D03*
X328405D02*
D03*
X338405D02*
D03*
D29*
X308405D02*
D03*
D30*
X186938Y293118D02*
D03*
Y303118D02*
D03*
Y313118D02*
D03*
Y323118D02*
D03*
Y333118D02*
D03*
Y343118D02*
D03*
Y353118D02*
D03*
X216938Y303118D02*
D03*
Y313118D02*
D03*
Y323118D02*
D03*
Y333118D02*
D03*
Y343118D02*
D03*
Y353118D02*
D03*
D31*
Y293118D02*
D03*
D32*
X158268Y263268D02*
D03*
Y303268D02*
D03*
D33*
X242945Y331858D02*
D03*
X196319Y298681D02*
D03*
X205077Y315313D02*
D03*
X196850Y330709D02*
D03*
X299723Y251458D02*
D03*
X306478Y268325D02*
D03*
X283465Y251969D02*
D03*
X291338Y267717D02*
D03*
X316862Y251969D02*
D03*
Y283465D02*
D03*
X307087Y299213D02*
D03*
X299213Y283465D02*
D03*
X211114Y234736D02*
D03*
X236220Y220472D02*
D03*
X330709Y409449D02*
D03*
X338583Y393701D02*
D03*
X330709Y377953D02*
D03*
X338583Y362205D02*
D03*
X330709Y346457D02*
D03*
X338583Y299213D02*
D03*
X330709Y283465D02*
D03*
X338583Y267717D02*
D03*
X330709Y251969D02*
D03*
X338583Y236220D02*
D03*
X330709Y220472D02*
D03*
X338583Y204724D02*
D03*
X322835Y425197D02*
D03*
X314961Y409449D02*
D03*
X322835Y393701D02*
D03*
X314961Y377953D02*
D03*
X322835Y362205D02*
D03*
X314961Y346457D02*
D03*
X322835Y299213D02*
D03*
Y267717D02*
D03*
Y236220D02*
D03*
X314961Y220472D02*
D03*
X322835Y204724D02*
D03*
X314961Y188976D02*
D03*
X307087Y425197D02*
D03*
X299213Y409449D02*
D03*
X307087Y393701D02*
D03*
X299213Y377953D02*
D03*
Y314961D02*
D03*
X307087Y236220D02*
D03*
X299213Y220472D02*
D03*
X307087Y204724D02*
D03*
X299213Y188976D02*
D03*
X291338Y425197D02*
D03*
X283465Y409449D02*
D03*
X291338Y393701D02*
D03*
X283465Y377953D02*
D03*
X291338Y362205D02*
D03*
X283465Y346457D02*
D03*
X291338Y236220D02*
D03*
X283465Y220472D02*
D03*
X291338Y204724D02*
D03*
X283465Y188976D02*
D03*
X275590Y425197D02*
D03*
X267717Y409449D02*
D03*
X275590Y393701D02*
D03*
Y362205D02*
D03*
X267717Y346457D02*
D03*
X275590Y236220D02*
D03*
X267717Y220472D02*
D03*
X275590Y204724D02*
D03*
X267717Y188976D02*
D03*
X259842Y425197D02*
D03*
Y393701D02*
D03*
X251969Y377953D02*
D03*
X259842Y299213D02*
D03*
X251969Y283465D02*
D03*
X259842Y267717D02*
D03*
X251969Y251969D02*
D03*
X259842Y236220D02*
D03*
X251969Y220472D02*
D03*
X259842Y204724D02*
D03*
X251969Y188976D02*
D03*
X236220Y409449D02*
D03*
X244094Y393701D02*
D03*
X236220Y377953D02*
D03*
X244094Y267717D02*
D03*
Y236220D02*
D03*
Y204724D02*
D03*
X236220Y188976D02*
D03*
X228346Y425197D02*
D03*
X220472Y409449D02*
D03*
X228346Y393701D02*
D03*
Y362205D02*
D03*
Y236220D02*
D03*
X220472Y220472D02*
D03*
X228346Y204724D02*
D03*
X220472Y188976D02*
D03*
X212598Y425197D02*
D03*
X204724Y283465D02*
D03*
X212598Y267717D02*
D03*
Y204724D02*
D03*
X204724Y188976D02*
D03*
X196850Y425197D02*
D03*
Y393701D02*
D03*
Y362205D02*
D03*
X188976Y251969D02*
D03*
X196850Y236220D02*
D03*
Y204724D02*
D03*
X188976Y188976D02*
D03*
X181102Y425197D02*
D03*
Y393701D02*
D03*
X173228Y377953D02*
D03*
X181102Y362205D02*
D03*
X173228Y346457D02*
D03*
Y314961D02*
D03*
X181102Y267717D02*
D03*
X173228Y251969D02*
D03*
X181102Y236220D02*
D03*
Y204724D02*
D03*
X173228Y188976D02*
D03*
X165354Y425197D02*
D03*
X157480Y409449D02*
D03*
Y377953D02*
D03*
Y346457D02*
D03*
X165354Y330709D02*
D03*
X157480Y314961D02*
D03*
X165354Y299213D02*
D03*
Y267717D02*
D03*
Y236220D02*
D03*
X157480Y220472D02*
D03*
X165354Y204724D02*
D03*
X157480Y188976D02*
D03*
X149606Y425197D02*
D03*
X141732Y409449D02*
D03*
X149606Y393701D02*
D03*
Y362205D02*
D03*
X141732Y346457D02*
D03*
Y314961D02*
D03*
X149606Y299213D02*
D03*
Y204724D02*
D03*
X141732Y188976D02*
D03*
X133858Y425197D02*
D03*
X125984Y409449D02*
D03*
X133858Y393701D02*
D03*
X125984Y377953D02*
D03*
X133858Y362205D02*
D03*
X125984Y346457D02*
D03*
X133858Y330709D02*
D03*
X125984Y314961D02*
D03*
Y283465D02*
D03*
X133858Y267717D02*
D03*
X125984Y251969D02*
D03*
X133858Y236220D02*
D03*
Y204724D02*
D03*
X125984Y188976D02*
D03*
X118110Y425197D02*
D03*
X110236Y409449D02*
D03*
X118110Y393701D02*
D03*
X110236Y377953D02*
D03*
X118110Y362205D02*
D03*
X110236Y346457D02*
D03*
Y314961D02*
D03*
Y283465D02*
D03*
X118110Y267717D02*
D03*
X110236Y251969D02*
D03*
X118110Y236220D02*
D03*
X110236Y220472D02*
D03*
X118110Y204724D02*
D03*
M02*
