G04*
G04 #@! TF.GenerationSoftware,Altium Limited,Altium Designer,22.3.1 (43)*
G04*
G04 Layer_Physical_Order=2*
G04 Layer_Color=16711680*
%FSLAX25Y25*%
%MOIN*%
G70*
G04*
G04 #@! TF.SameCoordinates,DB5E6BC5-2FB0-485C-ACA0-6941E67FB07D*
G04*
G04*
G04 #@! TF.FilePolarity,Positive*
G04*
G01*
G75*
%ADD36C,0.03937*%
%ADD37C,0.01980*%
%ADD38C,0.01968*%
%ADD39O,0.06000X0.08000*%
%ADD40R,0.05906X0.07874*%
%ADD41O,0.05906X0.07874*%
%ADD42R,0.07874X0.05906*%
%ADD43R,0.05906X0.05906*%
%ADD44C,0.05906*%
%ADD45C,0.06693*%
%ADD46O,0.08000X0.06000*%
%ADD47O,0.10000X0.07000*%
%ADD48R,0.10000X0.07000*%
%ADD49O,0.09843X0.06890*%
%ADD50O,0.07000X0.10000*%
%ADD51R,0.07000X0.10000*%
%ADD52R,0.05906X0.05906*%
%ADD53O,0.03543X0.05906*%
%ADD54R,0.17500X0.17500*%
%ADD55R,0.06693X0.11811*%
%ADD56O,0.06693X0.11811*%
%ADD57C,0.06000*%
%ADD58C,0.03150*%
%ADD59C,0.05000*%
G36*
X319980Y50591D02*
X295D01*
Y329626D01*
X319980D01*
Y50591D01*
D02*
G37*
%LPC*%
G36*
X310680Y326905D02*
X309320D01*
X307986Y326640D01*
X306729Y326120D01*
X305598Y325364D01*
X304636Y324402D01*
X303880Y323271D01*
X303360Y322014D01*
X303095Y320680D01*
Y319320D01*
X303360Y317986D01*
X303880Y316729D01*
X304636Y315598D01*
X305598Y314636D01*
X306729Y313880D01*
X307986Y313360D01*
X309320Y313094D01*
X310680D01*
X312014Y313360D01*
X313271Y313880D01*
X314402Y314636D01*
X315364Y315598D01*
X316120Y316729D01*
X316640Y317986D01*
X316905Y319320D01*
Y320680D01*
X316640Y322014D01*
X316120Y323271D01*
X315364Y324402D01*
X314402Y325364D01*
X313271Y326120D01*
X312014Y326640D01*
X310680Y326905D01*
D02*
G37*
G36*
X10680D02*
X9320D01*
X7986Y326640D01*
X6729Y326120D01*
X5598Y325364D01*
X4636Y324402D01*
X3880Y323271D01*
X3360Y322014D01*
X3094Y320680D01*
Y319320D01*
X3360Y317986D01*
X3880Y316729D01*
X4636Y315598D01*
X5598Y314636D01*
X6729Y313880D01*
X7986Y313360D01*
X9320Y313094D01*
X10680D01*
X12014Y313360D01*
X13271Y313880D01*
X14402Y314636D01*
X15364Y315598D01*
X16120Y316729D01*
X16640Y317986D01*
X16905Y319320D01*
Y320680D01*
X16640Y322014D01*
X16120Y323271D01*
X15364Y324402D01*
X14402Y325364D01*
X13271Y326120D01*
X12014Y326640D01*
X10680Y326905D01*
D02*
G37*
G36*
X53719Y316719D02*
X43984D01*
Y306984D01*
X53719D01*
Y316719D01*
D02*
G37*
G36*
X42016D02*
X32282D01*
Y306984D01*
X42016D01*
Y316719D01*
D02*
G37*
G36*
X153087Y313976D02*
X151087D01*
X150042Y313838D01*
X149069Y313435D01*
X148234Y312794D01*
X147593Y311958D01*
X147190Y310985D01*
X147052Y309941D01*
X147190Y308897D01*
X147593Y307924D01*
X148234Y307088D01*
X149069Y306447D01*
X150042Y306044D01*
X151087Y305906D01*
X153087D01*
X154131Y306044D01*
X155104Y306447D01*
X155939Y307088D01*
X156581Y307924D01*
X156984Y308897D01*
X157121Y309941D01*
X156984Y310985D01*
X156581Y311958D01*
X155939Y312794D01*
X155104Y313435D01*
X154131Y313838D01*
X153087Y313976D01*
D02*
G37*
G36*
X113087D02*
X111087D01*
X110042Y313838D01*
X109069Y313435D01*
X108234Y312794D01*
X107593Y311958D01*
X107190Y310985D01*
X107052Y309941D01*
X107190Y308897D01*
X107593Y307924D01*
X108234Y307088D01*
X109069Y306447D01*
X110042Y306044D01*
X111087Y305906D01*
X113087D01*
X114131Y306044D01*
X115104Y306447D01*
X115939Y307088D01*
X116581Y307924D01*
X116984Y308897D01*
X117121Y309941D01*
X116984Y310985D01*
X116581Y311958D01*
X115939Y312794D01*
X115104Y313435D01*
X114131Y313838D01*
X113087Y313976D01*
D02*
G37*
G36*
X92750Y315750D02*
X73250D01*
Y296250D01*
X92750D01*
Y315750D01*
D02*
G37*
G36*
X53719Y305016D02*
X43984D01*
Y295282D01*
X53719D01*
Y305016D01*
D02*
G37*
G36*
X42016D02*
X32282D01*
Y295282D01*
X42016D01*
Y305016D01*
D02*
G37*
G36*
X219198Y295085D02*
X211293D01*
Y285211D01*
X219198D01*
Y295085D01*
D02*
G37*
G36*
X113072Y293847D02*
X111928D01*
X110822Y293550D01*
X109831Y292978D01*
X109022Y292169D01*
X108450Y291178D01*
X108153Y290072D01*
Y288928D01*
X108450Y287822D01*
X109022Y286831D01*
X109831Y286022D01*
X110822Y285450D01*
X111928Y285154D01*
X113072D01*
X114178Y285450D01*
X115169Y286022D01*
X115978Y286831D01*
X116550Y287822D01*
X116847Y288928D01*
Y290072D01*
X116550Y291178D01*
X115978Y292169D01*
X115169Y292978D01*
X114178Y293550D01*
X113072Y293847D01*
D02*
G37*
G36*
X129429Y294523D02*
X128385Y294385D01*
X127412Y293982D01*
X126576Y293341D01*
X125935Y292506D01*
X125532Y291532D01*
X125395Y290488D01*
Y288488D01*
X125532Y287444D01*
X125935Y286471D01*
X126576Y285635D01*
X127412Y284994D01*
X128385Y284591D01*
X129429Y284454D01*
X130473Y284591D01*
X131446Y284994D01*
X132282Y285635D01*
X132923Y286471D01*
X133326Y287444D01*
X133464Y288488D01*
Y290488D01*
X133326Y291532D01*
X132923Y292506D01*
X132282Y293341D01*
X131446Y293982D01*
X130473Y294385D01*
X129429Y294523D01*
D02*
G37*
G36*
X158661Y274747D02*
Y270492D01*
X162916D01*
X162630Y271559D01*
X161930Y272771D01*
X160941Y273761D01*
X159729Y274461D01*
X158661Y274747D01*
D02*
G37*
G36*
X156693Y274747D02*
X155626Y274461D01*
X154414Y273761D01*
X153424Y272771D01*
X152724Y271559D01*
X152438Y270492D01*
X156693D01*
Y274747D01*
D02*
G37*
G36*
X53719Y279718D02*
X43984D01*
Y269984D01*
X53719D01*
Y279718D01*
D02*
G37*
G36*
X42016D02*
X32282D01*
Y269984D01*
X42016D01*
Y279718D01*
D02*
G37*
G36*
X181693Y273664D02*
Y269409D01*
X185947D01*
X185661Y270477D01*
X184962Y271689D01*
X183972Y272678D01*
X182760Y273378D01*
X181693Y273664D01*
D02*
G37*
G36*
X179724D02*
X178657Y273378D01*
X177445Y272678D01*
X176456Y271689D01*
X175756Y270477D01*
X175470Y269409D01*
X179724D01*
Y273664D01*
D02*
G37*
G36*
X113072Y273847D02*
X111928D01*
X110822Y273550D01*
X109831Y272978D01*
X109022Y272169D01*
X108450Y271178D01*
X108153Y270072D01*
Y268928D01*
X108450Y267822D01*
X109022Y266831D01*
X109831Y266022D01*
X110822Y265450D01*
X111928Y265154D01*
X113072D01*
X114178Y265450D01*
X115169Y266022D01*
X115978Y266831D01*
X116550Y267822D01*
X116847Y268928D01*
Y270072D01*
X116550Y271178D01*
X115978Y272169D01*
X115169Y272978D01*
X114178Y273550D01*
X113072Y273847D01*
D02*
G37*
G36*
X156693Y268524D02*
X152438D01*
X152724Y267456D01*
X153424Y266244D01*
X154414Y265255D01*
X155626Y264555D01*
X156693Y264269D01*
Y268524D01*
D02*
G37*
G36*
X162916D02*
X158661D01*
Y264269D01*
X159729Y264555D01*
X160941Y265255D01*
X161930Y266244D01*
X162630Y267456D01*
X162916Y268524D01*
D02*
G37*
G36*
X204921Y273558D02*
X203877Y273421D01*
X202904Y273018D01*
X202068Y272376D01*
X201427Y271541D01*
X201024Y270568D01*
X200887Y269524D01*
Y267524D01*
X201024Y266479D01*
X201427Y265506D01*
X202068Y264671D01*
X202904Y264030D01*
X203877Y263627D01*
X204921Y263489D01*
X205965Y263627D01*
X206939Y264030D01*
X207774Y264671D01*
X208415Y265506D01*
X208818Y266479D01*
X208956Y267524D01*
Y269524D01*
X208818Y270568D01*
X208415Y271541D01*
X207774Y272376D01*
X206939Y273018D01*
X205965Y273421D01*
X204921Y273558D01*
D02*
G37*
G36*
X193683Y272083D02*
X192538D01*
X191433Y271786D01*
X190442Y271214D01*
X189632Y270405D01*
X189060Y269414D01*
X188764Y268308D01*
Y267164D01*
X189060Y266059D01*
X189632Y265067D01*
X190442Y264258D01*
X191433Y263686D01*
X192538Y263390D01*
X193683D01*
X194788Y263686D01*
X195779Y264258D01*
X196588Y265067D01*
X197160Y266059D01*
X197457Y267164D01*
Y268308D01*
X197160Y269414D01*
X196588Y270405D01*
X195779Y271214D01*
X194788Y271786D01*
X193683Y272083D01*
D02*
G37*
G36*
X185947Y267441D02*
X181693D01*
Y263187D01*
X182760Y263473D01*
X183972Y264172D01*
X184962Y265162D01*
X185661Y266374D01*
X185947Y267441D01*
D02*
G37*
G36*
X179724D02*
X175470D01*
X175756Y266374D01*
X176456Y265162D01*
X177445Y264172D01*
X178657Y263473D01*
X179724Y263187D01*
Y267441D01*
D02*
G37*
G36*
X225590Y273164D02*
X224546Y273027D01*
X223573Y272624D01*
X222738Y271983D01*
X222096Y271147D01*
X221693Y270174D01*
X221556Y269130D01*
Y267130D01*
X221693Y266086D01*
X222096Y265113D01*
X222738Y264277D01*
X223573Y263636D01*
X224546Y263233D01*
X225590Y263095D01*
X226635Y263233D01*
X227608Y263636D01*
X228443Y264277D01*
X229084Y265113D01*
X229488Y266086D01*
X229625Y267130D01*
Y269130D01*
X229488Y270174D01*
X229084Y271147D01*
X228443Y271983D01*
X227608Y272624D01*
X226635Y273027D01*
X225590Y273164D01*
D02*
G37*
G36*
X215846D02*
X214802Y273027D01*
X213829Y272624D01*
X212994Y271983D01*
X212352Y271147D01*
X211949Y270174D01*
X211812Y269130D01*
Y267130D01*
X211949Y266086D01*
X212352Y265113D01*
X212994Y264277D01*
X213829Y263636D01*
X214802Y263233D01*
X215846Y263095D01*
X216891Y263233D01*
X217864Y263636D01*
X218699Y264277D01*
X219340Y265113D01*
X219743Y266086D01*
X219881Y267130D01*
Y269130D01*
X219743Y270174D01*
X219340Y271147D01*
X218699Y271983D01*
X217864Y272624D01*
X216891Y273027D01*
X215846Y273164D01*
D02*
G37*
G36*
X260039Y265067D02*
Y261221D01*
X263886D01*
X263641Y262136D01*
X262993Y263258D01*
X262077Y264174D01*
X260955Y264822D01*
X260039Y265067D01*
D02*
G37*
G36*
X258071Y265067D02*
X257156Y264822D01*
X256033Y264174D01*
X255117Y263258D01*
X254469Y262136D01*
X254224Y261221D01*
X258071D01*
Y265067D01*
D02*
G37*
G36*
X92750Y278750D02*
X73250D01*
Y259250D01*
X92750D01*
Y278750D01*
D02*
G37*
G36*
X53719Y268016D02*
X43984D01*
Y258281D01*
X53719D01*
Y268016D01*
D02*
G37*
G36*
X42016D02*
X32282D01*
Y258281D01*
X42016D01*
Y268016D01*
D02*
G37*
G36*
X263886Y259252D02*
X260039D01*
Y255405D01*
X260955Y255650D01*
X262077Y256298D01*
X262993Y257214D01*
X263641Y258337D01*
X263886Y259252D01*
D02*
G37*
G36*
X258071D02*
X254224D01*
X254469Y258337D01*
X255117Y257214D01*
X256033Y256298D01*
X257156Y255650D01*
X258071Y255405D01*
Y259252D01*
D02*
G37*
G36*
X130413Y255370D02*
Y250472D01*
X134441D01*
Y250488D01*
X134270Y251785D01*
X133769Y252994D01*
X132973Y254032D01*
X131935Y254828D01*
X130726Y255329D01*
X130413Y255370D01*
D02*
G37*
G36*
X128445D02*
X128132Y255329D01*
X126923Y254828D01*
X125886Y254032D01*
X125089Y252994D01*
X124589Y251785D01*
X124418Y250488D01*
Y250472D01*
X128445D01*
Y255370D01*
D02*
G37*
G36*
X146161Y254523D02*
X145117Y254385D01*
X144144Y253982D01*
X143309Y253341D01*
X142667Y252505D01*
X142264Y251532D01*
X142127Y250488D01*
Y248488D01*
X142264Y247444D01*
X142667Y246471D01*
X143309Y245635D01*
X144144Y244994D01*
X145117Y244591D01*
X146161Y244454D01*
X147206Y244591D01*
X148179Y244994D01*
X149014Y245635D01*
X149655Y246471D01*
X150058Y247444D01*
X150196Y248488D01*
Y250488D01*
X150058Y251532D01*
X149655Y252505D01*
X149014Y253341D01*
X148179Y253982D01*
X147206Y254385D01*
X146161Y254523D01*
D02*
G37*
G36*
X134441Y248504D02*
X130413D01*
Y243606D01*
X130726Y243648D01*
X131935Y244148D01*
X132973Y244945D01*
X133769Y245983D01*
X134270Y247191D01*
X134441Y248488D01*
Y248504D01*
D02*
G37*
G36*
X128445D02*
X124418D01*
Y248488D01*
X124589Y247191D01*
X125089Y245983D01*
X125886Y244945D01*
X126923Y244148D01*
X128132Y243648D01*
X128445Y243606D01*
Y248504D01*
D02*
G37*
G36*
X281496Y246491D02*
X280452Y246354D01*
X279479Y245951D01*
X278643Y245309D01*
X278002Y244474D01*
X277599Y243501D01*
X277462Y242457D01*
Y240457D01*
X277599Y239412D01*
X278002Y238439D01*
X278643Y237604D01*
X279479Y236963D01*
X280452Y236560D01*
X281496Y236422D01*
X282540Y236560D01*
X283513Y236963D01*
X284349Y237604D01*
X284990Y238439D01*
X285393Y239412D01*
X285531Y240457D01*
Y242457D01*
X285393Y243501D01*
X284990Y244474D01*
X284349Y245309D01*
X283513Y245951D01*
X282540Y246354D01*
X281496Y246491D01*
D02*
G37*
G36*
X311608Y246239D02*
X303703D01*
Y236365D01*
X311608D01*
Y246239D01*
D02*
G37*
G36*
X146161Y294523D02*
X145117Y294385D01*
X144144Y293982D01*
X143309Y293341D01*
X142667Y292506D01*
X142264Y291532D01*
X142127Y290488D01*
Y288488D01*
X142264Y287444D01*
X142667Y286471D01*
X143309Y285635D01*
X144138Y284999D01*
Y268562D01*
X144292Y267788D01*
X144731Y267132D01*
X157546Y254316D01*
X157355Y253854D01*
X157105D01*
X156000Y253558D01*
X155008Y252986D01*
X154199Y252177D01*
X153627Y251185D01*
X153331Y250080D01*
Y248936D01*
X153627Y247830D01*
X154199Y246839D01*
X155008Y246030D01*
X156000Y245458D01*
X157105Y245161D01*
X158249D01*
X159355Y245458D01*
X160346Y246030D01*
X161155Y246839D01*
X161727Y247830D01*
X162024Y248936D01*
Y249186D01*
X162486Y249377D01*
X164944Y246918D01*
Y236871D01*
X165013Y236524D01*
X164560Y236242D01*
X164006Y236667D01*
X162911Y237120D01*
X161736Y237275D01*
X158736D01*
X157562Y237120D01*
X156467Y236667D01*
X155527Y235946D01*
X154806Y235006D01*
X154352Y233911D01*
X154197Y232736D01*
X154352Y231561D01*
X154806Y230467D01*
X155527Y229527D01*
X156467Y228805D01*
X157562Y228352D01*
X158736Y228197D01*
X161736D01*
X162911Y228352D01*
X164006Y228805D01*
X164946Y229527D01*
X165667Y230467D01*
X166120Y231561D01*
X166275Y232736D01*
X166120Y233911D01*
X165951Y234319D01*
X166375Y234602D01*
X179672Y221306D01*
X180328Y220867D01*
X181102Y220713D01*
X184704D01*
X184806Y220467D01*
X185527Y219527D01*
X186467Y218806D01*
X187562Y218352D01*
X188736Y218197D01*
X191736D01*
X192911Y218352D01*
X194006Y218806D01*
X194946Y219527D01*
X195667Y220467D01*
X196120Y221562D01*
X196275Y222736D01*
X196120Y223911D01*
X195667Y225006D01*
X194946Y225946D01*
X194006Y226667D01*
X193331Y226946D01*
X193343Y227483D01*
X194494Y227959D01*
X195636Y228836D01*
X196513Y229978D01*
X197064Y231309D01*
X197122Y231752D01*
X190236D01*
X183350D01*
X183408Y231309D01*
X183959Y229978D01*
X184836Y228836D01*
X185978Y227959D01*
X187129Y227483D01*
X187142Y226946D01*
X186467Y226667D01*
X185527Y225946D01*
X184806Y225006D01*
X184704Y224759D01*
X181940D01*
X168991Y237709D01*
Y247756D01*
X168837Y248531D01*
X168398Y249187D01*
X148185Y269400D01*
Y284999D01*
X149014Y285635D01*
X149655Y286471D01*
X150058Y287444D01*
X150196Y288488D01*
Y290488D01*
X150058Y291532D01*
X149655Y292506D01*
X149014Y293341D01*
X148179Y293982D01*
X147206Y294385D01*
X146161Y294523D01*
D02*
G37*
G36*
X103131Y244209D02*
X101987D01*
X100881Y243912D01*
X99890Y243340D01*
X99081Y242531D01*
X98509Y241540D01*
X98213Y240434D01*
Y239290D01*
X98509Y238184D01*
X99081Y237193D01*
X99890Y236384D01*
X100881Y235812D01*
X101987Y235516D01*
X103131D01*
X104237Y235812D01*
X105228Y236384D01*
X106037Y237193D01*
X106609Y238184D01*
X106905Y239290D01*
Y240434D01*
X106609Y241540D01*
X106037Y242531D01*
X105228Y243340D01*
X104237Y243912D01*
X103131Y244209D01*
D02*
G37*
G36*
X72736Y244818D02*
X71692Y244681D01*
X70719Y244278D01*
X69883Y243636D01*
X69242Y242801D01*
X68839Y241828D01*
X68702Y240784D01*
Y238784D01*
X68839Y237739D01*
X69242Y236766D01*
X69883Y235931D01*
X70719Y235290D01*
X71692Y234886D01*
X72736Y234749D01*
X73780Y234886D01*
X74753Y235290D01*
X75589Y235931D01*
X76230Y236766D01*
X76633Y237739D01*
X76771Y238784D01*
Y240784D01*
X76633Y241828D01*
X76230Y242801D01*
X75589Y243636D01*
X74753Y244278D01*
X73780Y244681D01*
X72736Y244818D01*
D02*
G37*
G36*
X89862Y244720D02*
X88818Y244582D01*
X87845Y244179D01*
X87009Y243538D01*
X86368Y242702D01*
X85965Y241729D01*
X85828Y240685D01*
Y238685D01*
X85965Y237641D01*
X86368Y236668D01*
X87009Y235832D01*
X87845Y235191D01*
X88818Y234788D01*
X89862Y234650D01*
X90906Y234788D01*
X91879Y235191D01*
X92715Y235832D01*
X93356Y236668D01*
X93759Y237641D01*
X93897Y238685D01*
Y240685D01*
X93759Y241729D01*
X93356Y242702D01*
X92715Y243538D01*
X91879Y244179D01*
X90906Y244582D01*
X89862Y244720D01*
D02*
G37*
G36*
X52870Y244406D02*
X44965D01*
Y234531D01*
X52870D01*
Y244406D01*
D02*
G37*
G36*
X60433Y244424D02*
X59389Y244287D01*
X58416Y243884D01*
X57580Y243243D01*
X56939Y242407D01*
X56536Y241434D01*
X56399Y240390D01*
Y238390D01*
X56536Y237346D01*
X56939Y236372D01*
X57580Y235537D01*
X58416Y234896D01*
X59389Y234493D01*
X60433Y234355D01*
X61477Y234493D01*
X62450Y234896D01*
X63286Y235537D01*
X63927Y236372D01*
X64330Y237346D01*
X64468Y238390D01*
Y240390D01*
X64330Y241434D01*
X63927Y242407D01*
X63286Y243243D01*
X62450Y243884D01*
X61477Y244287D01*
X60433Y244424D01*
D02*
G37*
G36*
X191736Y238252D02*
X191220D01*
Y233720D01*
X197122D01*
X197064Y234164D01*
X196513Y235494D01*
X195636Y236636D01*
X194494Y237513D01*
X193164Y238064D01*
X191736Y238252D01*
D02*
G37*
G36*
X189252D02*
X188736D01*
X187309Y238064D01*
X185978Y237513D01*
X184836Y236636D01*
X183959Y235494D01*
X183408Y234164D01*
X183350Y233720D01*
X189252D01*
Y238252D01*
D02*
G37*
G36*
X238268Y238481D02*
X237824Y238422D01*
X236494Y237871D01*
X235352Y236995D01*
X234475Y235852D01*
X233924Y234522D01*
X233736Y233095D01*
Y232579D01*
X238268D01*
Y238481D01*
D02*
G37*
G36*
X146854Y235063D02*
X146339D01*
Y230532D01*
X152240D01*
X152182Y230975D01*
X151631Y232305D01*
X150754Y233447D01*
X149612Y234324D01*
X148282Y234875D01*
X146854Y235063D01*
D02*
G37*
G36*
X116854D02*
X116339D01*
Y230532D01*
X122240D01*
X122182Y230975D01*
X121631Y232305D01*
X120755Y233447D01*
X119612Y234324D01*
X118282Y234875D01*
X116854Y235063D01*
D02*
G37*
G36*
X144370D02*
X143854D01*
X142427Y234875D01*
X141096Y234324D01*
X139954Y233447D01*
X139078Y232305D01*
X138527Y230975D01*
X138468Y230532D01*
X144370D01*
Y235063D01*
D02*
G37*
G36*
X114370D02*
X113854D01*
X112427Y234875D01*
X111097Y234324D01*
X109954Y233447D01*
X109078Y232305D01*
X108527Y230975D01*
X108468Y230532D01*
X114370D01*
Y235063D01*
D02*
G37*
G36*
X273752Y237595D02*
X264752D01*
Y225594D01*
X273752D01*
Y237595D01*
D02*
G37*
G36*
X220414Y256360D02*
X182096D01*
X181320Y256205D01*
X180661Y255766D01*
X179501Y254606D01*
X179061Y253947D01*
X178907Y253171D01*
Y252404D01*
X178040Y251903D01*
X177231Y251094D01*
X176658Y250103D01*
X176362Y248997D01*
Y247853D01*
X176658Y246747D01*
X177231Y245756D01*
X178040Y244947D01*
X179031Y244375D01*
X180136Y244079D01*
X181281D01*
X182386Y244375D01*
X183378Y244947D01*
X184187Y245756D01*
X184759Y246747D01*
X185055Y247853D01*
Y248997D01*
X184759Y250103D01*
X184187Y251094D01*
X183479Y251802D01*
X183601Y252225D01*
X183654Y252302D01*
X191423D01*
X191489Y251802D01*
X191433Y251786D01*
X190442Y251214D01*
X189632Y250405D01*
X189060Y249414D01*
X188764Y248308D01*
Y247164D01*
X189060Y246059D01*
X189632Y245067D01*
X190442Y244258D01*
X191433Y243686D01*
X192538Y243390D01*
X193683D01*
X194788Y243686D01*
X195779Y244258D01*
X196588Y245067D01*
X197160Y246059D01*
X197457Y247164D01*
Y248308D01*
X197160Y249414D01*
X196588Y250405D01*
X195779Y251214D01*
X194788Y251786D01*
X194732Y251802D01*
X194797Y252302D01*
X219574D01*
X224885Y246990D01*
X225543Y246550D01*
X226320Y246396D01*
X255102D01*
Y244472D01*
X257124D01*
Y237084D01*
X256982Y237025D01*
X256043Y236304D01*
X255321Y235364D01*
X254868Y234269D01*
X254713Y233095D01*
Y230095D01*
X254868Y228920D01*
X255321Y227825D01*
X256043Y226885D01*
X256982Y226164D01*
X258077Y225710D01*
X259252Y225556D01*
X260427Y225710D01*
X261521Y226164D01*
X262461Y226885D01*
X263183Y227825D01*
X263636Y228920D01*
X263791Y230095D01*
Y233095D01*
X263636Y234269D01*
X263183Y235364D01*
X262461Y236304D01*
X261521Y237025D01*
X261183Y237165D01*
Y244472D01*
X263008D01*
Y252378D01*
X255102D01*
Y250454D01*
X227160D01*
X221849Y255766D01*
X221191Y256205D01*
X220414Y256360D01*
D02*
G37*
G36*
X240236Y238481D02*
Y231594D01*
Y224708D01*
X240680Y224767D01*
X242010Y225318D01*
X243152Y226194D01*
X244029Y227337D01*
X244506Y228488D01*
X245042Y228500D01*
X245321Y227825D01*
X246042Y226885D01*
X246983Y226164D01*
X248077Y225710D01*
X249252Y225556D01*
X250427Y225710D01*
X251521Y226164D01*
X252461Y226885D01*
X253183Y227825D01*
X253636Y228920D01*
X253791Y230095D01*
Y233095D01*
X253636Y234269D01*
X253183Y235364D01*
X252461Y236304D01*
X251521Y237025D01*
X250427Y237479D01*
X249252Y237633D01*
X248077Y237479D01*
X246983Y237025D01*
X246042Y236304D01*
X245321Y235364D01*
X245042Y234689D01*
X244506Y234701D01*
X244029Y235852D01*
X243152Y236995D01*
X242010Y237871D01*
X240680Y238422D01*
X240236Y238481D01*
D02*
G37*
G36*
X238268Y230610D02*
X233736D01*
Y230095D01*
X233924Y228667D01*
X234475Y227337D01*
X235352Y226194D01*
X236494Y225318D01*
X237824Y224767D01*
X238268Y224708D01*
Y230610D01*
D02*
G37*
G36*
X204921Y233558D02*
X203877Y233421D01*
X202904Y233018D01*
X202068Y232377D01*
X201427Y231541D01*
X201024Y230568D01*
X200887Y229524D01*
Y227524D01*
X201024Y226479D01*
X201427Y225506D01*
X202068Y224671D01*
X202904Y224030D01*
X203877Y223627D01*
X204921Y223489D01*
X205965Y223627D01*
X206939Y224030D01*
X207774Y224671D01*
X208415Y225506D01*
X208818Y226479D01*
X208956Y227524D01*
Y229524D01*
X208818Y230568D01*
X208415Y231541D01*
X207774Y232377D01*
X206939Y233018D01*
X205965Y233421D01*
X204921Y233558D01*
D02*
G37*
G36*
X225590Y233164D02*
X224546Y233027D01*
X223573Y232624D01*
X222738Y231983D01*
X222096Y231147D01*
X221693Y230174D01*
X221556Y229130D01*
Y227130D01*
X221693Y226086D01*
X222096Y225113D01*
X222738Y224277D01*
X223573Y223636D01*
X224546Y223233D01*
X225590Y223095D01*
X226635Y223233D01*
X227608Y223636D01*
X228443Y224277D01*
X229084Y225113D01*
X229488Y226086D01*
X229625Y227130D01*
Y229130D01*
X229488Y230174D01*
X229084Y231147D01*
X228443Y231983D01*
X227608Y232624D01*
X226635Y233027D01*
X225590Y233164D01*
D02*
G37*
G36*
X215846D02*
X214802Y233027D01*
X213829Y232624D01*
X212994Y231983D01*
X212352Y231147D01*
X211949Y230174D01*
X211812Y229130D01*
Y227130D01*
X211949Y226086D01*
X212352Y225113D01*
X212994Y224277D01*
X213829Y223636D01*
X214802Y223233D01*
X215846Y223095D01*
X216891Y223233D01*
X217864Y223636D01*
X218699Y224277D01*
X219340Y225113D01*
X219743Y226086D01*
X219881Y227130D01*
Y229130D01*
X219743Y230174D01*
X219340Y231147D01*
X218699Y231983D01*
X217864Y232624D01*
X216891Y233027D01*
X215846Y233164D01*
D02*
G37*
G36*
X103543Y225101D02*
Y220847D01*
X107798D01*
X107512Y221914D01*
X106812Y223126D01*
X105823Y224115D01*
X104611Y224815D01*
X103543Y225101D01*
D02*
G37*
G36*
X101575D02*
X100508Y224815D01*
X99296Y224115D01*
X98306Y223126D01*
X97606Y221914D01*
X97320Y220847D01*
X101575D01*
Y225101D01*
D02*
G37*
G36*
X152240Y228563D02*
X145354D01*
X138468D01*
X138527Y228120D01*
X139078Y226789D01*
X139954Y225647D01*
X141016Y224832D01*
X141061Y224547D01*
X141016Y224262D01*
X139954Y223447D01*
X139078Y222305D01*
X138527Y220975D01*
X138468Y220532D01*
X145354D01*
X152240D01*
X152182Y220975D01*
X151631Y222305D01*
X150754Y223447D01*
X149692Y224262D01*
X149647Y224547D01*
X149692Y224832D01*
X150754Y225647D01*
X151631Y226789D01*
X152182Y228120D01*
X152240Y228563D01*
D02*
G37*
G36*
X161736Y227275D02*
X158736D01*
X157562Y227120D01*
X156467Y226667D01*
X155527Y225946D01*
X154806Y225006D01*
X154352Y223911D01*
X154197Y222736D01*
X154352Y221562D01*
X154806Y220467D01*
X155527Y219527D01*
X156467Y218806D01*
X157562Y218352D01*
X158736Y218197D01*
X161736D01*
X162911Y218352D01*
X164006Y218806D01*
X164946Y219527D01*
X165667Y220467D01*
X166120Y221562D01*
X166275Y222736D01*
X166120Y223911D01*
X165667Y225006D01*
X164946Y225946D01*
X164006Y226667D01*
X162911Y227120D01*
X161736Y227275D01*
D02*
G37*
G36*
X122240Y228563D02*
X115354D01*
X108468D01*
X108527Y228120D01*
X109078Y226789D01*
X109954Y225647D01*
X111097Y224770D01*
X112248Y224294D01*
X112260Y223758D01*
X111585Y223478D01*
X110645Y222757D01*
X109924Y221817D01*
X109470Y220722D01*
X109316Y219547D01*
X109470Y218373D01*
X109924Y217278D01*
X110645Y216338D01*
X111585Y215616D01*
X112680Y215163D01*
X113854Y215008D01*
X116854D01*
X118029Y215163D01*
X119124Y215616D01*
X120064Y216338D01*
X120785Y217278D01*
X121239Y218373D01*
X121393Y219547D01*
X121239Y220722D01*
X120785Y221817D01*
X120064Y222757D01*
X119124Y223478D01*
X118449Y223758D01*
X118461Y224294D01*
X119612Y224770D01*
X120755Y225647D01*
X121631Y226789D01*
X122182Y228120D01*
X122240Y228563D01*
D02*
G37*
G36*
X107798Y218878D02*
X103543D01*
Y214623D01*
X104611Y214910D01*
X105823Y215609D01*
X106812Y216599D01*
X107512Y217811D01*
X107798Y218878D01*
D02*
G37*
G36*
X101575D02*
X97320D01*
X97606Y217811D01*
X98306Y216599D01*
X99296Y215609D01*
X100508Y214910D01*
X101575Y214623D01*
Y218878D01*
D02*
G37*
G36*
X191736Y217275D02*
X188736D01*
X187562Y217120D01*
X186467Y216667D01*
X185527Y215946D01*
X184806Y215006D01*
X184352Y213911D01*
X184197Y212736D01*
X184352Y211561D01*
X184806Y210467D01*
X185527Y209527D01*
X186467Y208805D01*
X187562Y208352D01*
X188736Y208197D01*
X191736D01*
X192911Y208352D01*
X194006Y208805D01*
X194946Y209527D01*
X195667Y210467D01*
X196120Y211561D01*
X196275Y212736D01*
X196120Y213911D01*
X195667Y215006D01*
X194946Y215946D01*
X194006Y216667D01*
X192911Y217120D01*
X191736Y217275D01*
D02*
G37*
G36*
X161736D02*
X158736D01*
X157562Y217120D01*
X156467Y216667D01*
X155527Y215946D01*
X154806Y215006D01*
X154352Y213911D01*
X154197Y212736D01*
X154352Y211561D01*
X154806Y210467D01*
X155527Y209527D01*
X156467Y208805D01*
X157562Y208352D01*
X158736Y208197D01*
X161736D01*
X162911Y208352D01*
X164006Y208805D01*
X164946Y209527D01*
X165667Y210467D01*
X166120Y211561D01*
X166275Y212736D01*
X166120Y213911D01*
X165667Y215006D01*
X164946Y215946D01*
X164006Y216667D01*
X162911Y217120D01*
X161736Y217275D01*
D02*
G37*
G36*
X152240Y218563D02*
X145354D01*
X138468D01*
X138527Y218120D01*
X139078Y216789D01*
X139954Y215647D01*
X141096Y214771D01*
X142248Y214294D01*
X142260Y213757D01*
X141585Y213478D01*
X140645Y212757D01*
X139924Y211817D01*
X139470Y210722D01*
X139315Y209547D01*
X139470Y208372D01*
X139924Y207278D01*
X140645Y206338D01*
X141585Y205616D01*
X142680Y205163D01*
X143854Y205008D01*
X146854D01*
X148029Y205163D01*
X149124Y205616D01*
X150064Y206338D01*
X150785Y207278D01*
X151239Y208372D01*
X151393Y209547D01*
X151239Y210722D01*
X150785Y211817D01*
X150064Y212757D01*
X149124Y213478D01*
X148449Y213757D01*
X148461Y214294D01*
X149612Y214771D01*
X150754Y215647D01*
X151631Y216789D01*
X152182Y218120D01*
X152240Y218563D01*
D02*
G37*
G36*
X116854Y214086D02*
X113854D01*
X112680Y213931D01*
X111585Y213478D01*
X110645Y212757D01*
X109924Y211817D01*
X109470Y210722D01*
X109316Y209547D01*
X109470Y208372D01*
X109924Y207278D01*
X110645Y206338D01*
X111585Y205616D01*
X112680Y205163D01*
X113854Y205008D01*
X116854D01*
X118029Y205163D01*
X119124Y205616D01*
X120064Y206338D01*
X120785Y207278D01*
X121239Y208372D01*
X121393Y209547D01*
X121239Y210722D01*
X120785Y211817D01*
X120064Y212757D01*
X119124Y213478D01*
X118029Y213931D01*
X116854Y214086D01*
D02*
G37*
G36*
X31594Y204831D02*
Y200984D01*
X35441D01*
X35196Y201900D01*
X34548Y203022D01*
X33632Y203938D01*
X32510Y204586D01*
X31594Y204831D01*
D02*
G37*
G36*
X29626D02*
X28711Y204586D01*
X27588Y203938D01*
X26672Y203022D01*
X26024Y201900D01*
X25779Y200984D01*
X29626D01*
Y204831D01*
D02*
G37*
G36*
X73721Y205665D02*
Y200768D01*
X77748D01*
Y200783D01*
X77577Y202080D01*
X77076Y203289D01*
X76280Y204327D01*
X75242Y205123D01*
X74033Y205624D01*
X73721Y205665D01*
D02*
G37*
G36*
X71752D02*
X71439Y205624D01*
X70231Y205123D01*
X69193Y204327D01*
X68396Y203289D01*
X67896Y202080D01*
X67725Y200783D01*
Y200768D01*
X71752D01*
Y205665D01*
D02*
G37*
G36*
X90847Y205567D02*
Y200669D01*
X94874D01*
Y200685D01*
X94703Y201982D01*
X94202Y203191D01*
X93406Y204229D01*
X92368Y205025D01*
X91159Y205526D01*
X90847Y205567D01*
D02*
G37*
G36*
X88878D02*
X88565Y205526D01*
X87357Y205025D01*
X86319Y204229D01*
X85522Y203191D01*
X85022Y201982D01*
X84851Y200685D01*
Y200669D01*
X88878D01*
Y205567D01*
D02*
G37*
G36*
X196236Y207236D02*
X184236D01*
Y198236D01*
X196236D01*
Y207236D01*
D02*
G37*
G36*
X161736Y207275D02*
X158736D01*
X157562Y207120D01*
X156467Y206667D01*
X155527Y205946D01*
X154806Y205006D01*
X154352Y203911D01*
X154197Y202736D01*
X154352Y201561D01*
X154806Y200467D01*
X155527Y199527D01*
X156467Y198805D01*
X157562Y198352D01*
X158736Y198197D01*
X161736D01*
X162911Y198352D01*
X164006Y198805D01*
X164946Y199527D01*
X165667Y200467D01*
X166120Y201561D01*
X166275Y202736D01*
X166120Y203911D01*
X165667Y205006D01*
X164946Y205946D01*
X164006Y206667D01*
X162911Y207120D01*
X161736Y207275D01*
D02*
G37*
G36*
X281496Y206491D02*
X280452Y206354D01*
X279479Y205951D01*
X278643Y205310D01*
X278002Y204474D01*
X277599Y203501D01*
X277462Y202457D01*
Y200457D01*
X277599Y199413D01*
X278002Y198439D01*
X278643Y197604D01*
X279479Y196963D01*
X280452Y196560D01*
X281496Y196422D01*
X282540Y196560D01*
X283513Y196963D01*
X284349Y197604D01*
X284990Y198439D01*
X285393Y199413D01*
X285531Y200457D01*
Y202457D01*
X285393Y203501D01*
X284990Y204474D01*
X284349Y205310D01*
X283513Y205951D01*
X282540Y206354D01*
X281496Y206491D01*
D02*
G37*
G36*
X46374Y203953D02*
X38469D01*
Y196047D01*
X46374D01*
Y203953D01*
D02*
G37*
G36*
X269252Y207633D02*
X268077Y207479D01*
X266983Y207025D01*
X266042Y206304D01*
X265321Y205364D01*
X264868Y204269D01*
X264713Y203095D01*
Y200095D01*
X264868Y198920D01*
X265321Y197825D01*
X266042Y196885D01*
X266983Y196164D01*
X268077Y195710D01*
X269252Y195556D01*
X270427Y195710D01*
X271521Y196164D01*
X272461Y196885D01*
X273183Y197825D01*
X273636Y198920D01*
X273791Y200095D01*
Y203095D01*
X273636Y204269D01*
X273183Y205364D01*
X272461Y206304D01*
X271521Y207025D01*
X270427Y207479D01*
X269252Y207633D01*
D02*
G37*
G36*
X249252D02*
X248077Y207479D01*
X246983Y207025D01*
X246042Y206304D01*
X245321Y205364D01*
X244868Y204269D01*
X244713Y203095D01*
Y200095D01*
X244868Y198920D01*
X245321Y197825D01*
X246042Y196885D01*
X246983Y196164D01*
X248077Y195710D01*
X249252Y195556D01*
X250427Y195710D01*
X251521Y196164D01*
X252461Y196885D01*
X253183Y197825D01*
X253636Y198920D01*
X253791Y200095D01*
Y203095D01*
X253636Y204269D01*
X253183Y205364D01*
X252461Y206304D01*
X251521Y207025D01*
X250427Y207479D01*
X249252Y207633D01*
D02*
G37*
G36*
X239252D02*
X238077Y207479D01*
X236982Y207025D01*
X236042Y206304D01*
X235321Y205364D01*
X234868Y204269D01*
X234713Y203095D01*
Y200095D01*
X234868Y198920D01*
X235321Y197825D01*
X236042Y196885D01*
X236982Y196164D01*
X238077Y195710D01*
X239252Y195556D01*
X240427Y195710D01*
X241521Y196164D01*
X242461Y196885D01*
X243183Y197825D01*
X243636Y198920D01*
X243791Y200095D01*
Y203095D01*
X243636Y204269D01*
X243183Y205364D01*
X242461Y206304D01*
X241521Y207025D01*
X240427Y207479D01*
X239252Y207633D01*
D02*
G37*
G36*
X35441Y199016D02*
X31594D01*
Y195169D01*
X32510Y195414D01*
X33632Y196062D01*
X34548Y196978D01*
X35196Y198100D01*
X35441Y199016D01*
D02*
G37*
G36*
X29626D02*
X25779D01*
X26024Y198100D01*
X26672Y196978D01*
X27588Y196062D01*
X28711Y195414D01*
X29626Y195169D01*
Y199016D01*
D02*
G37*
G36*
X151354Y204047D02*
X139354D01*
Y195047D01*
X151354D01*
Y204047D01*
D02*
G37*
G36*
X116854Y204086D02*
X113854D01*
X112680Y203931D01*
X111585Y203478D01*
X110645Y202757D01*
X109924Y201817D01*
X109470Y200722D01*
X109316Y199547D01*
X109470Y198372D01*
X109924Y197278D01*
X110645Y196338D01*
X111585Y195616D01*
X112680Y195163D01*
X113854Y195008D01*
X116854D01*
X118029Y195163D01*
X119124Y195616D01*
X120064Y196338D01*
X120785Y197278D01*
X121239Y198372D01*
X121393Y199547D01*
X121239Y200722D01*
X120785Y201817D01*
X120064Y202757D01*
X119124Y203478D01*
X118029Y203931D01*
X116854Y204086D01*
D02*
G37*
G36*
X60433Y204424D02*
X59389Y204287D01*
X58416Y203884D01*
X57580Y203243D01*
X56939Y202407D01*
X56536Y201434D01*
X56399Y200390D01*
Y198390D01*
X56536Y197346D01*
X56939Y196372D01*
X57580Y195537D01*
X58416Y194896D01*
X59389Y194493D01*
X60433Y194355D01*
X61477Y194493D01*
X62450Y194896D01*
X63286Y195537D01*
X63927Y196372D01*
X64330Y197346D01*
X64468Y198390D01*
Y200390D01*
X64330Y201434D01*
X63927Y202407D01*
X63286Y203243D01*
X62450Y203884D01*
X61477Y204287D01*
X60433Y204424D01*
D02*
G37*
G36*
X77748Y198799D02*
X73721D01*
Y193902D01*
X74033Y193943D01*
X75242Y194444D01*
X76280Y195240D01*
X77076Y196278D01*
X77577Y197486D01*
X77748Y198784D01*
Y198799D01*
D02*
G37*
G36*
X71752D02*
X67725D01*
Y198784D01*
X67896Y197486D01*
X68396Y196278D01*
X69193Y195240D01*
X70231Y194444D01*
X71439Y193943D01*
X71752Y193902D01*
Y198799D01*
D02*
G37*
G36*
X94874Y198701D02*
X90847D01*
Y193803D01*
X91159Y193844D01*
X92368Y194345D01*
X93406Y195141D01*
X94202Y196179D01*
X94703Y197388D01*
X94874Y198685D01*
Y198701D01*
D02*
G37*
G36*
X88878D02*
X84851D01*
Y198685D01*
X85022Y197388D01*
X85522Y196179D01*
X86319Y195141D01*
X87357Y194345D01*
X88565Y193844D01*
X88878Y193803D01*
Y198701D01*
D02*
G37*
G36*
X288976Y194510D02*
Y190256D01*
X293231D01*
X292945Y191323D01*
X292245Y192535D01*
X291256Y193525D01*
X290044Y194224D01*
X288976Y194510D01*
D02*
G37*
G36*
X287008D02*
X285941Y194224D01*
X284729Y193525D01*
X283739Y192535D01*
X283039Y191323D01*
X282753Y190256D01*
X287008D01*
Y194510D01*
D02*
G37*
G36*
X104115Y197181D02*
X102971D01*
X101866Y196885D01*
X100874Y196313D01*
X100065Y195503D01*
X99493Y194512D01*
X99197Y193407D01*
Y192262D01*
X99493Y191157D01*
X100065Y190166D01*
X100874Y189357D01*
X101866Y188784D01*
X102971Y188488D01*
X104115D01*
X105221Y188784D01*
X106212Y189357D01*
X107021Y190166D01*
X107594Y191157D01*
X107890Y192262D01*
Y193407D01*
X107594Y194512D01*
X107021Y195503D01*
X106212Y196313D01*
X105221Y196885D01*
X104115Y197181D01*
D02*
G37*
G36*
X268564Y193618D02*
X267420D01*
X266315Y193322D01*
X265323Y192750D01*
X264514Y191940D01*
X263942Y190949D01*
X263646Y189844D01*
Y188699D01*
X263942Y187594D01*
X264514Y186603D01*
X265323Y185794D01*
X266315Y185221D01*
X267420Y184925D01*
X268564D01*
X269670Y185221D01*
X270661Y185794D01*
X271470Y186603D01*
X272042Y187594D01*
X272339Y188699D01*
Y189844D01*
X272042Y190949D01*
X271470Y191940D01*
X270661Y192750D01*
X269670Y193322D01*
X268564Y193618D01*
D02*
G37*
G36*
X311446Y194747D02*
X303541D01*
Y184873D01*
X311446D01*
Y194747D01*
D02*
G37*
G36*
X293231Y188287D02*
X288976D01*
Y184033D01*
X290044Y184319D01*
X291256Y185019D01*
X292245Y186008D01*
X292945Y187220D01*
X293231Y188287D01*
D02*
G37*
G36*
X287008D02*
X282753D01*
X283039Y187220D01*
X283739Y186008D01*
X284729Y185019D01*
X285941Y184319D01*
X287008Y184033D01*
Y188287D01*
D02*
G37*
G36*
X23327Y183290D02*
Y179035D01*
X27581D01*
X27295Y180103D01*
X26596Y181315D01*
X25606Y182304D01*
X24394Y183004D01*
X23327Y183290D01*
D02*
G37*
G36*
X21358D02*
X20291Y183004D01*
X19079Y182304D01*
X18090Y181315D01*
X17390Y180103D01*
X17104Y179035D01*
X21358D01*
Y183290D01*
D02*
G37*
G36*
X164091Y184465D02*
X156185D01*
Y176559D01*
X164091D01*
Y184465D01*
D02*
G37*
G36*
X133446Y184878D02*
X132302D01*
X131196Y184582D01*
X130205Y184010D01*
X129396Y183200D01*
X128824Y182209D01*
X128528Y181104D01*
Y179959D01*
X128824Y178854D01*
X129396Y177863D01*
X130205Y177053D01*
X131196Y176481D01*
X132302Y176185D01*
X133446D01*
X134552Y176481D01*
X135543Y177053D01*
X136352Y177863D01*
X136924Y178854D01*
X137221Y179959D01*
Y181104D01*
X136924Y182209D01*
X136352Y183200D01*
X135543Y184010D01*
X134552Y184582D01*
X133446Y184878D01*
D02*
G37*
G36*
X104528Y178073D02*
Y173819D01*
X108782D01*
X108496Y174886D01*
X107796Y176098D01*
X106807Y177088D01*
X105595Y177787D01*
X104528Y178073D01*
D02*
G37*
G36*
X102559Y178073D02*
X101492Y177787D01*
X100280Y177088D01*
X99290Y176098D01*
X98591Y174886D01*
X98305Y173819D01*
X102559D01*
Y178073D01*
D02*
G37*
G36*
X42915Y182398D02*
X41770D01*
X40665Y182101D01*
X39674Y181529D01*
X38864Y180720D01*
X38292Y179729D01*
X37996Y178623D01*
Y177479D01*
X38292Y176374D01*
X38864Y175382D01*
X39674Y174573D01*
X40665Y174001D01*
X41770Y173705D01*
X42915D01*
X44020Y174001D01*
X45011Y174573D01*
X45821Y175382D01*
X46393Y176374D01*
X46689Y177479D01*
Y178623D01*
X46393Y179729D01*
X45821Y180720D01*
X45011Y181529D01*
X44020Y182101D01*
X42915Y182398D01*
D02*
G37*
G36*
X268307Y183499D02*
X267263Y183362D01*
X266290Y182959D01*
X265454Y182317D01*
X264813Y181482D01*
X264410Y180509D01*
X264273Y179465D01*
Y177465D01*
X264410Y176420D01*
X264813Y175447D01*
X265454Y174612D01*
X266290Y173971D01*
X267263Y173567D01*
X268307Y173430D01*
X269351Y173567D01*
X270324Y173971D01*
X271160Y174612D01*
X271801Y175447D01*
X272204Y176420D01*
X272342Y177465D01*
Y179465D01*
X272204Y180509D01*
X271801Y181482D01*
X271160Y182317D01*
X270324Y182959D01*
X269351Y183362D01*
X268307Y183499D01*
D02*
G37*
G36*
X218406Y183401D02*
X217361Y183263D01*
X216388Y182860D01*
X215553Y182219D01*
X214912Y181383D01*
X214508Y180410D01*
X214371Y179366D01*
Y177366D01*
X214508Y176322D01*
X214912Y175349D01*
X215553Y174513D01*
X216388Y173872D01*
X217361Y173469D01*
X218406Y173332D01*
X219450Y173469D01*
X220423Y173872D01*
X221258Y174513D01*
X221900Y175349D01*
X222303Y176322D01*
X222440Y177366D01*
Y179366D01*
X222303Y180410D01*
X221900Y181383D01*
X221258Y182219D01*
X220423Y182860D01*
X219450Y183263D01*
X218406Y183401D01*
D02*
G37*
G36*
X235236Y183302D02*
X234192Y183165D01*
X233219Y182762D01*
X232383Y182121D01*
X231742Y181285D01*
X231339Y180312D01*
X231202Y179268D01*
Y177268D01*
X231339Y176224D01*
X231742Y175250D01*
X232383Y174415D01*
X233219Y173774D01*
X234192Y173371D01*
X235236Y173233D01*
X236280Y173371D01*
X237253Y173774D01*
X238089Y174415D01*
X238730Y175250D01*
X239133Y176224D01*
X239271Y177268D01*
Y179268D01*
X239133Y180312D01*
X238730Y181285D01*
X238089Y182121D01*
X237253Y182762D01*
X236280Y183165D01*
X235236Y183302D01*
D02*
G37*
G36*
X206004Y183204D02*
X204960Y183066D01*
X203987Y182663D01*
X203151Y182022D01*
X202510Y181187D01*
X202107Y180213D01*
X201969Y179169D01*
Y177169D01*
X202107Y176125D01*
X202510Y175152D01*
X203151Y174317D01*
X203987Y173675D01*
X204960Y173272D01*
X206004Y173135D01*
X207048Y173272D01*
X208021Y173675D01*
X208857Y174317D01*
X209498Y175152D01*
X209901Y176125D01*
X210038Y177169D01*
Y179169D01*
X209901Y180213D01*
X209498Y181187D01*
X208857Y182022D01*
X208021Y182663D01*
X207048Y183066D01*
X206004Y183204D01*
D02*
G37*
G36*
X27581Y177067D02*
X23327D01*
Y172812D01*
X24394Y173098D01*
X25606Y173798D01*
X26596Y174788D01*
X27295Y176000D01*
X27581Y177067D01*
D02*
G37*
G36*
X21358D02*
X17104D01*
X17390Y176000D01*
X18090Y174788D01*
X19079Y173798D01*
X20291Y173098D01*
X21358Y172812D01*
Y177067D01*
D02*
G37*
G36*
X161122Y173532D02*
Y169685D01*
X164969D01*
X164724Y170600D01*
X164076Y171722D01*
X163160Y172639D01*
X162037Y173287D01*
X161122Y173532D01*
D02*
G37*
G36*
X159153Y173532D02*
X158238Y173287D01*
X157116Y172639D01*
X156200Y171722D01*
X155552Y170600D01*
X155307Y169685D01*
X159153D01*
Y173532D01*
D02*
G37*
G36*
X108782Y171850D02*
X104528D01*
Y167596D01*
X105595Y167882D01*
X106807Y168582D01*
X107796Y169571D01*
X108496Y170783D01*
X108782Y171850D01*
D02*
G37*
G36*
X102559D02*
X98305D01*
X98591Y170783D01*
X99290Y169571D01*
X100280Y168582D01*
X101492Y167882D01*
X102559Y167596D01*
Y171850D01*
D02*
G37*
G36*
X159153Y167717D02*
X155307D01*
X155552Y166801D01*
X156200Y165679D01*
X157116Y164763D01*
X158238Y164115D01*
X159153Y163870D01*
Y167717D01*
D02*
G37*
G36*
X164969D02*
X161122D01*
Y163870D01*
X162037Y164115D01*
X163160Y164763D01*
X164076Y165679D01*
X164724Y166801D01*
X164969Y167717D01*
D02*
G37*
G36*
X133858Y165770D02*
Y161516D01*
X138113D01*
X137827Y162583D01*
X137127Y163795D01*
X136137Y164785D01*
X134925Y165484D01*
X133858Y165770D01*
D02*
G37*
G36*
X131890D02*
X130823Y165484D01*
X129611Y164785D01*
X128621Y163795D01*
X127921Y162583D01*
X127635Y161516D01*
X131890D01*
Y165770D01*
D02*
G37*
G36*
X298031Y172294D02*
X297000Y172158D01*
X296038Y171760D01*
X295212Y171126D01*
X294579Y170300D01*
X294180Y169339D01*
X294045Y168307D01*
Y166339D01*
X294180Y165307D01*
X294579Y164345D01*
X295212Y163519D01*
X296038Y162886D01*
X296299Y162778D01*
X296423Y162479D01*
X296899Y161859D01*
X297519Y161383D01*
X298241Y161084D01*
X299016Y160982D01*
X299791Y161084D01*
X300513Y161383D01*
X301133Y161859D01*
X301609Y162479D01*
X301908Y163201D01*
X302010Y163976D01*
Y164822D01*
X301914Y165548D01*
X302018Y166339D01*
Y168307D01*
X301883Y169339D01*
X301484Y170300D01*
X300851Y171126D01*
X300025Y171760D01*
X299063Y172158D01*
X298031Y172294D01*
D02*
G37*
G36*
X51181Y164483D02*
X50778Y164430D01*
X49485Y163895D01*
X48375Y163043D01*
X47523Y161932D01*
X46987Y160639D01*
X46929Y160198D01*
X46425Y160198D01*
X46400Y160387D01*
X45962Y161444D01*
X45265Y162352D01*
X44357Y163049D01*
X43300Y163487D01*
X42165Y163636D01*
X41031Y163487D01*
X39973Y163049D01*
X39065Y162352D01*
X38369Y161444D01*
X37931Y160387D01*
X37781Y159252D01*
Y154134D01*
X37931Y152999D01*
X38369Y151942D01*
X39065Y151034D01*
X39973Y150337D01*
X41031Y149899D01*
X42165Y149750D01*
X43300Y149899D01*
X44357Y150337D01*
X45265Y151034D01*
X45962Y151942D01*
X46400Y152999D01*
X46425Y153188D01*
X46929Y153188D01*
X46987Y152746D01*
X47523Y151453D01*
X48375Y150343D01*
X49485Y149491D01*
X50778Y148956D01*
X51181Y148903D01*
Y156693D01*
Y164483D01*
D02*
G37*
G36*
X138113Y159547D02*
X133858D01*
Y155293D01*
X134925Y155579D01*
X136137Y156279D01*
X137127Y157268D01*
X137827Y158480D01*
X138113Y159547D01*
D02*
G37*
G36*
X131890D02*
X127635D01*
X127921Y158480D01*
X128621Y157268D01*
X129611Y156279D01*
X130823Y155579D01*
X131890Y155293D01*
Y159547D01*
D02*
G37*
G36*
X53150Y164483D02*
Y156693D01*
Y148903D01*
X53553Y148956D01*
X54846Y149491D01*
X55956Y150343D01*
X56808Y151453D01*
X57344Y152746D01*
X57819Y152646D01*
Y149787D01*
X66512D01*
Y163598D01*
X57819D01*
Y160740D01*
X57344Y160640D01*
X56808Y161932D01*
X55956Y163043D01*
X54846Y163895D01*
X53553Y164430D01*
X53150Y164483D01*
D02*
G37*
G36*
X307891Y158095D02*
X307116Y157993D01*
X306394Y157694D01*
X305774Y157218D01*
X305298Y156598D01*
X304999Y155876D01*
X304897Y155101D01*
Y155053D01*
X304815Y154946D01*
X304417Y153985D01*
X304281Y152953D01*
Y150984D01*
X304417Y149952D01*
X304815Y148991D01*
X305449Y148165D01*
X306274Y147531D01*
X307236Y147133D01*
X308268Y146997D01*
X309300Y147133D01*
X310261Y147531D01*
X311087Y148165D01*
X311720Y148991D01*
X312119Y149952D01*
X312255Y150984D01*
Y152953D01*
X312119Y153985D01*
X311720Y154946D01*
X311087Y155772D01*
X310705Y156065D01*
X310484Y156598D01*
X310008Y157218D01*
X309388Y157694D01*
X308666Y157993D01*
X307891Y158095D01*
D02*
G37*
G36*
X43504Y147069D02*
Y142815D01*
X47758D01*
X47472Y143882D01*
X46773Y145094D01*
X45783Y146084D01*
X44571Y146783D01*
X43504Y147069D01*
D02*
G37*
G36*
X41535D02*
X40468Y146783D01*
X39256Y146084D01*
X38267Y145094D01*
X37567Y143882D01*
X37281Y142815D01*
X41535D01*
Y147069D01*
D02*
G37*
G36*
X219390Y144248D02*
Y139350D01*
X223417D01*
Y139366D01*
X223246Y140663D01*
X222745Y141872D01*
X221949Y142910D01*
X220911Y143706D01*
X219703Y144207D01*
X219390Y144248D01*
D02*
G37*
G36*
X217421D02*
X217108Y144207D01*
X215900Y143706D01*
X214862Y142910D01*
X214066Y141872D01*
X213565Y140663D01*
X213394Y139366D01*
Y139350D01*
X217421D01*
Y144248D01*
D02*
G37*
G36*
X63092Y146177D02*
X61948D01*
X60842Y145881D01*
X59851Y145309D01*
X59042Y144500D01*
X58469Y143508D01*
X58173Y142403D01*
Y141259D01*
X58469Y140153D01*
X59042Y139162D01*
X59851Y138353D01*
X60842Y137780D01*
X61948Y137484D01*
X63092D01*
X64197Y137780D01*
X65188Y138353D01*
X65998Y139162D01*
X66570Y140153D01*
X66866Y141259D01*
Y142403D01*
X66570Y143508D01*
X65998Y144500D01*
X65188Y145309D01*
X64197Y145881D01*
X63092Y146177D01*
D02*
G37*
G36*
X47758Y140847D02*
X43504D01*
Y136592D01*
X44571Y136878D01*
X45783Y137578D01*
X46773Y138567D01*
X47472Y139779D01*
X47758Y140847D01*
D02*
G37*
G36*
X41535D02*
X37281D01*
X37567Y139779D01*
X38267Y138567D01*
X39256Y137578D01*
X40468Y136878D01*
X41535Y136592D01*
Y140847D01*
D02*
G37*
G36*
X259252Y207633D02*
X258077Y207479D01*
X256982Y207025D01*
X256043Y206304D01*
X255321Y205364D01*
X254868Y204269D01*
X254713Y203095D01*
Y200095D01*
X254868Y198920D01*
X255321Y197825D01*
X256043Y196885D01*
X256982Y196164D01*
X257229Y196062D01*
Y194244D01*
X250243Y187257D01*
X249804Y186601D01*
X249650Y185827D01*
Y182856D01*
X248820Y182219D01*
X248179Y181383D01*
X247776Y180410D01*
X247639Y179366D01*
Y177366D01*
X247776Y176322D01*
X248179Y175349D01*
X248820Y174513D01*
X249650Y173877D01*
Y170965D01*
X249804Y170190D01*
X250243Y169534D01*
X266284Y153493D01*
Y142954D01*
X265454Y142317D01*
X264813Y141482D01*
X264410Y140509D01*
X264273Y139465D01*
Y137465D01*
X264410Y136420D01*
X264813Y135447D01*
X265454Y134612D01*
X266290Y133971D01*
X267263Y133568D01*
X268307Y133430D01*
X269351Y133568D01*
X270324Y133971D01*
X271160Y134612D01*
X271801Y135447D01*
X272204Y136420D01*
X272342Y137465D01*
Y139465D01*
X272204Y140509D01*
X271801Y141482D01*
X271160Y142317D01*
X270330Y142954D01*
Y154331D01*
X270176Y155105D01*
X269738Y155761D01*
X253696Y171803D01*
Y173877D01*
X254526Y174513D01*
X255167Y175349D01*
X255570Y176322D01*
X255708Y177366D01*
Y179366D01*
X255570Y180410D01*
X255167Y181383D01*
X254526Y182219D01*
X253696Y182856D01*
Y184989D01*
X260683Y191975D01*
X261121Y192631D01*
X261275Y193405D01*
Y196062D01*
X261521Y196164D01*
X262461Y196885D01*
X263183Y197825D01*
X263636Y198920D01*
X263791Y200095D01*
Y203095D01*
X263636Y204269D01*
X263183Y205364D01*
X262461Y206304D01*
X261521Y207025D01*
X260427Y207479D01*
X259252Y207633D01*
D02*
G37*
G36*
X251673Y143401D02*
X250629Y143263D01*
X249656Y142860D01*
X248820Y142219D01*
X248179Y141383D01*
X247776Y140410D01*
X247639Y139366D01*
Y137366D01*
X247776Y136322D01*
X248179Y135349D01*
X248820Y134513D01*
X249656Y133872D01*
X250629Y133469D01*
X251673Y133332D01*
X252717Y133469D01*
X253691Y133872D01*
X254526Y134513D01*
X255167Y135349D01*
X255570Y136322D01*
X255708Y137366D01*
Y139366D01*
X255570Y140410D01*
X255167Y141383D01*
X254526Y142219D01*
X253691Y142860D01*
X252717Y143263D01*
X251673Y143401D01*
D02*
G37*
G36*
X235236Y143302D02*
X234192Y143165D01*
X233219Y142762D01*
X232383Y142121D01*
X231742Y141285D01*
X231339Y140312D01*
X231202Y139268D01*
Y137268D01*
X231339Y136223D01*
X231742Y135250D01*
X232383Y134415D01*
X233219Y133774D01*
X234192Y133371D01*
X235236Y133233D01*
X236280Y133371D01*
X237253Y133774D01*
X238089Y134415D01*
X238730Y135250D01*
X239133Y136223D01*
X239271Y137268D01*
Y139268D01*
X239133Y140312D01*
X238730Y141285D01*
X238089Y142121D01*
X237253Y142762D01*
X236280Y143165D01*
X235236Y143302D01*
D02*
G37*
G36*
X206004Y143204D02*
X204960Y143066D01*
X203987Y142663D01*
X203151Y142022D01*
X202510Y141187D01*
X202107Y140214D01*
X201969Y139169D01*
Y137169D01*
X202107Y136125D01*
X202510Y135152D01*
X203151Y134317D01*
X203987Y133675D01*
X204960Y133272D01*
X206004Y133135D01*
X207048Y133272D01*
X208021Y133675D01*
X208857Y134317D01*
X209498Y135152D01*
X209901Y136125D01*
X210038Y137169D01*
Y139169D01*
X209901Y140214D01*
X209498Y141187D01*
X208857Y142022D01*
X208021Y142663D01*
X207048Y143066D01*
X206004Y143204D01*
D02*
G37*
G36*
X217421Y137382D02*
X213394D01*
Y137366D01*
X213565Y136069D01*
X214066Y134861D01*
X214862Y133823D01*
X215900Y133026D01*
X217108Y132526D01*
X217421Y132484D01*
Y137382D01*
D02*
G37*
G36*
X223417D02*
X219390D01*
Y132484D01*
X219703Y132526D01*
X220911Y133026D01*
X221949Y133823D01*
X222745Y134861D01*
X223246Y136069D01*
X223417Y137366D01*
Y137382D01*
D02*
G37*
G36*
X152155Y131675D02*
X142421D01*
Y121941D01*
X152155D01*
Y131675D01*
D02*
G37*
G36*
X140453D02*
X130719D01*
Y121941D01*
X140453D01*
Y131675D01*
D02*
G37*
G36*
X66256Y125409D02*
X58350D01*
Y117504D01*
X66256D01*
Y125409D01*
D02*
G37*
G36*
X311984Y172260D02*
X304079D01*
Y165556D01*
X304040Y165360D01*
Y163602D01*
X298796Y158358D01*
X298356Y157700D01*
X298201Y156923D01*
Y156905D01*
X294315D01*
Y151338D01*
X293797D01*
X293021Y151184D01*
X292362Y150744D01*
X263535Y121917D01*
X231595D01*
X230819Y121763D01*
X230160Y121323D01*
X226818Y117980D01*
X226639Y117956D01*
X225964Y117677D01*
X225385Y117233D01*
X225217Y117013D01*
X224587D01*
X224418Y117233D01*
X223839Y117677D01*
X223165Y117956D01*
X222441Y118052D01*
X221717Y117956D01*
X221043Y117677D01*
X220464Y117233D01*
X220020Y116654D01*
X219741Y115980D01*
X219645Y115256D01*
Y112894D01*
X219741Y112170D01*
X220020Y111496D01*
X220464Y110917D01*
X221043Y110473D01*
X221717Y110193D01*
X222441Y110098D01*
X223165Y110193D01*
X223839Y110473D01*
X224418Y110917D01*
X224587Y111137D01*
X225217D01*
X225385Y110917D01*
X225964Y110473D01*
X226639Y110193D01*
X227362Y110098D01*
X228086Y110193D01*
X228760Y110473D01*
X229339Y110917D01*
X229508Y111137D01*
X230138D01*
X230307Y110917D01*
X230886Y110473D01*
X231560Y110193D01*
X232283Y110098D01*
X233007Y110193D01*
X233681Y110473D01*
X234260Y110917D01*
X234704Y111496D01*
X234984Y112170D01*
X235079Y112894D01*
Y115256D01*
X234984Y115980D01*
X234704Y116654D01*
X234260Y117233D01*
X234096Y117359D01*
X234266Y117859D01*
X240596D01*
X240843Y117359D01*
X240502Y116915D01*
X240099Y115942D01*
X239962Y114898D01*
Y112898D01*
X240099Y111853D01*
X240502Y110880D01*
X241143Y110045D01*
X241979Y109404D01*
X242952Y109001D01*
X243996Y108863D01*
X245040Y109001D01*
X246013Y109404D01*
X246849Y110045D01*
X247490Y110880D01*
X247893Y111853D01*
X248031Y112898D01*
Y114898D01*
X247893Y115942D01*
X247490Y116915D01*
X247150Y117359D01*
X247396Y117859D01*
X256409D01*
X256655Y117359D01*
X256242Y116820D01*
X255839Y115847D01*
X255702Y114803D01*
Y112803D01*
X255839Y111759D01*
X256242Y110786D01*
X256883Y109950D01*
X257719Y109309D01*
X258692Y108906D01*
X259736Y108769D01*
X260780Y108906D01*
X261754Y109309D01*
X262589Y109950D01*
X263230Y110786D01*
X263633Y111759D01*
X263771Y112803D01*
Y114803D01*
X263633Y115847D01*
X263230Y116820D01*
X262817Y117359D01*
X263064Y117859D01*
X264376D01*
X265153Y118013D01*
X265811Y118453D01*
X294389Y147031D01*
X302221D01*
Y153735D01*
X302259Y153931D01*
X302259Y153931D01*
Y156083D01*
X307504Y161327D01*
X307944Y161985D01*
X308023Y162386D01*
X311984D01*
Y172260D01*
D02*
G37*
G36*
X43677Y126453D02*
X35772D01*
Y116579D01*
X43677D01*
Y126453D01*
D02*
G37*
G36*
X297342Y123853D02*
X296298Y123716D01*
X295325Y123313D01*
X294490Y122672D01*
X293848Y121836D01*
X293445Y120863D01*
X293308Y119819D01*
Y117819D01*
X293445Y116775D01*
X293848Y115802D01*
X294490Y114966D01*
X295325Y114325D01*
X296298Y113922D01*
X297342Y113784D01*
X298387Y113922D01*
X299360Y114325D01*
X300195Y114966D01*
X300836Y115802D01*
X301240Y116775D01*
X301377Y117819D01*
Y119819D01*
X301240Y120863D01*
X300836Y121836D01*
X300195Y122672D01*
X299360Y123313D01*
X298387Y123716D01*
X297342Y123853D01*
D02*
G37*
G36*
X111187Y130707D02*
X91687D01*
Y111207D01*
X111187D01*
Y130707D01*
D02*
G37*
G36*
X63287Y114477D02*
Y110630D01*
X67134D01*
X66889Y111545D01*
X66241Y112667D01*
X65325Y113584D01*
X64203Y114232D01*
X63287Y114477D01*
D02*
G37*
G36*
X61319D02*
X60404Y114232D01*
X59281Y113584D01*
X58365Y112667D01*
X57717Y111545D01*
X57472Y110630D01*
X61319D01*
Y114477D01*
D02*
G37*
G36*
X152155Y119972D02*
X142421D01*
Y110238D01*
X152155D01*
Y119972D01*
D02*
G37*
G36*
X140453D02*
X130719D01*
Y110238D01*
X140453D01*
Y119972D01*
D02*
G37*
G36*
X208295Y118838D02*
X207251Y118700D01*
X206278Y118297D01*
X205442Y117656D01*
X204801Y116820D01*
X204398Y115847D01*
X204261Y114803D01*
Y112803D01*
X204398Y111759D01*
X204801Y110786D01*
X205442Y109950D01*
X206278Y109309D01*
X207251Y108906D01*
X208295Y108769D01*
X209339Y108906D01*
X210313Y109309D01*
X211148Y109950D01*
X211789Y110786D01*
X212192Y111759D01*
X212330Y112803D01*
Y114803D01*
X212192Y115847D01*
X211789Y116820D01*
X211148Y117656D01*
X210313Y118297D01*
X209339Y118700D01*
X208295Y118838D01*
D02*
G37*
G36*
X188583Y118735D02*
X187539Y118598D01*
X186565Y118195D01*
X185730Y117554D01*
X185089Y116718D01*
X184686Y115745D01*
X184548Y114701D01*
Y112701D01*
X184686Y111657D01*
X185089Y110684D01*
X185730Y109848D01*
X186565Y109207D01*
X187539Y108804D01*
X188583Y108666D01*
X189627Y108804D01*
X190600Y109207D01*
X191436Y109848D01*
X192077Y110684D01*
X192480Y111657D01*
X192617Y112701D01*
Y114701D01*
X192480Y115745D01*
X192077Y116718D01*
X191436Y117554D01*
X190600Y118195D01*
X189627Y118598D01*
X188583Y118735D01*
D02*
G37*
G36*
X67134Y108661D02*
X63287D01*
Y104815D01*
X64203Y105060D01*
X65325Y105708D01*
X66241Y106624D01*
X66889Y107746D01*
X67134Y108661D01*
D02*
G37*
G36*
X61319D02*
X57472D01*
X57717Y107746D01*
X58365Y106624D01*
X59281Y105708D01*
X60404Y105060D01*
X61319Y104815D01*
Y108661D01*
D02*
G37*
G36*
X280512Y112948D02*
X277559D01*
X276399Y112795D01*
X275317Y112347D01*
X274389Y111635D01*
X273676Y110706D01*
X273229Y109625D01*
X273076Y108465D01*
X273229Y107304D01*
X273676Y106223D01*
X274389Y105294D01*
X275317Y104582D01*
X276399Y104134D01*
X277559Y103981D01*
X280512D01*
X281672Y104134D01*
X282753Y104582D01*
X283682Y105294D01*
X284394Y106223D01*
X284842Y107304D01*
X284995Y108465D01*
X284842Y109625D01*
X284394Y110706D01*
X283682Y111635D01*
X282753Y112347D01*
X281672Y112795D01*
X280512Y112948D01*
D02*
G37*
G36*
X313205Y110646D02*
X305299D01*
Y100772D01*
X313205D01*
Y110646D01*
D02*
G37*
G36*
X280512Y102908D02*
X277559D01*
X276399Y102756D01*
X275318Y102308D01*
X274389Y101595D01*
X273676Y100667D01*
X273229Y99585D01*
X273076Y98425D01*
X273229Y97265D01*
X273676Y96184D01*
X274389Y95255D01*
X275318Y94543D01*
X276399Y94095D01*
X277559Y93942D01*
X280512D01*
X281672Y94095D01*
X282753Y94543D01*
X283682Y95255D01*
X284394Y96184D01*
X284842Y97265D01*
X284995Y98425D01*
X284842Y99585D01*
X284394Y100667D01*
X283682Y101595D01*
X282753Y102308D01*
X281672Y102756D01*
X280512Y102908D01*
D02*
G37*
G36*
X152155Y94675D02*
X142421D01*
Y84941D01*
X152155D01*
Y94675D01*
D02*
G37*
G36*
X140453D02*
X130719D01*
Y84941D01*
X140453D01*
Y94675D01*
D02*
G37*
G36*
X280512Y92948D02*
X277559D01*
X276399Y92795D01*
X275317Y92347D01*
X274389Y91635D01*
X273676Y90706D01*
X273229Y89625D01*
X273076Y88465D01*
X273229Y87304D01*
X273676Y86223D01*
X274389Y85294D01*
X275317Y84582D01*
X276399Y84134D01*
X277559Y83981D01*
X280512D01*
X281672Y84134D01*
X282753Y84582D01*
X283682Y85294D01*
X284394Y86223D01*
X284842Y87304D01*
X284995Y88465D01*
X284842Y89625D01*
X284394Y90706D01*
X283682Y91635D01*
X282753Y92347D01*
X281672Y92795D01*
X280512Y92948D01*
D02*
G37*
G36*
X64075Y81693D02*
X60138D01*
Y76772D01*
X64075D01*
Y81693D01*
D02*
G37*
G36*
X58169D02*
X54232D01*
Y76772D01*
X58169D01*
Y81693D01*
D02*
G37*
G36*
X44587Y81102D02*
X40650D01*
Y76181D01*
X44587D01*
Y81102D01*
D02*
G37*
G36*
X38681D02*
X34744D01*
Y76181D01*
X38681D01*
Y81102D01*
D02*
G37*
G36*
X314258Y83631D02*
X304384D01*
Y75725D01*
X314258D01*
Y83631D01*
D02*
G37*
G36*
X244980Y79779D02*
Y74882D01*
X249007D01*
Y74898D01*
X248837Y76195D01*
X248336Y77403D01*
X247540Y78441D01*
X246502Y79238D01*
X245293Y79738D01*
X244980Y79779D01*
D02*
G37*
G36*
X243012D02*
X242699Y79738D01*
X241490Y79238D01*
X240453Y78441D01*
X239656Y77403D01*
X239156Y76195D01*
X238985Y74898D01*
Y74882D01*
X243012D01*
Y79779D01*
D02*
G37*
G36*
X209279Y79685D02*
Y74787D01*
X213307D01*
Y74803D01*
X213136Y76100D01*
X212635Y77309D01*
X211839Y78347D01*
X210801Y79143D01*
X209592Y79644D01*
X209279Y79685D01*
D02*
G37*
G36*
X207311D02*
X206998Y79644D01*
X205790Y79143D01*
X204752Y78347D01*
X203955Y77309D01*
X203455Y76100D01*
X203284Y74803D01*
Y74787D01*
X207311D01*
Y79685D01*
D02*
G37*
G36*
X260720Y79685D02*
Y74787D01*
X264748D01*
Y74803D01*
X264577Y76100D01*
X264076Y77309D01*
X263280Y78347D01*
X262242Y79143D01*
X261033Y79644D01*
X260720Y79685D01*
D02*
G37*
G36*
X258752D02*
X258439Y79644D01*
X257230Y79143D01*
X256193Y78347D01*
X255396Y77309D01*
X254896Y76100D01*
X254725Y74803D01*
Y74787D01*
X258752D01*
Y79685D01*
D02*
G37*
G36*
X189567Y79583D02*
Y74685D01*
X193594D01*
Y74701D01*
X193423Y75998D01*
X192923Y77206D01*
X192126Y78244D01*
X191088Y79041D01*
X189880Y79541D01*
X189567Y79583D01*
D02*
G37*
G36*
X187598D02*
X187286Y79541D01*
X186077Y79041D01*
X185039Y78244D01*
X184243Y77206D01*
X183742Y75998D01*
X183571Y74701D01*
Y74685D01*
X187598D01*
Y79583D01*
D02*
G37*
G36*
X111187Y93707D02*
X91687D01*
Y74207D01*
X111187D01*
Y93707D01*
D02*
G37*
G36*
X297342Y83853D02*
X296298Y83716D01*
X295325Y83313D01*
X294490Y82672D01*
X293848Y81836D01*
X293445Y80863D01*
X293308Y79819D01*
Y77819D01*
X293445Y76775D01*
X293848Y75802D01*
X294490Y74966D01*
X295325Y74325D01*
X296298Y73922D01*
X297342Y73784D01*
X298387Y73922D01*
X299360Y74325D01*
X300195Y74966D01*
X300836Y75802D01*
X301240Y76775D01*
X301377Y77819D01*
Y79819D01*
X301240Y80863D01*
X300836Y81836D01*
X300195Y82672D01*
X299360Y83313D01*
X298387Y83716D01*
X297342Y83853D01*
D02*
G37*
G36*
X152155Y82972D02*
X142421D01*
Y73238D01*
X152155D01*
Y82972D01*
D02*
G37*
G36*
X140453D02*
X130719D01*
Y73238D01*
X140453D01*
Y82972D01*
D02*
G37*
G36*
X64075Y74803D02*
X60138D01*
Y69882D01*
X64075D01*
Y74803D01*
D02*
G37*
G36*
X58169D02*
X54232D01*
Y69882D01*
X58169D01*
Y74803D01*
D02*
G37*
G36*
X44587Y74213D02*
X40650D01*
Y69291D01*
X44587D01*
Y74213D01*
D02*
G37*
G36*
X38681D02*
X34744D01*
Y69291D01*
X38681D01*
Y74213D01*
D02*
G37*
G36*
X249007Y72913D02*
X244980D01*
Y68016D01*
X245293Y68057D01*
X246502Y68558D01*
X247540Y69354D01*
X248336Y70392D01*
X248837Y71601D01*
X249007Y72898D01*
Y72913D01*
D02*
G37*
G36*
X243012D02*
X238985D01*
Y72898D01*
X239156Y71601D01*
X239656Y70392D01*
X240453Y69354D01*
X241490Y68558D01*
X242699Y68057D01*
X243012Y68016D01*
Y72913D01*
D02*
G37*
G36*
X213307Y72819D02*
X209279D01*
Y67921D01*
X209592Y67962D01*
X210801Y68463D01*
X211839Y69260D01*
X212635Y70297D01*
X213136Y71506D01*
X213307Y72803D01*
Y72819D01*
D02*
G37*
G36*
X207311D02*
X203284D01*
Y72803D01*
X203455Y71506D01*
X203955Y70297D01*
X204752Y69260D01*
X205790Y68463D01*
X206998Y67962D01*
X207311Y67921D01*
Y72819D01*
D02*
G37*
G36*
X258752Y72819D02*
X254725D01*
Y72803D01*
X254896Y71506D01*
X255396Y70297D01*
X256193Y69260D01*
X257230Y68463D01*
X258439Y67962D01*
X258752Y67921D01*
Y72819D01*
D02*
G37*
G36*
X264748D02*
X260720D01*
Y67921D01*
X261033Y67962D01*
X262242Y68463D01*
X263280Y69260D01*
X264076Y70297D01*
X264577Y71506D01*
X264748Y72803D01*
Y72819D01*
D02*
G37*
G36*
X193594Y72716D02*
X189567D01*
Y67819D01*
X189880Y67860D01*
X191088Y68361D01*
X192126Y69157D01*
X192923Y70195D01*
X193423Y71404D01*
X193594Y72701D01*
Y72716D01*
D02*
G37*
G36*
X187598D02*
X183571D01*
Y72701D01*
X183742Y71404D01*
X184243Y70195D01*
X185039Y69157D01*
X186077Y68361D01*
X187286Y67860D01*
X187598Y67819D01*
Y72716D01*
D02*
G37*
G36*
X310326Y66748D02*
X308965D01*
X307631Y66483D01*
X306375Y65962D01*
X305244Y65206D01*
X304282Y64245D01*
X303526Y63113D01*
X303006Y61857D01*
X302740Y60523D01*
Y59162D01*
X303006Y57828D01*
X303526Y56572D01*
X304282Y55440D01*
X305244Y54479D01*
X306375Y53723D01*
X307631Y53202D01*
X308965Y52937D01*
X310326D01*
X311660Y53202D01*
X312917Y53723D01*
X314048Y54479D01*
X315009Y55440D01*
X315765Y56572D01*
X316286Y57828D01*
X316551Y59162D01*
Y60523D01*
X316286Y61857D01*
X315765Y63113D01*
X315009Y64245D01*
X314048Y65206D01*
X312917Y65962D01*
X311660Y66483D01*
X310326Y66748D01*
D02*
G37*
G36*
X10326D02*
X8965D01*
X7631Y66483D01*
X6375Y65962D01*
X5244Y65206D01*
X4282Y64245D01*
X3526Y63113D01*
X3005Y61857D01*
X2740Y60523D01*
Y59162D01*
X3005Y57828D01*
X3526Y56572D01*
X4282Y55440D01*
X5244Y54479D01*
X6375Y53723D01*
X7631Y53202D01*
X8965Y52937D01*
X10326D01*
X11660Y53202D01*
X12917Y53723D01*
X14048Y54479D01*
X15010Y55440D01*
X15765Y56572D01*
X16286Y57828D01*
X16551Y59162D01*
Y60523D01*
X16286Y61857D01*
X15765Y63113D01*
X15010Y64245D01*
X14048Y65206D01*
X12917Y65962D01*
X11660Y66483D01*
X10326Y66748D01*
D02*
G37*
%LPD*%
D36*
X298031Y165806D02*
X299016Y164822D01*
X307891Y152345D02*
X308268Y151969D01*
X298031Y165806D02*
Y167323D01*
X299016Y163976D02*
Y164822D01*
X307891Y152345D02*
Y155101D01*
D37*
X293797Y149309D02*
X296305D01*
X298268Y151272D02*
Y151969D01*
X296305Y149309D02*
X298268Y151272D01*
X264376Y119888D02*
X293797Y149309D01*
X231595Y119888D02*
X264376D01*
X306069Y162762D02*
Y165360D01*
X298268Y151969D02*
X300230Y153931D01*
Y156923D01*
X306069Y162762D01*
Y165360D02*
X308032Y167323D01*
X180709Y248425D02*
X180936Y248653D01*
Y253171D02*
X182096Y254331D01*
X220414D02*
X226320Y248425D01*
X180936Y248653D02*
Y253171D01*
X182096Y254331D02*
X220414D01*
X226320Y248425D02*
X259055D01*
X259154Y231693D02*
Y248327D01*
X259055Y248425D02*
X259154Y248327D01*
Y231693D02*
X259252Y231594D01*
X227362Y114075D02*
Y115655D01*
X231595Y119888D01*
D38*
X251673Y170965D02*
Y178366D01*
X268307Y138465D02*
Y154331D01*
X251673Y170965D02*
X268307Y154331D01*
X251673Y178366D02*
Y185827D01*
X259252Y193405D02*
Y201594D01*
X251673Y185827D02*
X259252Y193405D01*
X166967Y236871D02*
X181102Y222736D01*
X190236D01*
X166967Y236871D02*
Y247756D01*
X146161Y268562D02*
X166967Y247756D01*
X146161Y268562D02*
Y289488D01*
D39*
X268307Y178465D02*
D03*
Y138465D02*
D03*
X72736Y199784D02*
D03*
Y239784D02*
D03*
X225590Y228130D02*
D03*
Y268130D02*
D03*
X60433Y199390D02*
D03*
Y239390D02*
D03*
X215846Y228130D02*
D03*
Y268130D02*
D03*
X259736Y73803D02*
D03*
Y113803D02*
D03*
X243996Y73898D02*
D03*
Y113898D02*
D03*
X208295Y73803D02*
D03*
Y113803D02*
D03*
X188583Y73701D02*
D03*
Y113701D02*
D03*
X218406Y138366D02*
D03*
Y178366D02*
D03*
X206004Y178169D02*
D03*
Y138169D02*
D03*
X297342Y78819D02*
D03*
Y118819D02*
D03*
X281496Y201457D02*
D03*
Y241457D02*
D03*
X129429Y289488D02*
D03*
Y249488D02*
D03*
X204921Y268524D02*
D03*
Y228524D02*
D03*
X89862Y239685D02*
D03*
Y199685D02*
D03*
X235236Y138268D02*
D03*
Y178268D02*
D03*
X251673Y138366D02*
D03*
Y178366D02*
D03*
X146161Y289488D02*
D03*
Y249488D02*
D03*
D40*
X308032Y167323D02*
D03*
X298268Y151969D02*
D03*
X215246Y290148D02*
D03*
X307655Y241302D02*
D03*
X307493Y189810D02*
D03*
X39724Y121516D02*
D03*
X48917Y239469D02*
D03*
X309252Y105709D02*
D03*
X59153Y75787D02*
D03*
X39665Y75197D02*
D03*
D41*
X298031Y167323D02*
D03*
X308268Y151969D02*
D03*
D42*
X309321Y79678D02*
D03*
D43*
X259055Y248425D02*
D03*
X160138Y180512D02*
D03*
X62303Y121457D02*
D03*
D44*
X259055Y260236D02*
D03*
X160138Y168701D02*
D03*
X30610Y200000D02*
D03*
X62303Y109646D02*
D03*
D45*
X267992Y189272D02*
D03*
X287992D02*
D03*
X157677Y249508D02*
D03*
Y269508D02*
D03*
X103543Y192835D02*
D03*
Y172835D02*
D03*
X62520Y141831D02*
D03*
X42520D02*
D03*
X102559Y239862D02*
D03*
Y219862D02*
D03*
X132874Y180532D02*
D03*
Y160531D02*
D03*
X42342Y178051D02*
D03*
X22343D02*
D03*
X193110Y267736D02*
D03*
Y247736D02*
D03*
X180709Y268425D02*
D03*
Y248425D02*
D03*
X112500Y269500D02*
D03*
Y289500D02*
D03*
D46*
X152087Y309941D02*
D03*
X112087D02*
D03*
D47*
X160236Y202736D02*
D03*
Y212736D02*
D03*
Y222736D02*
D03*
Y232736D02*
D03*
X190236Y212736D02*
D03*
Y222736D02*
D03*
Y232736D02*
D03*
X145354Y229547D02*
D03*
Y219547D02*
D03*
Y209547D02*
D03*
X115354Y229547D02*
D03*
Y219547D02*
D03*
Y209547D02*
D03*
Y199547D02*
D03*
D48*
X190236Y202736D02*
D03*
X145354Y199547D02*
D03*
D49*
X279035Y108465D02*
D03*
Y98425D02*
D03*
Y88465D02*
D03*
D50*
X239252Y231594D02*
D03*
X249252D02*
D03*
X259252D02*
D03*
X239252Y201594D02*
D03*
X249252D02*
D03*
X259252D02*
D03*
X269252D02*
D03*
D51*
Y231594D02*
D03*
D52*
X42421Y200000D02*
D03*
D53*
X222441Y114075D02*
D03*
X227362D02*
D03*
X232283D02*
D03*
D54*
X43000Y269000D02*
D03*
Y306000D02*
D03*
X83000D02*
D03*
Y269000D02*
D03*
X141437Y120957D02*
D03*
Y83957D02*
D03*
X101437D02*
D03*
Y120957D02*
D03*
D55*
X62165Y156693D02*
D03*
D56*
X52165D02*
D03*
X42165D02*
D03*
D57*
X10000Y320000D02*
D03*
X310000D02*
D03*
X309646Y59842D02*
D03*
X9646D02*
D03*
D58*
X289764Y182965D02*
D03*
X219411Y277453D02*
D03*
X289764Y135721D02*
D03*
X254331Y256638D02*
D03*
X301575Y301075D02*
D03*
X313386Y277453D02*
D03*
X301575Y253831D02*
D03*
X313386Y230209D02*
D03*
X301575Y206587D02*
D03*
X313386Y182965D02*
D03*
Y135721D02*
D03*
X301575Y112099D02*
D03*
X313386Y88476D02*
D03*
X301575Y64854D02*
D03*
X277953Y301075D02*
D03*
X289764Y277453D02*
D03*
X277953Y253831D02*
D03*
X289764Y230209D02*
D03*
Y88476D02*
D03*
X277953Y64854D02*
D03*
X254331Y301075D02*
D03*
X266142Y277453D02*
D03*
X254331Y64854D02*
D03*
X230709Y301075D02*
D03*
X242520Y277453D02*
D03*
X230709Y206587D02*
D03*
X242520Y182965D02*
D03*
X230709Y159343D02*
D03*
X242520Y135721D02*
D03*
Y88476D02*
D03*
X230709Y64854D02*
D03*
X207087Y301075D02*
D03*
Y159343D02*
D03*
X218898Y88476D02*
D03*
X207087Y64854D02*
D03*
X183465Y301075D02*
D03*
X195276Y277453D02*
D03*
Y182965D02*
D03*
Y88476D02*
D03*
X183465Y64854D02*
D03*
X159843Y301075D02*
D03*
X171654Y277453D02*
D03*
Y182965D02*
D03*
X159843Y159343D02*
D03*
X171654Y135721D02*
D03*
X159843Y112099D02*
D03*
X171654Y88476D02*
D03*
X159843Y64854D02*
D03*
X136221Y301075D02*
D03*
Y253831D02*
D03*
Y206587D02*
D03*
X148031Y135721D02*
D03*
X136221Y64854D02*
D03*
X124409Y277453D02*
D03*
X112599Y253831D02*
D03*
X124409Y230209D02*
D03*
Y182965D02*
D03*
X112599Y159343D02*
D03*
X124409Y135721D02*
D03*
Y88476D02*
D03*
X112599Y64854D02*
D03*
X100787Y277453D02*
D03*
X88976Y253831D02*
D03*
X100787Y182965D02*
D03*
X88976Y159343D02*
D03*
X100787Y135721D02*
D03*
X88976Y112099D02*
D03*
Y64854D02*
D03*
X65354Y301075D02*
D03*
Y253831D02*
D03*
X77165Y230209D02*
D03*
X65354Y206587D02*
D03*
X77165Y182965D02*
D03*
Y135721D02*
D03*
Y88476D02*
D03*
X65354Y64854D02*
D03*
X41732Y253831D02*
D03*
X53543Y230209D02*
D03*
X41732Y206587D02*
D03*
X53543Y182965D02*
D03*
Y135721D02*
D03*
X41732Y112099D02*
D03*
X53543Y88476D02*
D03*
X41732Y64854D02*
D03*
X18110Y301075D02*
D03*
X29921Y277453D02*
D03*
X18110Y253831D02*
D03*
X29921Y230209D02*
D03*
X18110Y206587D02*
D03*
X29921Y182965D02*
D03*
X18110Y159343D02*
D03*
X29921Y135721D02*
D03*
X18110Y112099D02*
D03*
X29921Y88476D02*
D03*
X18110Y64854D02*
D03*
D59*
X195965Y144390D02*
D03*
M02*
