M48
;Layer_Color=9474304
;FILE_FORMAT=2:5
INCH,TZ
;TYPE=PLATED
T1F00S00C0.01968
T2F00S00C0.02756
T3F00S00C0.02800
T4F00S00C0.03150
T5F00S00C0.03543
T6F00S00C0.04331
T7F00S00C0.05000
;TYPE=NON_PLATED
T8F00S00C0.11811
%
T01
X230709Y64854
X254331
X277953
X301575
X313386Y88476
X289764
X301575Y112099
X313386Y135721
X289764
Y182965
X313386
X301575Y206587
X230709
X242520Y182965
X230709Y159343
X242520Y135721
Y88476
X218898
X195276
X171654
X159843Y112099
X171654Y135721
X148031
X124409
X100787
X77165
X88976Y159343
X112599
X124409Y182965
X100787
X77165
X65354Y206587
X136221
X171654Y182965
X195276
X207087Y159343
X159843
Y64854
X183465
X207087
X136221
X112599
X88976
X65354
X77165Y88476
X88976Y112099
X124409Y88476
X53543
X29921
X18110Y112099
X41732
X53543Y135721
X29921
X18110Y159343
X29921Y182965
X53543
X41732Y206587
X18110
Y64854
X41732
X53543Y230209
X29921
X18110Y253831
X41732
X29921Y277453
X18110Y301075
X65354
Y253831
X88976
X112599
X136221
X124409Y277453
X100787
X136221Y301075
X159843
X183465
X207087
X195276Y277453
X171654
X124409Y230209
X77165
X219411Y277453
X242520
X266142
X289764
X313386
X301575Y301075
X277953
X254331
X230709
X254331Y256638
X277953Y253831
X301575
X313386Y230209
X289764
T02
X243996Y73898
X259736Y73803
X279035Y88465
Y98425
Y108465
X259736Y113803
X243996Y113898
X232283Y114075
X227362
X222441
X218406Y138366
X235236Y138268
X251673Y138366
X268307Y138465
Y178465
X251673Y178366
X235236Y178268
X218406Y178366
X281496Y201457
X297342Y118819
Y78819
X208295Y73803
X188583Y73701
Y113701
X208295Y113803
X206004Y138169
Y178169
X160138Y180512
Y168701
X89862Y199685
X72736Y199784
X60433Y199390
X62303Y121457
Y109646
X42421Y200000
X30610
X60433Y239390
X72736Y239784
X89862Y239685
X129429Y249488
X146161
Y289488
X129429
X112087Y309941
X152087
X204921Y268524
Y228524
X215846Y228130
X225590
Y268130
X215846
X259055Y260236
Y248425
X281496Y241457
T03
X239252Y201594
X249252
X259252
X269252
X190236Y202736
X160236
X145354Y199547
Y209547
X115354
Y199547
X195965Y144390
X190236Y212736
Y222736
Y232736
X160236
Y222736
Y212736
X145354Y219547
Y229547
X115354
Y219547
X239252Y231594
X249252
X259252
X269252
T04
X267992Y189272
X287992
X132874Y180532
Y160531
X103543Y172835
Y192835
X62520Y141831
X42520
X42342Y178051
X22343
X102559Y219862
Y239862
X112500Y269500
Y289500
X157677Y269508
Y249508
X180709Y248425
X193110Y247736
Y267736
X180709Y268425
T05
X309321Y79678
X309252Y105709
X308268Y151969
X298268
X298031Y167323
X308032
X307493Y189810
X59153Y75787
X39665Y75197
X39724Y121516
X48917Y239469
X215246Y290148
X307655Y241302
T06
X62165Y156693
X52165
X42165
T07
X101437Y83957
Y120957
X141437
Y83957
X43000Y269000
Y306000
X83000
Y269000
T08
X309646Y59842
X9646
X10000Y320000
X310000
M30
