G04*
G04 #@! TF.GenerationSoftware,Altium Limited,Altium Designer,22.3.1 (43)*
G04*
G04 Layer_Color=65535*
%FSLAX25Y25*%
%MOIN*%
G70*
G04*
G04 #@! TF.SameCoordinates,DB5E6BC5-2FB0-485C-ACA0-6941E67FB07D*
G04*
G04*
G04 #@! TF.FilePolarity,Positive*
G04*
G01*
G75*
%ADD10C,0.01000*%
%ADD11C,0.00800*%
%ADD12C,0.00787*%
%ADD13C,0.00500*%
%ADD14C,0.00591*%
D10*
X274803Y254331D02*
G03*
X274803Y254331I-15748J0D01*
G01*
X175886Y174606D02*
G03*
X175886Y174606I-15748J0D01*
G01*
X270035Y83478D02*
G03*
X270039Y113211I5917J14866D01*
G01*
X52264Y200000D02*
G03*
X52264Y200000I-15748J0D01*
G01*
X78051Y115551D02*
G03*
X78051Y115551I-15748J0D01*
G01*
X220398Y122610D02*
G03*
X216862Y114075I8535J-8535D01*
G01*
X222569Y124075D02*
G03*
X221362Y123575I0J-1707D01*
G01*
X234327Y123610D02*
G03*
X233205Y124075I-1121J-1121D01*
G01*
X237862Y115075D02*
G03*
X234327Y123610I-12071J0D01*
G01*
X56000Y287500D02*
G03*
X56000Y287500I-13000J0D01*
G01*
X96000D02*
G03*
X96000Y287500I-13000J0D01*
G01*
X154437Y102457D02*
G03*
X154437Y102457I-13000J0D01*
G01*
X114437D02*
G03*
X114437Y102457I-13000J0D01*
G01*
X259055Y240551D02*
Y244488D01*
X257087Y242520D02*
X261024D01*
X158169Y186417D02*
X162106D01*
X160138Y184449D02*
Y188386D01*
X270035Y83478D02*
X270039Y113211D01*
X46358Y200000D02*
X50295D01*
X48327Y198031D02*
Y201969D01*
X62303Y125394D02*
Y129331D01*
X60335Y127362D02*
X64272D01*
X216862Y107575D02*
Y114075D01*
X220398Y122610D02*
X221362Y123575D01*
X222569Y124075D02*
X233205D01*
X237862Y107575D02*
Y115075D01*
X216862Y107575D02*
X237862D01*
X43000Y290000D02*
X51000Y298000D01*
X32500Y279500D02*
X43000Y290000D01*
Y286000D02*
X53000Y296000D01*
X34500Y277500D02*
X43000Y286000D01*
X83000Y290000D02*
X91000Y298000D01*
X72500Y279500D02*
X83000Y290000D01*
Y286000D02*
X93000Y296000D01*
X74500Y277500D02*
X83000Y286000D01*
X23400Y256100D02*
X102100D01*
X23400Y319100D02*
X102100D01*
X105000Y256000D02*
Y319000D01*
X23400Y256100D02*
Y319100D01*
X102100Y256100D02*
Y319100D01*
X61000Y256000D02*
Y319000D01*
X65000Y256000D02*
Y319000D01*
X25500Y256000D02*
Y319000D01*
X133437Y91957D02*
X141437Y99957D01*
X151937Y110457D01*
X131437Y93957D02*
X141437Y103957D01*
X149937Y112457D01*
X93437Y91957D02*
X101437Y99957D01*
X111937Y110457D01*
X91437Y93957D02*
X101437Y103957D01*
X109937Y112457D01*
X82337Y133857D02*
X161037D01*
X82337Y70857D02*
X161037D01*
X79437Y70957D02*
Y133957D01*
X161037Y70857D02*
Y133857D01*
X82337Y70857D02*
Y133857D01*
X123437Y70957D02*
Y133957D01*
X119437Y70957D02*
Y133957D01*
X158937Y70957D02*
Y133957D01*
D11*
X177736Y197736D02*
G03*
X172736Y197736I-2500J0D01*
G01*
X274252Y219094D02*
G03*
X274252Y214094I0J-2500D01*
G01*
X132854Y194547D02*
G03*
X127854Y194547I-2500J0D01*
G01*
X177736Y197736D02*
X185236D01*
X165236D02*
X172736D01*
X274252Y206594D02*
Y214094D01*
Y219094D02*
Y226594D01*
X120354Y194547D02*
X127854D01*
X132854D02*
X140354D01*
D12*
X264307Y170465D02*
X272307D01*
Y146465D02*
Y170465D01*
X264307Y146465D02*
X272307D01*
X264307D02*
Y170465D01*
X268307D02*
Y174465D01*
Y142465D02*
Y146465D01*
X293032Y162323D02*
Y172323D01*
X313032D01*
Y162323D02*
Y172323D01*
X293032Y162323D02*
X313032D01*
X293268Y156968D02*
X313268D01*
X293268Y146968D02*
Y156968D01*
Y146968D02*
X313268D01*
Y156968D01*
X210718Y285227D02*
Y295227D01*
X220167D01*
X210718Y285227D02*
X220167D01*
Y295227D01*
X312183Y236223D02*
Y246223D01*
X302734Y236223D02*
X312183D01*
X302734Y246223D02*
X312183D01*
X302734Y236223D02*
Y246223D01*
X304400Y84206D02*
X314400D01*
Y74757D02*
Y84206D01*
X304400Y74757D02*
Y84206D01*
Y74757D02*
X314400D01*
X312021Y184731D02*
Y194731D01*
X302572Y184731D02*
X312021D01*
X302572Y194731D02*
X312021D01*
X302572Y184731D02*
Y194731D01*
X262992Y194272D02*
X292992D01*
X262992Y184272D02*
Y194272D01*
Y184272D02*
X292992D01*
Y194272D01*
X144087Y305941D02*
Y313941D01*
X120087Y305941D02*
X144087D01*
X120087D02*
Y313941D01*
X144087D01*
Y309941D02*
X148087D01*
X116087D02*
X120087D01*
X68736Y207784D02*
X76736D01*
X68736D02*
Y231784D01*
X76736D01*
Y207784D02*
Y231784D01*
X72736Y203783D02*
Y207784D01*
Y231784D02*
Y235784D01*
X221590Y236130D02*
X229591D01*
X221590D02*
Y260130D01*
X229591D01*
Y236130D02*
Y260130D01*
X225590Y232130D02*
Y236130D01*
Y260130D02*
Y264130D01*
X165315Y238445D02*
X185236D01*
X165236Y197736D02*
Y238366D01*
X185236Y197736D02*
Y238445D01*
X152677Y244508D02*
X162677D01*
X152677D02*
Y274508D01*
X162677D01*
Y244508D02*
Y274508D01*
X34803Y116437D02*
Y126437D01*
X44252D01*
X34803Y116437D02*
X44252D01*
Y126437D01*
X108543Y167835D02*
Y197835D01*
X98543D02*
X108543D01*
X98543Y167835D02*
Y197835D01*
Y167835D02*
X108543D01*
X233543Y226594D02*
X274252D01*
X233622Y206594D02*
X274252D01*
X233543Y206673D02*
Y226594D01*
X60433Y203390D02*
Y207390D01*
Y231390D02*
Y235390D01*
X56433Y207390D02*
Y231390D01*
Y207390D02*
X64433D01*
Y231390D01*
X56433D02*
X64433D01*
X53445Y234390D02*
Y244390D01*
X43996Y234390D02*
X53445D01*
X43996Y244390D02*
X53445D01*
X43996Y234390D02*
Y244390D01*
X37520Y136831D02*
X67520D01*
Y146831D01*
X37520D02*
X67520D01*
X37520Y136831D02*
Y146831D01*
X215846Y232130D02*
Y236130D01*
Y260130D02*
Y264130D01*
X211846Y236130D02*
Y260130D01*
Y236130D02*
X219847D01*
Y260130D01*
X211846D02*
X219847D01*
X313779Y100630D02*
Y110630D01*
X304331Y100630D02*
X313779D01*
X304331Y110630D02*
X313779D01*
X304331Y100630D02*
Y110630D01*
X259736Y77803D02*
Y81803D01*
Y105803D02*
Y109803D01*
X255736Y81803D02*
Y105803D01*
Y81803D02*
X263736D01*
Y105803D01*
X255736D02*
X263736D01*
X243996Y77898D02*
Y81898D01*
Y105898D02*
Y109898D01*
X239996Y81898D02*
Y105898D01*
Y81898D02*
X247996D01*
Y105898D01*
X239996D02*
X247996D01*
X208295Y77803D02*
Y81803D01*
Y105803D02*
Y109803D01*
X204295Y81803D02*
Y105803D01*
Y81803D02*
X212295D01*
Y105803D01*
X204295D02*
X212295D01*
X188583Y77701D02*
Y81701D01*
Y105701D02*
Y109701D01*
X184583Y81701D02*
Y105701D01*
Y81701D02*
X192583D01*
Y105701D01*
X184583D02*
X192583D01*
X218406Y142366D02*
Y146366D01*
Y170366D02*
Y174366D01*
X214405Y146366D02*
Y170366D01*
Y146366D02*
X222406D01*
Y170366D01*
X214405D02*
X222406D01*
X206004Y170169D02*
Y174169D01*
Y142169D02*
Y146169D01*
X210004D02*
Y170169D01*
X202004D02*
X210004D01*
X202004Y146169D02*
Y170169D01*
Y146169D02*
X210004D01*
X63681Y70709D02*
Y80709D01*
X54232Y70709D02*
X63681D01*
X54232Y80709D02*
X63681D01*
X54232Y70709D02*
Y80709D01*
X44193Y70118D02*
Y80118D01*
X34744Y70118D02*
X44193D01*
X34744Y80118D02*
X44193D01*
X34744Y70118D02*
Y80118D01*
X297342Y82819D02*
Y86819D01*
Y110819D02*
Y114819D01*
X293342Y86819D02*
Y110819D01*
Y86819D02*
X301343D01*
Y110819D01*
X293342D02*
X301343D01*
X107559Y214862D02*
Y244862D01*
X97559D02*
X107559D01*
X97559Y214862D02*
Y244862D01*
Y214862D02*
X107559D01*
X102200Y319000D02*
X105000D01*
X102200Y256000D02*
X105000D01*
X281496Y205457D02*
Y209457D01*
Y233457D02*
Y237457D01*
X277496Y209457D02*
Y233457D01*
Y209457D02*
X285496D01*
Y233457D01*
X277496D02*
X285496D01*
X137874Y155532D02*
Y185531D01*
X127874D02*
X137874D01*
X127874Y155532D02*
Y185531D01*
Y155532D02*
X137874D01*
X140354Y194547D02*
Y235256D01*
X120354Y194547D02*
Y235177D01*
X120433Y235256D02*
X140354D01*
X129429Y281488D02*
Y285488D01*
Y253488D02*
Y257488D01*
X133429D02*
Y281488D01*
X125429D02*
X133429D01*
X125429Y257488D02*
Y281488D01*
Y257488D02*
X133429D01*
X40905Y163976D02*
X71614D01*
Y149606D02*
Y163976D01*
X32244D02*
X67677D01*
X32244Y148228D02*
Y163976D01*
Y148228D02*
X71614D01*
Y163976D01*
X32244Y150197D02*
X71417D01*
X17343Y173051D02*
X47343D01*
Y183051D01*
X17343D02*
X47343D01*
X17343Y173051D02*
Y183051D01*
X198110Y242736D02*
Y272736D01*
X188110D02*
X198110D01*
X188110Y242736D02*
Y272736D01*
Y242736D02*
X198110D01*
X204921Y260524D02*
Y264524D01*
Y232524D02*
Y236524D01*
X208921D02*
Y260524D01*
X200921D02*
X208921D01*
X200921Y236524D02*
Y260524D01*
Y236524D02*
X208921D01*
X185709Y243425D02*
Y273425D01*
X175709D02*
X185709D01*
X175709Y243425D02*
Y273425D01*
Y243425D02*
X185709D01*
X79437Y70957D02*
X82237D01*
X79437Y133957D02*
X82237D01*
X89862Y231685D02*
Y235685D01*
Y203685D02*
Y207685D01*
X93862D02*
Y231685D01*
X85862D02*
X93862D01*
X85862Y207685D02*
Y231685D01*
Y207685D02*
X93862D01*
X235236Y142268D02*
Y146268D01*
Y170268D02*
Y174268D01*
X231236Y146268D02*
Y170268D01*
Y146268D02*
X239236D01*
Y170268D01*
X231236D02*
X239236D01*
X251673Y142366D02*
Y146366D01*
Y170366D02*
Y174366D01*
X247673Y146366D02*
Y170366D01*
Y146366D02*
X255673D01*
Y170366D01*
X247673D02*
X255673D01*
X107500Y264500D02*
Y294500D01*
Y264500D02*
X117500D01*
Y294500D01*
X107500D02*
X117500D01*
X146161Y281488D02*
Y285488D01*
Y253488D02*
Y257488D01*
X150161D02*
Y281488D01*
X142161D02*
X150161D01*
X142161Y257488D02*
Y281488D01*
Y257488D02*
X150161D01*
D13*
X188736Y204236D02*
X190236D01*
X185236Y206236D02*
X186736D01*
X188736Y201236D02*
X190236D01*
X185236Y199236D02*
X186736D01*
X188736Y214236D02*
X190236D01*
X185236Y216236D02*
X186736D01*
X188736Y211236D02*
X190236D01*
X185236Y209236D02*
X186736D01*
X188736Y224236D02*
X190236D01*
X185236Y226236D02*
X186736D01*
X188736Y221236D02*
X190236D01*
X185236Y219236D02*
X186736D01*
X188736Y234236D02*
X190236D01*
X185236Y236236D02*
X186736D01*
X188736Y231236D02*
X190236D01*
X185236Y229236D02*
X186736D01*
X160236Y204236D02*
X161736D01*
X163736Y206236D02*
X165236D01*
X160236Y201236D02*
X161736D01*
X163736Y199236D02*
X165236D01*
X160236Y214236D02*
X161736D01*
X163736Y216236D02*
X165236D01*
X160236Y211236D02*
X161736D01*
X163736Y209236D02*
X165236D01*
X160236Y224236D02*
X161736D01*
X163736Y226236D02*
X165236D01*
X160236Y221236D02*
X161736D01*
X163736Y219236D02*
X165236D01*
X160236Y234236D02*
X161736D01*
X163736Y236236D02*
X165236D01*
X160236Y231236D02*
X161736D01*
X163736Y229236D02*
X165236D01*
X190236Y201236D02*
Y204236D01*
Y211236D02*
Y214236D01*
Y221236D02*
Y224236D01*
Y231236D02*
Y234236D01*
X160236Y201236D02*
Y204236D01*
Y211236D02*
Y214236D01*
Y221236D02*
Y224236D01*
Y231236D02*
Y234236D01*
X186736Y199236D02*
X188736Y201236D01*
X186736Y209236D02*
X188736Y211236D01*
X186736Y219236D02*
X188736Y221236D01*
X186736Y229236D02*
X188736Y231236D01*
X161736Y204236D02*
X163736Y206236D01*
X161736Y214236D02*
X163736Y216236D01*
X161736Y224236D02*
X163736Y226236D01*
X161736Y234236D02*
X163736Y236236D01*
X186736Y206236D02*
X188736Y204236D01*
X186736Y216236D02*
X188736Y214236D01*
X186736Y226236D02*
X188736Y224236D01*
X186736Y236236D02*
X188736Y234236D01*
X161736Y201236D02*
X163736Y199236D01*
X161736Y211236D02*
X163736Y209236D01*
X161736Y221236D02*
X163736Y219236D01*
X161736Y231236D02*
X163736Y229236D01*
X240752Y203095D02*
X242752Y205095D01*
X250752Y203095D02*
X252752Y205095D01*
X260752Y203095D02*
X262752Y205095D01*
X270752Y203095D02*
X272752Y205095D01*
X235752Y228095D02*
X237752Y230095D01*
X245752Y228095D02*
X247752Y230095D01*
X255752Y228095D02*
X257752Y230095D01*
X265752Y228095D02*
X267752Y230095D01*
X235752Y205095D02*
X237752Y203095D01*
X245752Y205095D02*
X247752Y203095D01*
X255752Y205095D02*
X257752Y203095D01*
X265752Y205095D02*
X267752Y203095D01*
X240752Y230095D02*
X242752Y228095D01*
X250752Y230095D02*
X252752Y228095D01*
X260752Y230095D02*
X262752Y228095D01*
X270752Y230095D02*
X272752Y228095D01*
X237752Y201594D02*
X240752D01*
X247752D02*
X250752D01*
X257752D02*
X260752D01*
X267752D02*
X270752D01*
X237752Y231594D02*
X240752D01*
X247752D02*
X250752D01*
X257752D02*
X260752D01*
X267752D02*
X270752D01*
X242752Y205095D02*
Y206594D01*
X240752Y201594D02*
Y203095D01*
X235752Y205095D02*
Y206594D01*
X237752Y201594D02*
Y203095D01*
X252752Y205095D02*
Y206594D01*
X250752Y201594D02*
Y203095D01*
X245752Y205095D02*
Y206594D01*
X247752Y201594D02*
Y203095D01*
X262752Y205095D02*
Y206594D01*
X260752Y201594D02*
Y203095D01*
X255752Y205095D02*
Y206594D01*
X257752Y201594D02*
Y203095D01*
X272752Y205095D02*
Y206594D01*
X270752Y201594D02*
Y203095D01*
X265752Y205095D02*
Y206594D01*
X267752Y201594D02*
Y203095D01*
X242752Y226594D02*
Y228095D01*
X240752Y230095D02*
Y231594D01*
X235752Y226594D02*
Y228095D01*
X237752Y230095D02*
Y231594D01*
X252752Y226594D02*
Y228095D01*
X250752Y230095D02*
Y231594D01*
X245752Y226594D02*
Y228095D01*
X247752Y230095D02*
Y231594D01*
X262752Y226594D02*
Y228095D01*
X260752Y230095D02*
Y231594D01*
X255752Y226594D02*
Y228095D01*
X257752Y230095D02*
Y231594D01*
X272752Y226594D02*
Y228095D01*
X270752Y230095D02*
Y231594D01*
X265752Y226594D02*
Y228095D01*
X267752Y230095D02*
Y231594D01*
X116854Y228047D02*
X118854Y226047D01*
X116854Y218047D02*
X118854Y216047D01*
X116854Y208047D02*
X118854Y206047D01*
X116854Y198047D02*
X118854Y196047D01*
X141854Y233047D02*
X143854Y231047D01*
X141854Y223047D02*
X143854Y221047D01*
X141854Y213047D02*
X143854Y211047D01*
X141854Y203047D02*
X143854Y201047D01*
X116854Y231047D02*
X118854Y233047D01*
X116854Y221047D02*
X118854Y223047D01*
X116854Y211047D02*
X118854Y213047D01*
X116854Y201047D02*
X118854Y203047D01*
X141854Y226047D02*
X143854Y228047D01*
X141854Y216047D02*
X143854Y218047D01*
X141854Y206047D02*
X143854Y208047D01*
X141854Y196047D02*
X143854Y198047D01*
X115354Y228047D02*
Y231047D01*
Y218047D02*
Y221047D01*
Y208047D02*
Y211047D01*
Y198047D02*
Y201047D01*
X145354Y228047D02*
Y231047D01*
Y218047D02*
Y221047D01*
Y208047D02*
Y211047D01*
Y198047D02*
Y201047D01*
X118854Y226047D02*
X120354D01*
X115354Y228047D02*
X116854D01*
X118854Y233047D02*
X120354D01*
X115354Y231047D02*
X116854D01*
X118854Y216047D02*
X120354D01*
X115354Y218047D02*
X116854D01*
X118854Y223047D02*
X120354D01*
X115354Y221047D02*
X116854D01*
X118854Y206047D02*
X120354D01*
X115354Y208047D02*
X116854D01*
X118854Y213047D02*
X120354D01*
X115354Y211047D02*
X116854D01*
X118854Y196047D02*
X120354D01*
X115354Y198047D02*
X116854D01*
X118854Y203047D02*
X120354D01*
X115354Y201047D02*
X116854D01*
X140354Y226047D02*
X141854D01*
X143854Y228047D02*
X145354D01*
X140354Y233047D02*
X141854D01*
X143854Y231047D02*
X145354D01*
X140354Y216047D02*
X141854D01*
X143854Y218047D02*
X145354D01*
X140354Y223047D02*
X141854D01*
X143854Y221047D02*
X145354D01*
X140354Y206047D02*
X141854D01*
X143854Y208047D02*
X145354D01*
X140354Y213047D02*
X141854D01*
X143854Y211047D02*
X145354D01*
X140354Y196047D02*
X141854D01*
X143854Y198047D02*
X145354D01*
X140354Y203047D02*
X141854D01*
X143854Y201047D02*
X145354D01*
D14*
X276194Y283183D02*
X278818D01*
X277506D01*
Y279247D01*
X280130Y281871D02*
Y279247D01*
Y280559D01*
X280785Y281215D01*
X281441Y281871D01*
X282097D01*
X284721D02*
X286033D01*
X286689Y281215D01*
Y279247D01*
X284721D01*
X284065Y279903D01*
X284721Y280559D01*
X286689D01*
X288001Y279247D02*
Y281871D01*
X289969D01*
X290625Y281215D01*
Y279247D01*
X291937D02*
X293905D01*
X294561Y279903D01*
X293905Y280559D01*
X292593D01*
X291937Y281215D01*
X292593Y281871D01*
X294561D01*
X295872Y279247D02*
Y281871D01*
X296529D01*
X297184Y281215D01*
Y279247D01*
Y281215D01*
X297840Y281871D01*
X298496Y281215D01*
Y279247D01*
X299808D02*
X301120D01*
X300464D01*
Y281871D01*
X299808D01*
X303744Y282527D02*
Y281871D01*
X303088D01*
X304400D01*
X303744D01*
Y279903D01*
X304400Y279247D01*
X307024Y282527D02*
Y281871D01*
X306368D01*
X307680D01*
X307024D01*
Y279903D01*
X307680Y279247D01*
X311615D02*
X310303D01*
X309648Y279903D01*
Y281215D01*
X310303Y281871D01*
X311615D01*
X312271Y281215D01*
Y280559D01*
X309648D01*
X313583Y281871D02*
Y279247D01*
Y280559D01*
X314239Y281215D01*
X314895Y281871D01*
X315551D01*
X272914Y277043D02*
X270290D01*
Y273107D01*
X272914D01*
X270290Y275075D02*
X271602D01*
X274226Y277043D02*
Y273107D01*
X276850D01*
X280785Y277043D02*
X278162D01*
Y273107D01*
X280785D01*
X278162Y275075D02*
X279474D01*
X284721Y276387D02*
X284065Y277043D01*
X282753D01*
X282097Y276387D01*
Y273763D01*
X282753Y273107D01*
X284065D01*
X284721Y273763D01*
X286033Y277043D02*
X288657D01*
X287345D01*
Y273107D01*
X292593Y277043D02*
X289969D01*
Y273107D01*
X292593D01*
X289969Y275075D02*
X291281D01*
X293905Y273107D02*
Y277043D01*
X296529Y273107D01*
Y277043D01*
X300464Y276387D02*
X299808Y277043D01*
X298496D01*
X297840Y276387D01*
Y273763D01*
X298496Y273107D01*
X299808D01*
X300464Y273763D01*
Y275075D01*
X299152D01*
X305712Y276387D02*
X306368Y277043D01*
X307680D01*
X308336Y276387D01*
Y275731D01*
X307680Y275075D01*
X307024D01*
X307680D01*
X308336Y274419D01*
Y273763D01*
X307680Y273107D01*
X306368D01*
X305712Y273763D01*
X309648Y273107D02*
X310960D01*
X310303D01*
Y277043D01*
X309648Y276387D01*
X312927D02*
X313583Y277043D01*
X314895D01*
X315551Y276387D01*
Y273763D01*
X314895Y273107D01*
X313583D01*
X312927Y273763D01*
Y276387D01*
X289313Y270903D02*
X291937D01*
X290625D01*
Y266967D01*
X295216D02*
X293905D01*
X293249Y267623D01*
Y268935D01*
X293905Y269591D01*
X295216D01*
X295872Y268935D01*
Y268279D01*
X293249D01*
X297840Y269591D02*
X299152D01*
X299808Y268935D01*
Y266967D01*
X297840D01*
X297184Y267623D01*
X297840Y268279D01*
X299808D01*
X301120Y266967D02*
Y269591D01*
X301776D01*
X302432Y268935D01*
Y266967D01*
Y268935D01*
X303088Y269591D01*
X303744Y268935D01*
Y266967D01*
X308992Y270247D02*
X309648Y270903D01*
X310960D01*
X311615Y270247D01*
Y267623D01*
X310960Y266967D01*
X309648D01*
X308992Y267623D01*
Y270247D01*
X315551Y270903D02*
X314239Y270247D01*
X312927Y268935D01*
Y267623D01*
X313583Y266967D01*
X314895D01*
X315551Y267623D01*
Y268279D01*
X314895Y268935D01*
X312927D01*
X303744Y260827D02*
X301120D01*
X303744Y263451D01*
Y264106D01*
X303088Y264762D01*
X301776D01*
X301120Y264106D01*
X305056D02*
X305712Y264762D01*
X307024D01*
X307680Y264106D01*
Y261483D01*
X307024Y260827D01*
X305712D01*
X305056Y261483D01*
Y264106D01*
X311615Y260827D02*
X308992D01*
X311615Y263451D01*
Y264106D01*
X310960Y264762D01*
X309648D01*
X308992Y264106D01*
X315551Y260827D02*
X312927D01*
X315551Y263451D01*
Y264106D01*
X314895Y264762D01*
X313583D01*
X312927Y264106D01*
X273427Y140945D02*
Y144881D01*
X275395D01*
X276051Y144225D01*
Y142913D01*
X275395Y142257D01*
X273427D01*
X274739D02*
X276051Y140945D01*
X277362D02*
X278674D01*
X278018D01*
Y144881D01*
X277362Y144225D01*
X282610Y140945D02*
Y144881D01*
X280642Y142913D01*
X283266D01*
X284516Y168505D02*
Y172440D01*
X286483D01*
X287139Y171784D01*
Y170472D01*
X286483Y169817D01*
X284516D01*
X290419Y168505D02*
Y172440D01*
X288451Y170472D01*
X291075D01*
X284516Y152757D02*
Y156692D01*
X286483D01*
X287139Y156036D01*
Y154724D01*
X286483Y154069D01*
X284516D01*
X291075Y156692D02*
X288451D01*
Y154724D01*
X289763Y155380D01*
X290419D01*
X291075Y154724D01*
Y153412D01*
X290419Y152757D01*
X289107D01*
X288451Y153412D01*
X210900Y302136D02*
Y299512D01*
X212212Y298200D01*
X213524Y299512D01*
Y302136D01*
X215492Y301480D02*
Y300824D01*
X214836D01*
X216148D01*
X215492D01*
Y298856D01*
X216148Y298200D01*
X218115Y300824D02*
Y298200D01*
Y299512D01*
X218772Y300168D01*
X219427Y300824D01*
X220083D01*
X302900Y254436D02*
Y251812D01*
X304212Y250500D01*
X305524Y251812D01*
Y254436D01*
X306836Y250500D02*
X308804D01*
X309460Y251156D01*
X308804Y251812D01*
X307492D01*
X306836Y252468D01*
X307492Y253124D01*
X309460D01*
X313395Y249188D02*
Y253124D01*
X311427D01*
X310771Y252468D01*
Y251156D01*
X311427Y250500D01*
X313395D01*
X304600Y91136D02*
Y88512D01*
X305912Y87200D01*
X307224Y88512D01*
Y91136D01*
X308536Y87200D02*
Y91136D01*
X310504D01*
X311160Y90480D01*
Y89168D01*
X310504Y88512D01*
X308536D01*
X312472Y91136D02*
Y87200D01*
X313783Y88512D01*
X315095Y87200D01*
Y91136D01*
X316407Y87200D02*
Y91136D01*
X317719Y89824D01*
X319031Y91136D01*
Y87200D01*
X302800Y201636D02*
Y199012D01*
X304112Y197700D01*
X305424Y199012D01*
Y201636D01*
X309360Y200980D02*
X308704Y201636D01*
X307392D01*
X306736Y200980D01*
Y198356D01*
X307392Y197700D01*
X308704D01*
X309360Y198356D01*
X313295Y197700D02*
X310671D01*
X313295Y200324D01*
Y200980D01*
X312639Y201636D01*
X311327D01*
X310671Y200980D01*
X239436Y273359D02*
X238780Y274015D01*
X237469D01*
X236813Y273359D01*
Y270735D01*
X237469Y270079D01*
X238780D01*
X239436Y270735D01*
X240748Y270079D02*
X242060D01*
X241404D01*
Y274015D01*
X240748Y273359D01*
X244028D02*
X244684Y274015D01*
X245996D01*
X246652Y273359D01*
Y272703D01*
X245996Y272047D01*
X245340D01*
X245996D01*
X246652Y271391D01*
Y270735D01*
X245996Y270079D01*
X244684D01*
X244028Y270735D01*
X276838Y180840D02*
X276182Y181495D01*
X274870D01*
X274214Y180840D01*
Y178216D01*
X274870Y177560D01*
X276182D01*
X276838Y178216D01*
X278150Y177560D02*
X279462D01*
X278806D01*
Y181495D01*
X278150Y180840D01*
X284053Y177560D02*
X281430D01*
X284053Y180183D01*
Y180840D01*
X283398Y181495D01*
X282086D01*
X281430Y180840D01*
X224574Y210925D02*
Y207645D01*
X225231Y206989D01*
X226542D01*
X227198Y207645D01*
Y210925D01*
X228510Y210269D02*
X229166Y210925D01*
X230478D01*
X231134Y210269D01*
Y209613D01*
X230478Y208957D01*
X229822D01*
X230478D01*
X231134Y208301D01*
Y207645D01*
X230478Y206989D01*
X229166D01*
X228510Y207645D01*
X278019Y248131D02*
Y252066D01*
X279987D01*
X280643Y251410D01*
Y250098D01*
X279987Y249443D01*
X278019D01*
X279331D02*
X280643Y248131D01*
X281955Y248786D02*
X282611Y248131D01*
X283923D01*
X284579Y248786D01*
Y251410D01*
X283923Y252066D01*
X282611D01*
X281955Y251410D01*
Y250754D01*
X282611Y250098D01*
X284579D01*
X120474Y316241D02*
Y320177D01*
X122442D01*
X123098Y319521D01*
Y318209D01*
X122442Y317553D01*
X120474D01*
X121786D02*
X123098Y316241D01*
X124410D02*
X125722D01*
X125066D01*
Y320177D01*
X124410Y319521D01*
X127690D02*
X128346Y320177D01*
X129657D01*
X130313Y319521D01*
Y318865D01*
X129657Y318209D01*
X129001D01*
X129657D01*
X130313Y317553D01*
Y316897D01*
X129657Y316241D01*
X128346D01*
X127690Y316897D01*
X23393Y320768D02*
Y324704D01*
X25361D01*
X26017Y324048D01*
Y322736D01*
X25361Y322080D01*
X23393D01*
X29953Y320768D02*
X27329D01*
X29953Y323392D01*
Y324048D01*
X29297Y324704D01*
X27985D01*
X27329Y324048D01*
X99147Y250032D02*
X98491Y250688D01*
X97179D01*
X96523Y250032D01*
Y247409D01*
X97179Y246753D01*
X98491D01*
X99147Y247409D01*
X103083Y250688D02*
X100459D01*
Y248721D01*
X101771Y249376D01*
X102427D01*
X103083Y248721D01*
Y247409D01*
X102427Y246753D01*
X101115D01*
X100459Y247409D01*
X69096Y246753D02*
Y250688D01*
X71064D01*
X71720Y250032D01*
Y248721D01*
X71064Y248064D01*
X69096D01*
X70408D02*
X71720Y246753D01*
X73032D02*
X74344D01*
X73688D01*
Y250688D01*
X73032Y250032D01*
X76312D02*
X76968Y250688D01*
X78280D01*
X78935Y250032D01*
Y247409D01*
X78280Y246753D01*
X76968D01*
X76312Y247409D01*
Y250032D01*
X59876Y246457D02*
Y250393D01*
X61844D01*
X62500Y249737D01*
Y248425D01*
X61844Y247769D01*
X59876D01*
X61188D02*
X62500Y246457D01*
X63812D02*
X65124D01*
X64468D01*
Y250393D01*
X63812Y249737D01*
X10860Y177591D02*
X10204Y178247D01*
X8892D01*
X8236Y177591D01*
Y174968D01*
X8892Y174312D01*
X10204D01*
X10860Y174968D01*
X14140Y174312D02*
Y178247D01*
X12172Y176279D01*
X14796D01*
X24344Y221391D02*
X23688Y222047D01*
X22376D01*
X21720Y221391D01*
Y218767D01*
X22376Y218111D01*
X23688D01*
X24344Y218767D01*
X25656Y221391D02*
X26312Y222047D01*
X27624D01*
X28280Y221391D01*
Y220735D01*
X27624Y220079D01*
X26968D01*
X27624D01*
X28280Y219423D01*
Y218767D01*
X27624Y218111D01*
X26312D01*
X25656Y218767D01*
X58891Y86712D02*
X57579D01*
X58235D01*
Y83432D01*
X57579Y82776D01*
X56923D01*
X56267Y83432D01*
X62171Y82776D02*
Y86712D01*
X60203Y84744D01*
X62827D01*
X39502Y86417D02*
X38190D01*
X38846D01*
Y83137D01*
X38190Y82481D01*
X37534D01*
X36878Y83137D01*
X40813Y85761D02*
X41469Y86417D01*
X42781D01*
X43437Y85761D01*
Y85105D01*
X42781Y84449D01*
X42125D01*
X42781D01*
X43437Y83793D01*
Y83137D01*
X42781Y82481D01*
X41469D01*
X40813Y83137D01*
X35728Y132480D02*
X34416D01*
X35072D01*
Y129200D01*
X34416Y128544D01*
X33760D01*
X33105Y129200D01*
X37040Y128544D02*
X38352D01*
X37696D01*
Y132480D01*
X37040Y131824D01*
X221031Y275394D02*
Y279330D01*
X222999D01*
X223655Y278674D01*
Y277362D01*
X222999Y276706D01*
X221031D01*
X222343D02*
X223655Y275394D01*
X224967Y278674D02*
X225623Y279330D01*
X226935D01*
X227591Y278674D01*
Y278018D01*
X226935Y277362D01*
X227591Y276706D01*
Y276050D01*
X226935Y275394D01*
X225623D01*
X224967Y276050D01*
Y276706D01*
X225623Y277362D01*
X224967Y278018D01*
Y278674D01*
X225623Y277362D02*
X226935D01*
X61614Y167028D02*
X62926D01*
X62270D01*
Y170963D01*
X61614Y170307D01*
X53903Y167126D02*
X51279D01*
X53903Y169750D01*
Y170406D01*
X53247Y171062D01*
X51935D01*
X51279Y170406D01*
X41043Y170110D02*
X41699Y170766D01*
X43011D01*
X43667Y170110D01*
Y169455D01*
X43011Y168799D01*
X42355D01*
X43011D01*
X43667Y168143D01*
Y167487D01*
X43011Y166831D01*
X41699D01*
X41043Y167487D01*
X101324Y204080D02*
X100668Y204736D01*
X99356D01*
X98700Y204080D01*
Y201456D01*
X99356Y200800D01*
X100668D01*
X101324Y201456D01*
X102636Y200800D02*
X103948D01*
X103292D01*
Y204736D01*
X102636Y204080D01*
X105915Y200800D02*
X107227D01*
X106571D01*
Y204736D01*
X105915Y204080D01*
X231627Y102920D02*
Y105544D01*
X230972Y106200D01*
X229660D01*
X229004Y105544D01*
Y102920D01*
X229660Y102264D01*
X230972D01*
X230316Y103576D02*
X231627Y102264D01*
X230972D02*
X231627Y102920D01*
X235563Y102264D02*
X232939D01*
X235563Y104888D01*
Y105544D01*
X234907Y106200D01*
X233595D01*
X232939Y105544D01*
X16963Y155708D02*
Y153084D01*
X18275Y151772D01*
X19587Y153084D01*
Y155708D01*
X20899Y151772D02*
Y155708D01*
X22867D01*
X23523Y155052D01*
Y153740D01*
X22867Y153084D01*
X20899D01*
X22211D02*
X23523Y151772D01*
X24835D02*
X26147D01*
X25491D01*
Y155708D01*
X24835Y155052D01*
X166504Y246062D02*
Y242783D01*
X167160Y242127D01*
X168472D01*
X169128Y242783D01*
Y246062D01*
X173063Y242127D02*
X170439D01*
X173063Y244750D01*
Y245406D01*
X172407Y246062D01*
X171095D01*
X170439Y245406D01*
X110500Y242136D02*
Y238856D01*
X111156Y238200D01*
X112468D01*
X113124Y238856D01*
Y242136D01*
X114436Y238200D02*
X115748D01*
X115092D01*
Y242136D01*
X114436Y241480D01*
X201744Y120361D02*
Y124297D01*
X203712D01*
X204368Y123641D01*
Y122329D01*
X203712Y121673D01*
X201744D01*
X203056D02*
X204368Y120361D01*
X208304D02*
X205680D01*
X208304Y122985D01*
Y123641D01*
X207648Y124297D01*
X206336D01*
X205680Y123641D01*
X209616D02*
X210272Y124297D01*
X211584D01*
X212240Y123641D01*
Y122985D01*
X211584Y122329D01*
X210928D01*
X211584D01*
X212240Y121673D01*
Y121017D01*
X211584Y120361D01*
X210272D01*
X209616Y121017D01*
X182044Y120261D02*
Y124197D01*
X184012D01*
X184668Y123541D01*
Y122229D01*
X184012Y121573D01*
X182044D01*
X183356D02*
X184668Y120261D01*
X188604D02*
X185980D01*
X188604Y122885D01*
Y123541D01*
X187948Y124197D01*
X186636D01*
X185980Y123541D01*
X192540Y120261D02*
X189916D01*
X192540Y122885D01*
Y123541D01*
X191884Y124197D01*
X190572D01*
X189916Y123541D01*
X241078Y120867D02*
Y124802D01*
X243045D01*
X243701Y124147D01*
Y122835D01*
X243045Y122179D01*
X241078D01*
X242389D02*
X243701Y120867D01*
X247637D02*
X245013D01*
X247637Y123491D01*
Y124147D01*
X246981Y124802D01*
X245669D01*
X245013Y124147D01*
X248949Y120867D02*
X250261D01*
X249605D01*
Y124802D01*
X248949Y124147D01*
X257869Y120853D02*
Y124789D01*
X259837D01*
X260492Y124133D01*
Y122821D01*
X259837Y122165D01*
X257869D01*
X259181D02*
X260492Y120853D01*
X264428D02*
X261804D01*
X264428Y123477D01*
Y124133D01*
X263772Y124789D01*
X262460D01*
X261804Y124133D01*
X265740D02*
X266396Y124789D01*
X267708D01*
X268364Y124133D01*
Y121509D01*
X267708Y120853D01*
X266396D01*
X265740Y121509D01*
Y124133D01*
X288486Y126083D02*
Y130019D01*
X290454D01*
X291110Y129363D01*
Y128051D01*
X290454Y127395D01*
X288486D01*
X289798D02*
X291110Y126083D01*
X292422D02*
X293734D01*
X293077D01*
Y130019D01*
X292422Y129363D01*
X295701Y126739D02*
X296357Y126083D01*
X297669D01*
X298325Y126739D01*
Y129363D01*
X297669Y130019D01*
X296357D01*
X295701Y129363D01*
Y128707D01*
X296357Y128051D01*
X298325D01*
X247900Y185400D02*
Y189336D01*
X249868D01*
X250524Y188680D01*
Y187368D01*
X249868Y186712D01*
X247900D01*
X249212D02*
X250524Y185400D01*
X251836D02*
X253148D01*
X252492D01*
Y189336D01*
X251836Y188680D01*
X255116D02*
X255771Y189336D01*
X257083D01*
X257739Y188680D01*
Y188024D01*
X257083Y187368D01*
X257739Y186712D01*
Y186056D01*
X257083Y185400D01*
X255771D01*
X255116Y186056D01*
Y186712D01*
X255771Y187368D01*
X255116Y188024D01*
Y188680D01*
X255771Y187368D02*
X257083D01*
X231400Y185300D02*
Y189236D01*
X233368D01*
X234024Y188580D01*
Y187268D01*
X233368Y186612D01*
X231400D01*
X232712D02*
X234024Y185300D01*
X235336D02*
X236648D01*
X235992D01*
Y189236D01*
X235336Y188580D01*
X238615Y189236D02*
X241239D01*
Y188580D01*
X238615Y185956D01*
Y185300D01*
X201084Y185335D02*
Y189271D01*
X203052D01*
X203708Y188615D01*
Y187303D01*
X203052Y186647D01*
X201084D01*
X202396D02*
X203708Y185335D01*
X205020D02*
X206332D01*
X205676D01*
Y189271D01*
X205020Y188615D01*
X210924Y189271D02*
X209612Y188615D01*
X208300Y187303D01*
Y185991D01*
X208956Y185335D01*
X210268D01*
X210924Y185991D01*
Y186647D01*
X210268Y187303D01*
X208300D01*
X142400Y296500D02*
Y300436D01*
X144368D01*
X145024Y299780D01*
Y298468D01*
X144368Y297812D01*
X142400D01*
X143712D02*
X145024Y296500D01*
X146336D02*
X147648D01*
X146992D01*
Y300436D01*
X146336Y299780D01*
X152239Y300436D02*
X149616D01*
Y298468D01*
X150927Y299124D01*
X151583D01*
X152239Y298468D01*
Y297156D01*
X151583Y296500D01*
X150271D01*
X149616Y297156D01*
X214600Y185400D02*
Y189336D01*
X216568D01*
X217224Y188680D01*
Y187368D01*
X216568Y186712D01*
X214600D01*
X215912D02*
X217224Y185400D01*
X218536D02*
X219848D01*
X219192D01*
Y189336D01*
X218536Y188680D01*
X224439Y185400D02*
X221815D01*
X224439Y188024D01*
Y188680D01*
X223783Y189336D01*
X222471D01*
X221815Y188680D01*
X125600Y296500D02*
Y300436D01*
X127568D01*
X128224Y299780D01*
Y298468D01*
X127568Y297812D01*
X125600D01*
X126912D02*
X128224Y296500D01*
X129536D02*
X130848D01*
X130192D01*
Y300436D01*
X129536Y299780D01*
X132816Y296500D02*
X134127D01*
X133472D01*
Y300436D01*
X132816Y299780D01*
X211681Y275485D02*
Y279421D01*
X213649D01*
X214305Y278765D01*
Y277453D01*
X213649Y276797D01*
X211681D01*
X212993D02*
X214305Y275485D01*
X215617Y279421D02*
X218240D01*
Y278765D01*
X215617Y276141D01*
Y275485D01*
X201100Y275500D02*
Y279436D01*
X203068D01*
X203724Y278780D01*
Y277468D01*
X203068Y276812D01*
X201100D01*
X202412D02*
X203724Y275500D01*
X207660Y279436D02*
X206348Y278780D01*
X205036Y277468D01*
Y276156D01*
X205692Y275500D01*
X207004D01*
X207660Y276156D01*
Y276812D01*
X207004Y277468D01*
X205036D01*
X86100Y246700D02*
Y250636D01*
X88068D01*
X88724Y249980D01*
Y248668D01*
X88068Y248012D01*
X86100D01*
X87412D02*
X88724Y246700D01*
X92660D02*
X90036D01*
X92660Y249324D01*
Y249980D01*
X92004Y250636D01*
X90692D01*
X90036Y249980D01*
X277362Y124279D02*
Y126902D01*
X276706Y127558D01*
X275394D01*
X274738Y126902D01*
Y124279D01*
X275394Y123623D01*
X276706D01*
X276050Y124935D02*
X277362Y123623D01*
X276706D02*
X277362Y124279D01*
X278674Y123623D02*
X279986D01*
X279330D01*
Y127558D01*
X278674Y126902D01*
X79500Y137000D02*
Y140936D01*
X81468D01*
X82124Y140280D01*
Y138968D01*
X81468Y138312D01*
X79500D01*
X83436Y137000D02*
X84748D01*
X84092D01*
Y140936D01*
X83436Y140280D01*
X30840Y242224D02*
X29528D01*
X30184D01*
Y238944D01*
X29528Y238288D01*
X28872D01*
X28216Y238944D01*
X34776Y242224D02*
X32152D01*
Y240256D01*
X33464Y240912D01*
X34120D01*
X34776Y240256D01*
Y238944D01*
X34120Y238288D01*
X32808D01*
X32152Y238944D01*
X303807Y116929D02*
Y114305D01*
X305119Y112993D01*
X306431Y114305D01*
Y116929D01*
X310367Y116272D02*
X309711Y116929D01*
X308399D01*
X307743Y116272D01*
Y113649D01*
X308399Y112993D01*
X309711D01*
X310367Y113649D01*
X314303Y116272D02*
X313647Y116929D01*
X312335D01*
X311679Y116272D01*
Y113649D01*
X312335Y112993D01*
X313647D01*
X314303Y113649D01*
X110324Y300780D02*
X109668Y301436D01*
X108356D01*
X107700Y300780D01*
Y298156D01*
X108356Y297500D01*
X109668D01*
X110324Y298156D01*
X111636Y297500D02*
X112948D01*
X112292D01*
Y301436D01*
X111636Y300780D01*
X114916Y301436D02*
X117539D01*
Y300780D01*
X114916Y298156D01*
Y297500D01*
X130381Y191469D02*
X129725Y192125D01*
X128413D01*
X127758Y191469D01*
Y188846D01*
X128413Y188190D01*
X129725D01*
X130381Y188846D01*
X131693Y188190D02*
X133005D01*
X132349D01*
Y192125D01*
X131693Y191469D01*
X134973D02*
X135629Y192125D01*
X136941D01*
X137597Y191469D01*
Y188846D01*
X136941Y188190D01*
X135629D01*
X134973Y188846D01*
Y191469D01*
X144817Y191371D02*
X144160Y192027D01*
X142849D01*
X142193Y191371D01*
Y188747D01*
X142849Y188091D01*
X144160D01*
X144817Y188747D01*
X146128D02*
X146784Y188091D01*
X148096D01*
X148752Y188747D01*
Y191371D01*
X148096Y192027D01*
X146784D01*
X146128Y191371D01*
Y190715D01*
X146784Y190059D01*
X148752D01*
X155524Y280780D02*
X154868Y281436D01*
X153556D01*
X152900Y280780D01*
Y278156D01*
X153556Y277500D01*
X154868D01*
X155524Y278156D01*
X156836Y280780D02*
X157492Y281436D01*
X158804D01*
X159460Y280780D01*
Y280124D01*
X158804Y279468D01*
X159460Y278812D01*
Y278156D01*
X158804Y277500D01*
X157492D01*
X156836Y278156D01*
Y278812D01*
X157492Y279468D01*
X156836Y280124D01*
Y280780D01*
X157492Y279468D02*
X158804D01*
X190924Y278980D02*
X190268Y279636D01*
X188956D01*
X188300Y278980D01*
Y276356D01*
X188956Y275700D01*
X190268D01*
X190924Y276356D01*
X192236Y279636D02*
X194860D01*
Y278980D01*
X192236Y276356D01*
Y275700D01*
X178524Y279680D02*
X177868Y280336D01*
X176556D01*
X175900Y279680D01*
Y277056D01*
X176556Y276400D01*
X177868D01*
X178524Y277056D01*
X182460Y280336D02*
X181148Y279680D01*
X179836Y278368D01*
Y277056D01*
X180492Y276400D01*
X181804D01*
X182460Y277056D01*
Y277712D01*
X181804Y278368D01*
X179836D01*
X30364Y143643D02*
X29708Y144299D01*
X28396D01*
X27740Y143643D01*
Y141019D01*
X28396Y140363D01*
X29708D01*
X30364Y141019D01*
X34299Y140363D02*
X31676D01*
X34299Y142987D01*
Y143643D01*
X33643Y144299D01*
X32332D01*
X31676Y143643D01*
X49311Y132808D02*
X48655Y133464D01*
X47343D01*
X46687Y132808D01*
Y130184D01*
X47343Y129528D01*
X48655D01*
X49311Y130184D01*
X50623Y129528D02*
X51935D01*
X51279D01*
Y133464D01*
X50623Y132808D01*
M02*
