G04*
G04 #@! TF.GenerationSoftware,Altium Limited,Altium Designer,22.3.1 (43)*
G04*
G04 Layer_Color=255*
%FSLAX25Y25*%
%MOIN*%
G70*
G04*
G04 #@! TF.SameCoordinates,DB5E6BC5-2FB0-485C-ACA0-6941E67FB07D*
G04*
G04*
G04 #@! TF.FilePolarity,Positive*
G04*
G01*
G75*
%ADD39O,0.06000X0.08000*%
%ADD40R,0.05906X0.07874*%
%ADD41O,0.05906X0.07874*%
%ADD42R,0.07874X0.05906*%
%ADD43R,0.05906X0.05906*%
%ADD44C,0.05906*%
%ADD45C,0.06693*%
%ADD46O,0.08000X0.06000*%
%ADD47O,0.10000X0.07000*%
%ADD48R,0.10000X0.07000*%
%ADD49O,0.09843X0.06890*%
%ADD50O,0.07000X0.10000*%
%ADD51R,0.07000X0.10000*%
%ADD52R,0.05906X0.05906*%
%ADD53O,0.03543X0.05906*%
%ADD54R,0.17500X0.17500*%
%ADD55R,0.06693X0.11811*%
%ADD56O,0.06693X0.11811*%
%ADD57C,0.06000*%
D39*
X268307Y178465D02*
D03*
Y138465D02*
D03*
X72736Y199784D02*
D03*
Y239784D02*
D03*
X225590Y228130D02*
D03*
Y268130D02*
D03*
X60433Y199390D02*
D03*
Y239390D02*
D03*
X215846Y228130D02*
D03*
Y268130D02*
D03*
X259736Y73803D02*
D03*
Y113803D02*
D03*
X243996Y73898D02*
D03*
Y113898D02*
D03*
X208295Y73803D02*
D03*
Y113803D02*
D03*
X188583Y73701D02*
D03*
Y113701D02*
D03*
X218406Y138366D02*
D03*
Y178366D02*
D03*
X206004Y178169D02*
D03*
Y138169D02*
D03*
X297342Y78819D02*
D03*
Y118819D02*
D03*
X281496Y201457D02*
D03*
Y241457D02*
D03*
X129429Y289488D02*
D03*
Y249488D02*
D03*
X204921Y268524D02*
D03*
Y228524D02*
D03*
X89862Y239685D02*
D03*
Y199685D02*
D03*
X235236Y138268D02*
D03*
Y178268D02*
D03*
X251673Y138366D02*
D03*
Y178366D02*
D03*
X146161Y289488D02*
D03*
Y249488D02*
D03*
D40*
X308032Y167323D02*
D03*
X298268Y151969D02*
D03*
X215246Y290148D02*
D03*
X307655Y241302D02*
D03*
X307493Y189810D02*
D03*
X39724Y121516D02*
D03*
X48917Y239469D02*
D03*
X309252Y105709D02*
D03*
X59153Y75787D02*
D03*
X39665Y75197D02*
D03*
D41*
X298031Y167323D02*
D03*
X308268Y151969D02*
D03*
D42*
X309321Y79678D02*
D03*
D43*
X259055Y248425D02*
D03*
X160138Y180512D02*
D03*
X62303Y121457D02*
D03*
D44*
X259055Y260236D02*
D03*
X160138Y168701D02*
D03*
X30610Y200000D02*
D03*
X62303Y109646D02*
D03*
D45*
X267992Y189272D02*
D03*
X287992D02*
D03*
X157677Y249508D02*
D03*
Y269508D02*
D03*
X103543Y192835D02*
D03*
Y172835D02*
D03*
X62520Y141831D02*
D03*
X42520D02*
D03*
X102559Y239862D02*
D03*
Y219862D02*
D03*
X132874Y180532D02*
D03*
Y160531D02*
D03*
X42342Y178051D02*
D03*
X22343D02*
D03*
X193110Y267736D02*
D03*
Y247736D02*
D03*
X180709Y268425D02*
D03*
Y248425D02*
D03*
X112500Y269500D02*
D03*
Y289500D02*
D03*
D46*
X152087Y309941D02*
D03*
X112087D02*
D03*
D47*
X160236Y202736D02*
D03*
Y212736D02*
D03*
Y222736D02*
D03*
Y232736D02*
D03*
X190236Y212736D02*
D03*
Y222736D02*
D03*
Y232736D02*
D03*
X145354Y229547D02*
D03*
Y219547D02*
D03*
Y209547D02*
D03*
X115354Y229547D02*
D03*
Y219547D02*
D03*
Y209547D02*
D03*
Y199547D02*
D03*
D48*
X190236Y202736D02*
D03*
X145354Y199547D02*
D03*
D49*
X279035Y108465D02*
D03*
Y98425D02*
D03*
Y88465D02*
D03*
D50*
X239252Y231594D02*
D03*
X249252D02*
D03*
X259252D02*
D03*
X239252Y201594D02*
D03*
X249252D02*
D03*
X259252D02*
D03*
X269252D02*
D03*
D51*
Y231594D02*
D03*
D52*
X42421Y200000D02*
D03*
D53*
X222441Y114075D02*
D03*
X227362D02*
D03*
X232283D02*
D03*
D54*
X43000Y269000D02*
D03*
Y306000D02*
D03*
X83000D02*
D03*
Y269000D02*
D03*
X141437Y120957D02*
D03*
Y83957D02*
D03*
X101437D02*
D03*
Y120957D02*
D03*
D55*
X62165Y156693D02*
D03*
D56*
X52165D02*
D03*
X42165D02*
D03*
D57*
X10000Y320000D02*
D03*
X310000D02*
D03*
X309646Y59842D02*
D03*
X9646D02*
D03*
M02*
