G04*
G04 #@! TF.GenerationSoftware,Altium Limited,Altium Designer,22.3.1 (43)*
G04*
G04 Layer_Color=8388736*
%FSLAX25Y25*%
%MOIN*%
G70*
G04*
G04 #@! TF.SameCoordinates,DB5E6BC5-2FB0-485C-ACA0-6941E67FB07D*
G04*
G04*
G04 #@! TF.FilePolarity,Negative*
G04*
G01*
G75*
%ADD15O,0.06800X0.08800*%
%ADD16R,0.06706X0.08674*%
%ADD17O,0.06706X0.08674*%
%ADD18R,0.08674X0.06706*%
%ADD19R,0.06706X0.06706*%
%ADD20C,0.06706*%
%ADD21C,0.07493*%
%ADD22O,0.08800X0.06800*%
%ADD23O,0.10800X0.07800*%
%ADD24R,0.10800X0.07800*%
%ADD25O,0.10642X0.07690*%
%ADD26O,0.07800X0.10800*%
%ADD27R,0.07800X0.10800*%
%ADD28R,0.06706X0.06706*%
%ADD29O,0.04343X0.06706*%
%ADD30R,0.18300X0.18300*%
%ADD31R,0.07493X0.12611*%
%ADD32O,0.07493X0.12611*%
%ADD33C,0.06800*%
%ADD34C,0.03950*%
%ADD35C,0.05800*%
D15*
X268307Y178465D02*
D03*
Y138465D02*
D03*
X72736Y199784D02*
D03*
Y239784D02*
D03*
X225590Y228130D02*
D03*
Y268130D02*
D03*
X60433Y199390D02*
D03*
Y239390D02*
D03*
X215846Y228130D02*
D03*
Y268130D02*
D03*
X259736Y73803D02*
D03*
Y113803D02*
D03*
X243996Y73898D02*
D03*
Y113898D02*
D03*
X208295Y73803D02*
D03*
Y113803D02*
D03*
X188583Y73701D02*
D03*
Y113701D02*
D03*
X218406Y138366D02*
D03*
Y178366D02*
D03*
X206004Y178169D02*
D03*
Y138169D02*
D03*
X297342Y78819D02*
D03*
Y118819D02*
D03*
X281496Y201457D02*
D03*
Y241457D02*
D03*
X129429Y289488D02*
D03*
Y249488D02*
D03*
X204921Y268524D02*
D03*
Y228524D02*
D03*
X89862Y239685D02*
D03*
Y199685D02*
D03*
X235236Y138268D02*
D03*
Y178268D02*
D03*
X251673Y138366D02*
D03*
Y178366D02*
D03*
X146161Y289488D02*
D03*
Y249488D02*
D03*
D16*
X308032Y167323D02*
D03*
X298268Y151969D02*
D03*
X215246Y290148D02*
D03*
X307655Y241302D02*
D03*
X307493Y189810D02*
D03*
X39724Y121516D02*
D03*
X48917Y239469D02*
D03*
X309252Y105709D02*
D03*
X59153Y75787D02*
D03*
X39665Y75197D02*
D03*
D17*
X298031Y167323D02*
D03*
X308268Y151969D02*
D03*
D18*
X309321Y79678D02*
D03*
D19*
X259055Y248425D02*
D03*
X160138Y180512D02*
D03*
X62303Y121457D02*
D03*
D20*
X259055Y260236D02*
D03*
X160138Y168701D02*
D03*
X30610Y200000D02*
D03*
X62303Y109646D02*
D03*
D21*
X267992Y189272D02*
D03*
X287992D02*
D03*
X157677Y249508D02*
D03*
Y269508D02*
D03*
X103543Y192835D02*
D03*
Y172835D02*
D03*
X62520Y141831D02*
D03*
X42520D02*
D03*
X102559Y239862D02*
D03*
Y219862D02*
D03*
X132874Y180532D02*
D03*
Y160531D02*
D03*
X42342Y178051D02*
D03*
X22343D02*
D03*
X193110Y267736D02*
D03*
Y247736D02*
D03*
X180709Y268425D02*
D03*
Y248425D02*
D03*
X112500Y269500D02*
D03*
Y289500D02*
D03*
D22*
X152087Y309941D02*
D03*
X112087D02*
D03*
D23*
X160236Y202736D02*
D03*
Y212736D02*
D03*
Y222736D02*
D03*
Y232736D02*
D03*
X190236Y212736D02*
D03*
Y222736D02*
D03*
Y232736D02*
D03*
X145354Y229547D02*
D03*
Y219547D02*
D03*
Y209547D02*
D03*
X115354Y229547D02*
D03*
Y219547D02*
D03*
Y209547D02*
D03*
Y199547D02*
D03*
D24*
X190236Y202736D02*
D03*
X145354Y199547D02*
D03*
D25*
X279035Y108465D02*
D03*
Y98425D02*
D03*
Y88465D02*
D03*
D26*
X239252Y231594D02*
D03*
X249252D02*
D03*
X259252D02*
D03*
X239252Y201594D02*
D03*
X249252D02*
D03*
X259252D02*
D03*
X269252D02*
D03*
D27*
Y231594D02*
D03*
D28*
X42421Y200000D02*
D03*
D29*
X222441Y114075D02*
D03*
X227362D02*
D03*
X232283D02*
D03*
D30*
X43000Y269000D02*
D03*
Y306000D02*
D03*
X83000D02*
D03*
Y269000D02*
D03*
X141437Y120957D02*
D03*
Y83957D02*
D03*
X101437D02*
D03*
Y120957D02*
D03*
D31*
X62165Y156693D02*
D03*
D32*
X52165D02*
D03*
X42165D02*
D03*
D33*
X10000Y320000D02*
D03*
X310000D02*
D03*
X309646Y59842D02*
D03*
X9646D02*
D03*
D34*
X289764Y182965D02*
D03*
X219411Y277453D02*
D03*
X289764Y135721D02*
D03*
X254331Y256638D02*
D03*
X301575Y301075D02*
D03*
X313386Y277453D02*
D03*
X301575Y253831D02*
D03*
X313386Y230209D02*
D03*
X301575Y206587D02*
D03*
X313386Y182965D02*
D03*
Y135721D02*
D03*
X301575Y112099D02*
D03*
X313386Y88476D02*
D03*
X301575Y64854D02*
D03*
X277953Y301075D02*
D03*
X289764Y277453D02*
D03*
X277953Y253831D02*
D03*
X289764Y230209D02*
D03*
Y88476D02*
D03*
X277953Y64854D02*
D03*
X254331Y301075D02*
D03*
X266142Y277453D02*
D03*
X254331Y64854D02*
D03*
X230709Y301075D02*
D03*
X242520Y277453D02*
D03*
X230709Y206587D02*
D03*
X242520Y182965D02*
D03*
X230709Y159343D02*
D03*
X242520Y135721D02*
D03*
Y88476D02*
D03*
X230709Y64854D02*
D03*
X207087Y301075D02*
D03*
Y159343D02*
D03*
X218898Y88476D02*
D03*
X207087Y64854D02*
D03*
X183465Y301075D02*
D03*
X195276Y277453D02*
D03*
Y182965D02*
D03*
Y88476D02*
D03*
X183465Y64854D02*
D03*
X159843Y301075D02*
D03*
X171654Y277453D02*
D03*
Y182965D02*
D03*
X159843Y159343D02*
D03*
X171654Y135721D02*
D03*
X159843Y112099D02*
D03*
X171654Y88476D02*
D03*
X159843Y64854D02*
D03*
X136221Y301075D02*
D03*
Y253831D02*
D03*
Y206587D02*
D03*
X148031Y135721D02*
D03*
X136221Y64854D02*
D03*
X124409Y277453D02*
D03*
X112599Y253831D02*
D03*
X124409Y230209D02*
D03*
Y182965D02*
D03*
X112599Y159343D02*
D03*
X124409Y135721D02*
D03*
Y88476D02*
D03*
X112599Y64854D02*
D03*
X100787Y277453D02*
D03*
X88976Y253831D02*
D03*
X100787Y182965D02*
D03*
X88976Y159343D02*
D03*
X100787Y135721D02*
D03*
X88976Y112099D02*
D03*
Y64854D02*
D03*
X65354Y301075D02*
D03*
Y253831D02*
D03*
X77165Y230209D02*
D03*
X65354Y206587D02*
D03*
X77165Y182965D02*
D03*
Y135721D02*
D03*
Y88476D02*
D03*
X65354Y64854D02*
D03*
X41732Y253831D02*
D03*
X53543Y230209D02*
D03*
X41732Y206587D02*
D03*
X53543Y182965D02*
D03*
Y135721D02*
D03*
X41732Y112099D02*
D03*
X53543Y88476D02*
D03*
X41732Y64854D02*
D03*
X18110Y301075D02*
D03*
X29921Y277453D02*
D03*
X18110Y253831D02*
D03*
X29921Y230209D02*
D03*
X18110Y206587D02*
D03*
X29921Y182965D02*
D03*
X18110Y159343D02*
D03*
X29921Y135721D02*
D03*
X18110Y112099D02*
D03*
X29921Y88476D02*
D03*
X18110Y64854D02*
D03*
D35*
X195965Y144390D02*
D03*
M02*
